<svg xmlns="http://www.w3.org/2000/svg" xmlns:xlink="http://www.w3.org/1999/xlink" width="182" height="178" viewBox="0 0 182 178">
  <defs>
    <clipPath id="clip-path">
      <rect id="Rectangle_7494" data-name="Rectangle 7494" width="83.095" height="14.561" transform="translate(0 0)" fill="#180404"/>
    </clipPath>
  </defs>
  <g id="Group_4901" data-name="Group 4901" transform="translate(-1126 -9727.037)">
    <rect id="Rectangle_7496" data-name="Rectangle 7496" width="4" height="108" transform="translate(1126 9797.037)" fill="#d3f840"/>
    <g id="Group_4896" data-name="Group 4896">
      <rect id="Rectangle_7492" data-name="Rectangle 7492" width="182" height="74" transform="translate(1126 9727.037)" fill="#d3f840"/>
      <text id="Bengaluru" transform="translate(1217 9761.037)" fill="#170404" font-size="20" font-family="Inter-Bold, Inter" font-weight="700"><tspan x="-61.768" y="0">BENGALURU</tspan></text>
      <g id="Group_4749" data-name="Group 4749" transform="translate(1175.452 9771.037)">
        <g id="Group_4748" data-name="Group 4748" transform="translate(0 0)" clip-path="url(#clip-path)">
          <path id="Path_2695" data-name="Path 2695" d="M13.96,7.6a6.267,6.267,0,0,0-.975-1.454,3.271,3.271,0,0,0,.593-.381,3.081,3.081,0,0,0,.743-1.039,3.473,3.473,0,0,0,.255-1.389,3.57,3.57,0,0,0-.4-1.713A2.935,2.935,0,0,0,13,.439,3.859,3.859,0,0,0,11.085,0,4.038,4.038,0,0,0,9.329.339a2.552,2.552,0,0,0-1.067.89A2.094,2.094,0,0,0,7.9,2.39a1.626,1.626,0,0,0,.392,1.145A1.429,1.429,0,0,0,9.4,3.964a1.481,1.481,0,0,0,.988-.278.943.943,0,0,0,.324-.751.9.9,0,0,0-.305-.708A1.044,1.044,0,0,0,10,2a1.648,1.648,0,0,1,.923-.257,1.2,1.2,0,0,1,.934.359,1.245,1.245,0,0,1,.323.865,1.955,1.955,0,0,1-.079.559A1.116,1.116,0,0,1,11.815,4a1.723,1.723,0,0,1-.725.357,2.974,2.974,0,0,1-.373.068c-.105-.055-.208-.113-.316-.165l-.129.205c-.216.013-.453.021-.728.021l-3.338,0v.682a2.739,2.739,0,0,0-.689-.5,4.4,4.4,0,0,0-2-.378,5.274,5.274,0,0,0-2,.321,2.434,2.434,0,0,0-1.146.881A2.273,2.273,0,0,0,0,6.767a3.8,3.8,0,0,0,.522,1.87l2.115-.767A2.488,2.488,0,0,1,2.48,7.46a1.566,1.566,0,0,1-.069-.446.766.766,0,0,1,.236-.576,1.1,1.1,0,0,1,.778-.226,1.491,1.491,0,0,1,.533.079.624.624,0,0,1,.3.219.571.571,0,0,1,.1.332.886.886,0,0,1-.289.638,4.835,4.835,0,0,1-.9.654A11.819,11.819,0,0,0,1.526,9.259a3.035,3.035,0,0,0-.849,1.082,3.4,3.4,0,0,0-.246,1.354A2.472,2.472,0,0,0,.788,12.98a2.625,2.625,0,0,0,1.074.979,3.809,3.809,0,0,0,1.782.378,7.2,7.2,0,0,0,1.529-.156,3.842,3.842,0,0,0,1.4-.627,4.314,4.314,0,0,0,.7-.623,6.03,6.03,0,0,0,.537.537,3.252,3.252,0,0,0,1.2.674,5.392,5.392,0,0,0,1.555.2,4.141,4.141,0,0,0,2.167-.522,3.312,3.312,0,0,0,1.321-1.475,5.2,5.2,0,0,0,.448-2.227A5.7,5.7,0,0,0,13.96,7.6m-2.477,3.981a1.661,1.661,0,0,1-1.337.54,1.7,1.7,0,0,1-1.127-.438,1.928,1.928,0,0,1-.584-1.4l-2.289,0a1.986,1.986,0,0,1-.561,1.327,1.936,1.936,0,0,1-1.433.5,1.612,1.612,0,0,1-.883-.193.647.647,0,0,1-.287-.577.884.884,0,0,1,.236-.611,4.846,4.846,0,0,1,.988-.715,13.018,13.018,0,0,0,1.574-1.1,3.127,3.127,0,0,0,.822-1,2.654,2.654,0,0,0,.246-1.17c0-.024,0-.047,0-.07l2.756,0a7.346,7.346,0,0,1,.944.613,3.839,3.839,0,0,1,1.029,1.189,3.248,3.248,0,0,1,.374,1.59,2.24,2.24,0,0,1-.465,1.5" transform="translate(0 0)" fill="#180404"/>
          <path id="Path_2696" data-name="Path 2696" d="M68.566,8.429a4.075,4.075,0,0,0-1.046-1.634,4.746,4.746,0,0,0-1.162-.822,5.739,5.739,0,0,0-1.589-.5,13.259,13.259,0,0,0-2.28-.169l-2.513,0a3.174,3.174,0,0,0,.067-.594,4.688,4.688,0,0,0-.3-1.678A7.242,7.242,0,0,0,58.6,1.176L56.656,2.309a5.559,5.559,0,0,1,.7.979,1.969,1.969,0,0,1,.244.944,1.388,1.388,0,0,1-.071.472.668.668,0,0,1-.3.332,1.651,1.651,0,0,1-.577.191,8.492,8.492,0,0,1-1.328.068l-7.566-.008,0,2.2,6.727.008a5.8,5.8,0,0,1,1.6.972,4.419,4.419,0,0,1,1.047,1.32,3.368,3.368,0,0,1,.373,1.555,1.907,1.907,0,0,1-.315,1.179,1.1,1.1,0,0,1-.926.41,1.537,1.537,0,0,1-.7-.167,2.39,2.39,0,0,1-.655-.507q-.323-.341-.707-.831a5,5,0,0,0-1.554-1.461,3.6,3.6,0,0,0-1.694-.4,3.768,3.768,0,0,0-1.765.373A2.566,2.566,0,0,0,48.1,10.984a3.125,3.125,0,0,0-.368,1.537,4.233,4.233,0,0,0,.295,1.451,5.319,5.319,0,0,0,.733,1.381l2.22-.906a8.466,8.466,0,0,1-.523-.936,2.085,2.085,0,0,1-.191-.9.929.929,0,0,1,.2-.611.711.711,0,0,1,.586-.244.654.654,0,0,1,.349.1,1.461,1.461,0,0,1,.34.315q.183.219.445.568a10.176,10.176,0,0,0,1.186,1.312,4.254,4.254,0,0,0,1.292.823,4.308,4.308,0,0,0,1.607.281,3.906,3.906,0,0,0,2.805-.923,3.7,3.7,0,0,0,.973-2.795,4.837,4.837,0,0,0-.278-1.66,4.705,4.705,0,0,0-.828-1.425,6.235,6.235,0,0,0-.879-.849l3.946,0a11.744,11.744,0,0,1,1.677.1,4.4,4.4,0,0,1,1.057.272,2.629,2.629,0,0,1,.724.455,2.249,2.249,0,0,1,.68.944,3.721,3.721,0,0,1,.226,1.363,3.341,3.341,0,0,1-.238,1.319,1.8,1.8,0,0,1-.691.838,2.086,2.086,0,0,1-1.136.287,1.341,1.341,0,0,1-1.127-.421,1.393,1.393,0,0,1-.322-.85.8.8,0,0,0,.3.221,1.735,1.735,0,0,0,.655.141,1.054,1.054,0,0,0,.839-.34,1.456,1.456,0,0,0-.12-1.9,1.837,1.837,0,0,0-1.293-.395,2.241,2.241,0,0,0-1.215.322,2.159,2.159,0,0,0-.8.881,2.861,2.861,0,0,0-.281,1.293,3.17,3.17,0,0,0,.418,1.66,2.764,2.764,0,0,0,1.239,1.085,4.671,4.671,0,0,0,1.992.387,4.609,4.609,0,0,0,2.272-.53,3.627,3.627,0,0,0,1.487-1.545A5.27,5.27,0,0,0,68.9,10.64a6.711,6.711,0,0,0-.33-2.211" transform="translate(-32.136 -0.792)" fill="#180404"/>
          <path id="Path_2697" data-name="Path 2697" d="M142.294,8.643a5,5,0,0,0-1.1-1.775,5.157,5.157,0,0,0-1.886-1.225,7.49,7.49,0,0,0-2.716-.448,7.27,7.27,0,0,0-2.823.5,4.157,4.157,0,0,0-1.88,1.465,3.991,3.991,0,0,0-.667,2.323q0,.385.026.734c.017.233.035.475.051.725s.026.544.026.882a1.157,1.157,0,0,1-.324.882,1.418,1.418,0,0,1-1.005.3,2.431,2.431,0,0,1-1.458-.447,6.072,6.072,0,0,1-1.224-1.263,2.844,2.844,0,0,0,.658-.756,2.59,2.59,0,0,0,.334-1.345,2.2,2.2,0,0,0-.217-1,2.435,2.435,0,0,0-.593-.761,2.872,2.872,0,0,0-.484-.335,2.426,2.426,0,0,0,.922-.809,2.662,2.662,0,0,0,.43-1.5,4.729,4.729,0,0,0-.3-1.7,7.061,7.061,0,0,0-1.16-1.853l-1.941,1.133a5.989,5.989,0,0,1,.706.979,1.919,1.919,0,0,1,.253.944,1.39,1.39,0,0,1-.071.472.656.656,0,0,1-.315.332,1.634,1.634,0,0,1-.577.191,8.535,8.535,0,0,1-1.328.068h-.437l0,2.2h1.118a2.582,2.582,0,0,1,1.039.482,1.026,1.026,0,0,1,.392.83,1.317,1.317,0,0,1-.875,1.2,6.653,6.653,0,0,1-2.674.46,13.64,13.64,0,0,1-2.219-.177,5.068,5.068,0,0,1-.87-.234c.063,0,.124.006.188.006a3.541,3.541,0,0,0,1.625-.322,2.027,2.027,0,0,0,.918-.89,2.79,2.79,0,0,0,.29-1.284,2.37,2.37,0,0,0-.374-1.381,2.32,2.32,0,0,0-.995-.813,3.4,3.4,0,0,0-1.372-.273,4.036,4.036,0,0,0-1.922.426,2.966,2.966,0,0,0-1.224,1.169,3.372,3.372,0,0,0-.422,1.685,3.408,3.408,0,0,0,.523,1.861,3.959,3.959,0,0,0,1.51,1.365,6.076,6.076,0,0,0,1.475.545,2.383,2.383,0,0,0-.2.3,1.522,1.522,0,0,0-.2.76,1.446,1.446,0,0,0,.444,1.092,2.757,2.757,0,0,0,1.179.639,5.827,5.827,0,0,0,1.607.211,4.7,4.7,0,0,0,2.508-.539,1.624,1.624,0,0,0,.849-1.415,1.793,1.793,0,0,0-.191-.874c-.031-.056-.075-.11-.112-.165.188-.042.375-.085.558-.14a4.883,4.883,0,0,0,1.2-.536l-1.187,1.3a10.075,10.075,0,0,0,2.13,1.75,4.929,4.929,0,0,0,2.55.632,4.839,4.839,0,0,0,1.722-.286,2.56,2.56,0,0,0,1.216-.934,2.924,2.924,0,0,0,.456-1.712c0-.349-.006-.652-.017-.908s-.023-.5-.034-.743-.017-.492-.017-.76a2.549,2.549,0,0,1,.377-1.459,2.155,2.155,0,0,1,1.023-.8,3.984,3.984,0,0,1,1.468-.252,3.811,3.811,0,0,1,1.948.457,2.913,2.913,0,0,1,1.161,1.215,3.647,3.647,0,0,1,.383,1.669,3.219,3.219,0,0,1-.247,1.328,1.881,1.881,0,0,1-.691.83,1.97,1.97,0,0,1-1.092.287,1.364,1.364,0,0,1-1.144-.42,1.394,1.394,0,0,1-.322-.85.8.8,0,0,0,.3.221,1.732,1.732,0,0,0,.655.141,1.054,1.054,0,0,0,.839-.34,1.456,1.456,0,0,0-.12-1.9,1.835,1.835,0,0,0-1.293-.4,2.238,2.238,0,0,0-1.215.322,2.161,2.161,0,0,0-.8.881,2.862,2.862,0,0,0-.281,1.293,3.169,3.169,0,0,0,.417,1.66,2.764,2.764,0,0,0,1.24,1.084,4.669,4.669,0,0,0,1.991.387,4.562,4.562,0,0,0,2.263-.53,3.638,3.638,0,0,0,1.478-1.545,5.27,5.27,0,0,0,.527-2.446,6.112,6.112,0,0,0-.356-2.079M118.262,7.4a1.282,1.282,0,0,1,.961-.374.884.884,0,0,1,.568.175.631.631,0,0,1,.218.524.778.778,0,0,1-.3.629,1.686,1.686,0,0,1-1.049.243,3.115,3.115,0,0,1-.76-.095c0-.034-.009-.064-.009-.1a1.376,1.376,0,0,1,.368-1m4.676,5.972a1.53,1.53,0,0,1-.716.139,1.306,1.306,0,0,1-.743-.175.516.516,0,0,1-.253-.437.5.5,0,0,1,.272-.42,1.52,1.52,0,0,1,.708-.209,1.565,1.565,0,0,1,.725.21.5.5,0,0,1,.27.42.492.492,0,0,1-.263.471" transform="translate(-77.97 -0.844)" fill="#180404"/>
          <path id="Path_2698" data-name="Path 2698" d="M218.875,11.1a5.694,5.694,0,0,0-.539-2.516,6.253,6.253,0,0,0-1.466-1.95,8.712,8.712,0,0,0-2.113-1.391l-1.33,2.148a7.649,7.649,0,0,1,1.493.893,3.836,3.836,0,0,1,1.03,1.189,3.247,3.247,0,0,1,.374,1.591,2.071,2.071,0,0,1-.526,1.5,1.993,1.993,0,0,1-1.5.54,2.463,2.463,0,0,1-1.528-.482,4.551,4.551,0,0,1-.44-.386,4.957,4.957,0,0,0,.189-1.387,5.092,5.092,0,0,0-.191-1.451,3.509,3.509,0,0,0-.6-1.171,3.856,3.856,0,0,0-.95-.845,2.712,2.712,0,0,0,.436-.186,2.564,2.564,0,0,0,.647-.488,2.317,2.317,0,0,0,.516-.882,3.171,3.171,0,0,0,.15-.935,4.845,4.845,0,0,0-.3-1.695,6.845,6.845,0,0,0-1.151-1.853l-1.941,1.134a6,6,0,0,1,.706.979,1.916,1.916,0,0,1,.252.943,1.247,1.247,0,0,1-.079.472.714.714,0,0,1-.306.332,1.653,1.653,0,0,1-.577.191,8.582,8.582,0,0,1-1.328.068l-6.115-.007,0,2.2,1.631,0a3.891,3.891,0,0,0-.592.471,3.278,3.278,0,0,0-.788,1.205,4.282,4.282,0,0,0-.255,1.5,4.278,4.278,0,0,0,.67,2.438,4.156,4.156,0,0,0,1.885,1.522,8.221,8.221,0,0,0,5.8-.02,4.4,4.4,0,0,0,1.2-.774,8.309,8.309,0,0,0,.967.681,4.814,4.814,0,0,0,2.507.64,4.657,4.657,0,0,0,2.324-.522,3.285,3.285,0,0,0,1.382-1.475,5.126,5.126,0,0,0,.456-2.227m-9.226.61a2.4,2.4,0,0,1-.944.969,3.122,3.122,0,0,1-1.59.365,3.034,3.034,0,0,1-2.1-.7,2.518,2.518,0,0,1-.775-1.975,2.844,2.844,0,0,1,.334-1.38,2.413,2.413,0,0,1,.98-.969,3.2,3.2,0,0,1,1.572-.357A3.261,3.261,0,0,1,208.656,8a2.342,2.342,0,0,1,.969.936,2.885,2.885,0,0,1,.339,1.442,2.845,2.845,0,0,1-.316,1.336" transform="translate(-135.779 -0.903)" fill="#180404"/>
        </g>
      </g>
      <g id="Rectangle_7495" data-name="Rectangle 7495" transform="translate(1130 9731.037)" fill="none" stroke="#180404" stroke-width="1">
        <rect width="174" height="66" stroke="none"/>
        <rect x="0.5" y="0.5" width="173" height="65" fill="none"/>
      </g>
      <rect id="Rectangle_7497" data-name="Rectangle 7497" width="4" height="108" transform="translate(1304 9797.037)" fill="#d3f840"/>
    </g>
  </g>
</svg>
