<svg width="13" height="16" viewBox="0 0 13 16" fill="none" xmlns="http://www.w3.org/2000/svg">
<path d="M3.04225 8.13667C3.83291 8.84709 4.72339 9.40201 5.51713 10.1092C5.91978 10.4658 6.29938 10.8477 6.65367 11.2524C6.81503 11.4384 6.95999 11.6379 7.11674 11.8288C7.30476 12.053 7.52781 12.2272 7.7078 12.4586C7.78714 12.585 7.9107 12.6773 8.0544 12.7174C8.1981 12.7576 8.35162 12.7428 8.48499 12.6759C8.51952 12.6936 8.55877 12.7 8.59713 12.694C8.6355 12.6881 8.671 12.6702 8.69856 12.6429C9.98533 11.1468 10.7185 9.2538 10.775 7.28132C10.771 6.227 10.4548 5.19749 9.86632 4.32269C9.33699 3.394 8.60705 2.59515 7.72974 1.98442C6.89933 1.557 5.95037 1.41786 5.03221 1.58886C4.11405 1.75987 3.27881 2.23134 2.65796 2.92905C2.01926 3.67058 1.70093 4.63526 1.77285 5.61128C1.84477 6.5873 2.30108 7.49491 3.04157 8.13481L3.04225 8.13667Z" fill="#EC9EB3"/>
<path d="M2.62263 9.53342C3.23203 10.4571 3.97287 11.287 4.82179 11.9968C5.61576 12.7334 6.54343 13.3111 7.55469 13.6987C8.38214 13.9956 8.70423 12.8164 8.17078 12.2571L8.14889 12.197C7.96284 11.7209 7.7146 11.2728 7.53982 10.7926C7.36104 10.3531 7.27793 9.88051 7.29602 9.40637C7.32995 8.88854 7.42899 8.37997 7.48113 7.86828C7.6943 5.87517 7.64907 3.44405 5.89016 2.13467C5.56077 1.86768 5.16456 1.69598 4.74451 1.6382C4.32446 1.58041 3.8966 1.63873 3.50734 1.80686C2.65552 2.18864 1.96019 2.85074 1.53715 3.68286C0.686938 5.56304 1.55256 7.83604 2.62263 9.53342Z" fill="#ECBDCA"/>
</svg>
