<svg viewBox="0 0 312 56" fill="none" xmlns="http://www.w3.org/2000/svg">
<path fill-rule="evenodd" clip-rule="evenodd" d="M243.553 45.4468C245.428 45.4468 247.213 45.0327 248.908 44.2045C250.603 43.3764 251.949 42.3766 252.946 41.2051C252.986 42.2554 253.335 43.1239 253.993 43.8107C254.652 44.4974 255.499 44.8408 256.536 44.8408C257.573 44.8408 258.431 44.4873 259.109 43.7804C259.787 43.0734 260.126 42.1948 260.126 41.1445V3.69634C260.126 2.60561 259.787 1.71688 259.109 1.03013C258.431 0.343375 257.573 0 256.536 0C255.499 0 254.642 0.353475 253.963 1.06042C253.285 1.76737 252.946 2.64601 252.946 3.69634V15.5731C251.79 14.4824 250.374 13.5835 248.698 12.8766C247.023 12.1696 245.228 11.8162 243.314 11.8162C240.641 11.8162 238.198 12.5332 235.984 13.9673C233.771 15.4014 232.026 17.4011 230.749 19.9663C229.473 22.5315 228.835 25.43 228.835 28.6618C228.835 31.8935 229.483 34.7819 230.779 37.3269C232.076 39.872 233.841 41.8615 236.074 43.2956C238.308 44.7297 240.801 45.4468 243.553 45.4468ZM185.458 43.7803C184.7 44.4872 183.822 44.8407 182.825 44.8407C181.748 44.8407 180.861 44.4872 180.163 43.7803C179.465 43.0733 179.116 42.1947 179.116 41.1444V6.12007C179.116 5.06974 179.475 4.19111 180.193 3.48416C180.911 2.77721 181.828 2.42373 182.945 2.42373C183.942 2.42373 184.8 2.77721 185.518 3.48416C186.236 4.19111 186.595 5.06974 186.595 6.12007V41.1444C186.595 42.1947 186.216 43.0733 185.458 43.7803ZM221.835 43.7803C221.157 44.4873 220.299 44.8408 219.262 44.8408C218.225 44.8408 217.367 44.4873 216.689 43.7803C216.011 43.0734 215.672 42.1948 215.672 41.1444V25.6319C215.672 23.4101 215.213 21.6629 214.296 20.3904C213.379 19.1179 211.803 18.4816 209.569 18.4816C207.256 18.4816 205.441 19.1583 204.125 20.5116C202.809 21.8649 202.151 23.5717 202.151 25.6319V41.1444C202.151 42.1948 201.811 43.0734 201.133 43.7803C200.455 44.4873 199.598 44.8408 198.561 44.8408C197.524 44.8408 196.666 44.4873 195.988 43.7803C195.31 43.0734 194.971 42.1948 194.971 41.1444V16.1184C194.971 15.0681 195.31 14.1895 195.988 13.4825C196.666 12.7756 197.524 12.4221 198.561 12.4221C199.598 12.4221 200.455 12.7756 201.133 13.4825C201.811 14.1895 202.151 15.0681 202.151 16.1184V17.1485C203.227 15.6942 204.633 14.4419 206.369 13.3916C208.104 12.3413 210.008 11.8161 212.082 11.8161C216.151 11.8161 218.963 13.0381 220.518 15.4822C222.074 17.9262 222.852 21.3094 222.852 25.6319V41.1444C222.852 42.1948 222.513 43.0734 221.835 43.7803ZM238.138 35.9029C239.754 37.8218 241.858 38.7812 244.45 38.7812C247.043 38.7812 249.157 37.8218 250.792 35.9029C252.428 33.9841 253.245 31.5703 253.245 28.6617C253.245 25.7532 252.428 23.3293 250.792 21.3903C249.157 19.4512 247.043 18.4817 244.45 18.4817C241.898 18.4817 239.804 19.4512 238.168 21.3903C236.533 23.3293 235.715 25.7532 235.715 28.6617C235.715 31.5703 236.523 33.9841 238.138 35.9029ZM271.015 8.48342C272.411 8.48342 273.398 8.27134 273.977 7.84717C274.555 7.423 274.844 6.62515 274.844 5.45364V4.30232C274.844 3.1712 274.565 2.38346 274.007 1.93909C273.448 1.49472 272.471 1.27254 271.075 1.27254C269.759 1.27254 268.801 1.49472 268.203 1.93909C267.605 2.38346 267.306 3.1712 267.306 4.30232V5.45364C267.306 6.58476 267.585 7.3725 268.143 7.81687C268.702 8.26124 269.659 8.48342 271.015 8.48342ZM273.648 43.7804C272.97 44.4873 272.112 44.8408 271.075 44.8408C270.038 44.8408 269.18 44.4873 268.502 43.7804C267.824 43.0734 267.485 42.1948 267.485 41.1444V16.1184C267.485 15.0681 267.824 14.1895 268.502 13.4825C269.18 12.7756 270.038 12.4221 271.075 12.4221C272.112 12.4221 272.97 12.7756 273.648 13.4825C274.326 14.1895 274.665 15.0681 274.665 16.1184V41.1444C274.665 42.1948 274.326 43.0734 273.648 43.7804ZM294.947 45.4467C296.822 45.4467 298.607 45.0327 300.302 44.2045C301.997 43.3764 303.344 42.3765 304.341 41.205C304.381 42.2553 304.73 43.1239 305.388 43.8106C306.046 44.4974 306.893 44.8408 307.93 44.8408C308.968 44.8408 309.825 44.4873 310.503 43.7803C311.181 43.0734 311.52 42.1948 311.52 41.1444V15.5125C311.52 14.4217 311.181 13.533 310.503 12.8462C309.825 12.1595 308.968 11.8161 307.93 11.8161C306.893 11.8161 306.036 12.1696 305.358 12.8765C304.68 13.5835 304.341 14.4621 304.341 15.5125V15.5731C303.184 14.4823 301.768 13.5835 300.093 12.8765C298.417 12.1696 296.623 11.8161 294.708 11.8161C292.036 11.8161 289.593 12.5332 287.379 13.9673C285.165 15.4014 283.42 17.401 282.144 19.9662C280.867 22.5315 280.229 25.43 280.229 28.6617C280.229 31.8935 280.877 34.7819 282.174 37.3269C283.47 39.8719 285.235 41.8615 287.469 43.2956C289.702 44.7297 292.195 45.4467 294.947 45.4467ZM289.533 35.9029C291.148 37.8218 293.252 38.7812 295.845 38.7812C298.437 38.7812 300.551 37.8218 302.187 35.9029C303.822 33.9841 304.64 31.5703 304.64 28.6617C304.64 25.7532 303.822 23.3293 302.187 21.3903C300.551 19.4512 298.437 18.4817 295.845 18.4817C293.292 18.4817 291.198 19.4512 289.563 21.3903C287.927 23.3293 287.11 25.7532 287.11 28.6617C287.11 31.5703 287.917 33.9841 289.533 35.9029Z" fill="#FBC300"/>
<path fill-rule="evenodd" clip-rule="evenodd" d="M90.4208 44.411C93.902 44.411 97.1855 43.6436 100.271 42.1086C100.865 41.8331 101.32 41.4395 101.636 40.9279C101.953 40.4162 102.111 39.8456 102.111 39.2158C102.111 38.35 101.814 37.5431 101.221 36.7953C100.509 35.9295 99.6383 35.4965 98.6097 35.4965C98.0558 35.4965 97.4229 35.654 96.7108 35.9688C94.9306 36.8741 92.8339 37.3267 90.4208 37.3267C86.3461 37.3267 83.0527 36.1263 80.5406 33.7254C78.0286 31.3246 76.7725 27.8021 76.7725 23.1579C76.7725 20.4422 77.3264 18.0316 78.4341 15.9259C79.5417 13.8203 81.1242 12.187 83.1813 11.0259C85.2384 9.86486 87.6516 9.28433 90.4208 9.28433C92.6757 9.28433 94.7724 9.73694 96.7108 10.6422C97.3833 10.9964 98.0558 11.1735 98.7284 11.1735C99.7174 11.1735 100.528 10.7602 101.161 9.93373C101.755 9.14658 102.051 8.33975 102.051 7.51324C102.051 6.13572 101.438 5.1321 100.212 4.50237C97.2053 2.96743 93.9416 2.19995 90.4208 2.19995C86.3461 2.19995 82.6868 3.09534 79.4428 4.88611C76.1989 6.67688 73.6572 9.16626 71.8176 12.3542C69.9781 15.5422 69.0583 19.1434 69.0583 23.1579C69.0583 27.684 70.0276 31.5411 71.966 34.7291C73.9044 37.917 76.4956 40.3277 79.7395 41.961C82.9835 43.5944 86.5439 44.411 90.4208 44.411ZM3.90289 43.8207C4.93145 43.8207 5.76221 43.4862 6.39517 42.8171C7.02814 42.148 7.34462 41.2821 7.34462 40.2195V29.0616H17.6698C19.6874 29.0616 21.606 28.4614 23.4258 27.261C25.2455 26.0606 26.7093 24.4371 27.8169 22.3905C28.9246 20.3439 29.4785 18.1398 29.4785 15.7784C29.4785 13.3776 28.9246 11.1637 27.8169 9.13677C26.7093 7.10985 25.2455 5.49618 23.4258 4.29577C21.606 3.09537 19.6874 2.49516 17.6698 2.49516H4.14025C3.11169 2.49516 2.25126 2.83954 1.55896 3.5283C0.866658 4.21706 0.520508 5.07309 0.520508 6.09639V40.2195C0.520508 41.2428 0.836988 42.0988 1.46995 42.7876C2.10291 43.4763 2.91389 43.8207 3.90289 43.8207ZM17.6698 22.3314H7.34461V9.28433H17.6698C18.4214 9.28433 19.1632 9.58935 19.895 10.1994C20.6269 10.8094 21.2203 11.6163 21.6752 12.6199C22.1302 13.6235 22.3577 14.6763 22.3577 15.7783C22.3577 16.8804 22.1302 17.9332 21.6752 18.9368C21.2203 19.9404 20.6269 20.7571 19.895 21.3868C19.1632 22.0165 18.4214 22.3314 17.6698 22.3314ZM58.6738 52.1153C55.9046 54.4571 52.2057 55.628 47.5772 55.628C46.2321 55.628 44.8574 55.5198 43.4531 55.3033C42.0487 55.0868 40.9113 54.8015 40.041 54.4473C38.1026 53.6208 37.1333 52.4794 37.1333 51.0232C37.1333 50.7477 37.1927 50.4328 37.3114 50.0786C37.5487 49.2127 37.9542 48.5535 38.5278 48.1009C39.1014 47.6482 39.7245 47.4219 40.397 47.4219C40.7926 47.4219 41.1685 47.481 41.5245 47.599C41.8014 47.7171 42.286 47.9139 42.9783 48.1894C43.6706 48.4649 44.4025 48.6912 45.1739 48.8683C45.9453 49.0454 46.7464 49.134 47.5772 49.134C50.3859 49.134 52.453 48.5338 53.7782 47.3334C55.1035 46.133 55.7661 44.0765 55.7661 41.1641V40.5737C53.709 43.1319 50.5046 44.4111 46.153 44.4111C44.0959 44.4111 42.2761 43.9289 40.6937 42.9647C39.1113 42.0004 37.885 40.6623 37.0147 38.9502C36.1443 37.2381 35.7092 35.2801 35.7092 33.0761V15.8374C35.7092 14.8141 36.0454 13.9581 36.718 13.2693C37.3905 12.5806 38.241 12.2362 39.2696 12.2362C40.2981 12.2362 41.1487 12.5806 41.8212 13.2693C42.4937 13.9581 42.83 14.8141 42.83 15.8374V30.9508C42.83 33.4303 43.3739 35.2112 44.4618 36.2936C45.5497 37.3759 47.142 37.9171 49.2387 37.9171C51.2958 37.9171 52.8881 37.3169 54.0156 36.1164C55.143 34.916 55.7068 33.1941 55.7068 30.9508V15.8374C55.7068 14.8141 56.043 13.9581 56.7156 13.2693C57.3881 12.5806 58.2386 12.2362 59.2672 12.2362C60.2957 12.2362 61.1463 12.5806 61.8188 13.2693C62.4913 13.9581 62.8276 14.8141 62.8276 15.8374V40.9279C62.8276 46.0444 61.443 49.7736 58.6738 52.1153ZM167.622 42.7875C166.95 43.4763 166.099 43.8206 165.07 43.8206C164.042 43.8206 163.191 43.4763 162.519 42.7875C161.846 42.0988 161.51 41.2427 161.51 40.2194V25.1061C161.51 22.9414 161.055 21.2392 160.145 19.9994C159.235 18.7597 157.673 18.1398 155.457 18.1398C153.163 18.1398 151.363 18.799 150.057 20.1175C148.752 21.436 148.099 23.0988 148.099 25.1061V40.2194C148.099 41.2427 147.763 42.0988 147.09 42.7875C146.418 43.4763 145.567 43.8206 144.539 43.8206C143.51 43.8206 142.66 43.4763 141.987 42.7875C141.315 42.0988 140.978 41.2427 140.978 40.2194V15.8374C140.978 14.8141 141.315 13.958 141.987 13.2693C142.66 12.5805 143.51 12.2361 144.539 12.2361C145.567 12.2361 146.418 12.5805 147.09 13.2693C147.763 13.958 148.099 14.8141 148.099 15.8374V16.841C149.167 15.4241 150.562 14.204 152.283 13.1807C154.004 12.1574 155.893 11.6458 157.95 11.6458C161.985 11.6458 164.774 12.8363 166.317 15.2175C167.859 17.5986 168.631 20.8948 168.631 25.1061V40.2194C168.631 41.2427 168.295 42.0988 167.622 42.7875Z" fill="#DF0E12"/>
<path fill-rule="evenodd" clip-rule="evenodd" d="M131.224 23.9202C133.066 24.6302 134.94 25.9278 136.824 27.8027L137.195 28.1706L136.836 28.5501C136.711 28.6812 134.551 30.9308 131.527 32.1747C130.282 36.4797 126.903 39.8941 122.604 41.2029C121.336 44.0646 119.207 46.0899 119.074 46.2136L118.693 46.5708L118.322 46.2025C116.611 44.5004 115.382 42.8121 114.635 41.1492C110.432 39.8077 107.133 36.4466 105.893 32.2194C102.811 30.9863 100.597 28.6829 100.472 28.5505L100.112 28.171L100.483 27.8022C102.409 25.8879 104.321 24.5778 106.2 23.8781C107.582 20.2019 110.559 17.2951 114.288 15.9902C114.965 14.0461 116.309 12.0634 118.322 10.0613L118.693 9.69257L119.074 10.0502C119.22 10.186 121.776 12.6179 122.952 15.9339C126.774 17.2138 129.829 20.1688 131.224 23.9202ZM128.079 23.2832C128.677 23.2931 129.279 23.3696 129.885 23.5101C128.593 20.6639 126.235 18.3967 123.319 17.2143C123.443 17.7786 123.517 18.3601 123.529 18.955C125.453 19.9109 127.034 21.4221 128.079 23.2832ZM123.526 36.8485L123.524 36.7858C123.521 36.7085 123.519 36.6314 123.513 36.5532C123.446 35.6166 123.21 34.7218 122.815 33.8686C123.414 33.413 123.937 32.8654 124.355 32.2405C125.28 32.6733 126.254 32.9187 127.276 32.972C126.425 34.5993 125.121 35.9407 123.526 36.8485ZM113.03 32.204C112.113 32.6454 111.147 32.9033 110.133 32.9691C110.97 34.5641 112.243 35.8879 113.798 36.7974L113.804 36.7175L113.804 36.7175C113.811 36.6156 113.818 36.5139 113.831 36.4127C113.946 35.4688 114.227 34.623 114.59 33.8674C113.981 33.4036 113.452 32.8431 113.03 32.204ZM128.158 29.6733C127.501 29.6733 126.968 29.1424 126.968 28.49C126.968 27.8371 127.501 27.3063 128.158 27.3063C128.814 27.3063 129.348 27.8371 129.348 28.49C129.348 29.1424 128.814 29.6733 128.158 29.6733ZM125.462 27.9777H125.951C126.182 26.9985 127.051 26.2653 128.098 26.2374C127.941 25.587 127.712 24.9673 127.431 24.3776C126.37 24.4571 125.428 24.7756 124.613 25.2049C125.086 26.0366 125.383 26.9762 125.462 27.9777ZM124.383 29.0526C124.324 29.6595 124.169 30.2384 123.934 30.7753C122.976 30.1572 122.08 29.2907 121.251 28.1732C121.608 27.678 122.447 26.637 123.694 25.7658C124.066 26.4329 124.307 27.1812 124.383 27.9776H123.051V29.0522H124.383V29.0526ZM119.014 29.6208C120.448 30.6193 121.542 31.7209 122.296 32.9153C122.721 32.5715 123.095 32.1687 123.407 31.7187C122.229 30.9708 121.14 29.8963 120.151 28.4908L119.948 28.2041L120.131 27.9046C120.199 27.792 121.212 26.1604 123.071 24.8667C122.746 24.482 122.37 24.142 121.955 23.8545C121.224 24.8555 120.244 25.7873 119.014 26.6435L118.726 26.8442L118.424 26.6633C118.32 26.6005 116.744 25.6339 115.454 23.8536C115.023 24.1523 114.632 24.5069 114.298 24.9101C116.117 26.1965 117.108 27.7928 117.176 27.9046L117.357 28.2037L117.156 28.4904C116.185 29.8684 115.12 30.9287 113.969 31.6744C114.285 32.1425 114.672 32.5603 115.111 32.9153C116.445 30.8127 118.31 29.6694 118.424 29.601L118.725 29.4201L119.014 29.6208ZM118.654 39.1256C117.997 39.1256 117.464 38.5948 117.464 37.9419C117.464 37.289 117.997 36.7582 118.654 36.7582C119.31 36.7582 119.844 37.289 119.844 37.9419C119.844 38.5948 119.309 39.1256 118.654 39.1256ZM118.113 34.1558V32.8096H119.193V34.1618C119.984 34.0947 120.729 33.8691 121.395 33.5132C120.769 32.5122 119.868 31.5773 118.694 30.716C118.147 31.1054 116.936 32.0682 116.019 33.5162C116.655 33.8553 117.362 34.0784 118.113 34.1558ZM109.298 30.7327C110.304 30.667 111.132 29.953 111.355 29.0023H111.942C112 29.7996 112.196 30.5586 112.509 31.2558C111.609 31.6813 110.659 31.9014 109.663 31.9095C109.518 31.5279 109.393 31.1363 109.298 30.7327ZM109.308 26.248C110.292 26.3172 111.099 27.0054 111.34 27.9277H111.947C112.031 26.9615 112.318 26.0529 112.77 25.2453C111.963 24.8095 111.029 24.4777 109.976 24.3831C109.693 24.9745 109.466 25.5965 109.308 26.248ZM109.149 27.3063C109.805 27.3063 110.339 27.8371 110.339 28.49C110.339 29.1424 109.805 29.6733 109.149 29.6733C108.492 29.6733 107.959 29.1424 107.959 28.49C107.959 27.8375 108.493 27.3063 109.149 27.3063ZM114.335 29.0024H113.023C113.075 29.6088 113.221 30.1891 113.451 30.7268C114.379 30.1126 115.249 29.2602 116.055 28.1733C115.706 27.6876 114.893 26.6762 113.685 25.8157C113.335 26.4562 113.107 27.1701 113.028 27.9278H114.335V29.0024ZM114.902 19.7128C114.901 19.7055 114.901 19.6983 114.9 19.6911C114.9 19.6839 114.9 19.6767 114.899 19.6694C115.379 19.4657 115.88 19.3002 116.397 19.1747C116.46 20.1899 117.191 21.0259 118.164 21.2399V21.7905C117.33 21.8563 116.541 22.0733 115.818 22.4129C115.374 21.6341 115.025 20.7315 114.902 19.7128ZM119.844 19.0376C119.844 18.3847 119.31 17.8539 118.654 17.8539C117.997 17.8539 117.464 18.3847 117.464 19.0376C117.464 19.6905 117.997 20.2213 118.654 20.2213C119.31 20.2213 119.844 19.6905 119.844 19.0376ZM120.912 19.1511C121.438 19.2727 121.947 19.4339 122.435 19.6355V19.6372C122.364 20.6094 122.083 21.5365 121.595 22.4146C120.871 22.0738 120.08 21.8559 119.244 21.7897V21.2077C120.172 20.9576 120.862 20.1405 120.912 19.1511ZM118.164 24.1416V22.8646C117.547 22.9226 116.958 23.08 116.413 23.3185C117.258 24.4493 118.223 25.2131 118.694 25.5488C119.642 24.8529 120.41 24.1089 121.001 23.3215C120.454 23.0812 119.864 22.9226 119.244 22.8646V24.1416H118.164ZM123.995 24.2963C123.577 23.7788 123.086 23.3232 122.536 22.9467C123.03 22.0604 123.341 21.1247 123.468 20.1439C124.852 20.9201 126.021 22.0209 126.868 23.352C125.787 23.4968 124.826 23.8476 123.995 24.2963ZM119.194 16.8511C119.836 17.0084 120.365 17.4365 120.662 18.0077C121.268 18.1186 121.853 18.2785 122.417 18.4835C122.365 17.9046 122.253 17.3377 122.088 16.7909C121.163 16.5262 120.194 16.3663 119.194 16.3272V16.8511ZM118.114 16.8511C117.464 17.0102 116.928 17.4473 116.633 18.0288C116.024 18.1474 115.434 18.3164 114.867 18.5317C114.895 17.9738 114.991 17.409 115.152 16.8387C116.097 16.5537 117.089 16.3783 118.114 16.3298V16.8511H118.114ZM114.875 22.945C114.421 22.1447 114.06 21.2201 113.887 20.1778C112.525 20.9554 111.373 22.0492 110.535 23.3658C111.608 23.5226 112.56 23.882 113.383 24.3358C113.808 23.802 114.31 23.3309 114.875 22.945ZM108.16 26.4669C107.57 26.7535 107.126 27.2831 106.959 27.9278H106.455C106.508 26.8133 106.714 25.7388 107.049 24.7214C107.635 24.5383 108.215 24.4257 108.788 24.3793C108.51 25.0425 108.302 25.7422 108.16 26.4669ZM108.151 30.5079C107.55 30.2126 107.099 29.6663 106.943 29.0023V29.0027H106.452C106.485 29.8249 106.6 30.6261 106.79 31.3993C107.334 31.5889 107.9 31.735 108.482 31.8214C108.343 31.3955 108.236 30.9558 108.151 30.5079ZM114.902 36.5515C114.994 35.7886 115.214 35.091 115.505 34.4609C116.295 34.8826 117.177 35.1504 118.114 35.2312V35.756C117.153 35.9915 116.436 36.8318 116.393 37.8487C115.862 37.7198 115.349 37.5474 114.858 37.3364C114.859 37.0729 114.87 36.8116 114.902 36.5515ZM118.113 40.1284C117.482 39.9741 116.959 39.5568 116.66 38.9997C116.07 38.8871 115.499 38.7272 114.948 38.5235C115.041 39.0973 115.203 39.678 115.433 40.2647C116.293 40.5015 117.189 40.6494 118.113 40.6932V40.1284ZM119.194 40.1284C119.817 39.9763 120.334 39.5671 120.636 39.0204C121.211 38.9168 121.769 38.7693 122.307 38.5811C122.191 39.1811 122.012 39.7614 121.793 40.3162C120.957 40.5329 120.088 40.6614 119.194 40.6966V40.1284ZM119.194 35.7555C120.162 35.9924 120.884 36.8442 120.917 37.8719C121.446 37.7499 121.957 37.5861 122.447 37.3832C122.456 37.1327 122.454 36.8804 122.435 36.6268C122.381 35.8785 122.198 35.1572 121.896 34.464C121.08 34.8985 120.164 35.1667 119.194 35.2359V35.7555ZM127.706 31.9117C126.718 31.9117 125.775 31.7028 124.88 31.2937C125.197 30.6008 125.399 29.8465 125.463 29.0526H125.968C126.217 30.0094 127.075 30.7207 128.109 30.7431C128.014 31.1441 127.889 31.5313 127.746 31.9104C127.742 31.9103 127.737 31.9104 127.733 31.9106L127.724 31.9111H127.724L127.724 31.9111L127.716 31.9115L127.706 31.9117ZM130.364 29.0023C130.218 29.6238 129.812 30.1409 129.268 30.4473C129.183 30.9119 129.074 31.3671 128.932 31.8072C129.515 31.7131 130.082 31.5571 130.626 31.3611C130.81 30.5999 130.923 29.8112 130.955 29.0023H130.364ZM130.349 27.9278C130.192 27.3252 129.793 26.8249 129.259 26.5274C129.119 25.7843 128.909 25.0678 128.626 24.3891C129.201 24.4441 129.783 24.5662 130.371 24.7588C130.7 25.7645 130.901 26.827 130.953 27.9278H130.349ZM121.638 15.5677C120.748 13.5338 119.361 11.9121 118.704 11.2102C117.265 12.7051 116.229 14.1738 115.596 15.6076C116.409 15.4138 117.251 15.2926 118.114 15.2552V13.1276H119.194V15.253C120.03 15.2831 120.847 15.3906 121.638 15.5677ZM113.937 17.274C113.822 17.856 113.77 18.4337 113.778 19.007C111.906 19.9659 110.363 21.457 109.335 23.2789C108.739 23.2811 108.139 23.3516 107.534 23.4844C108.806 20.6996 111.098 18.4693 113.937 17.274ZM105.774 25.2247C104.421 25.8629 103.04 26.8481 101.638 28.1822C102.292 28.7891 103.742 30.0158 105.579 30.8977C105.466 30.2797 105.395 29.647 105.371 29.0023H103.232V27.9277H105.374C105.414 26.9989 105.55 26.0946 105.774 25.2247ZM107.166 32.6471C107.736 32.801 108.326 32.9093 108.931 32.957C109.935 35.1486 111.653 36.937 113.803 38.0292C113.851 38.6258 113.965 39.2262 114.144 39.831C110.911 38.5381 108.355 35.9167 107.166 32.6471ZM116.023 41.5141C116.659 42.6746 117.55 43.8562 118.704 45.0545C119.267 44.4532 120.364 43.1741 121.227 41.5425C120.565 41.6689 119.886 41.7458 119.194 41.7712V43.8523H118.113V41.7682C117.401 41.7376 116.703 41.6521 116.023 41.5141ZM123.095 39.8967C123.275 39.3173 123.408 38.7143 123.478 38.0936C125.694 37.0092 127.461 35.1928 128.483 32.9483C129.09 32.8933 129.682 32.7781 130.252 32.617C129.047 35.957 126.418 38.6253 123.095 39.8967ZM132.036 29.0023C132.013 29.629 131.946 30.2444 131.837 30.8462C133.623 29.9689 135.029 28.7775 135.67 28.1826C134.306 26.8855 132.962 25.9167 131.646 25.2771C131.862 26.1311 131.994 27.0174 132.034 27.9278H134.126V29.0023H132.036Z" fill="url(#paint0_linear)"/>
<defs>
<linearGradient id="paint0_linear" x1="100.112" y1="9.69257" x2="100.112" y2="46.5708" gradientUnits="userSpaceOnUse">
<stop stop-color="#FAC000"/>
<stop offset="1" stop-color="#E80A0F"/>
</linearGradient>
</defs>
</svg>
