<svg width="28" height="29" viewBox="0 0 28 29" fill="none" xmlns="http://www.w3.org/2000/svg">
<g id="brands-and-logotypes">
<path id="Path" d="M17.1757 27.9394C17.059 27.9832 16.942 28.0236 16.8245 28.0605C16.942 28.0236 17.059 27.9832 17.1757 27.9394Z" fill="black"/>
<path id="Path_2" d="M17.0835 27.9662C17.0278 27.9898 16.972 28.0115 16.9163 28.0337C16.972 28.0115 17.0278 27.9898 17.0835 27.9662Z" fill="black"/>
<path id="Path_3" d="M17 27.9531C16.6684 27.9886 16.3347 28.0201 16 28.0467C16.3347 28.0201 16.6684 27.9886 17 27.9531Z" fill="black"/>
<path id="Path_4" d="M17.0988 27.9716C17.0332 27.9918 16.9672 28.0105 16.9014 28.0283C16.9672 28.0105 17.0332 27.9918 17.0988 27.9716Z" fill="black"/>
<path id="Path_5" d="M17.0739 27.9642C17.0247 27.9884 16.9754 28.0125 16.926 28.0356C16.9754 28.0125 17.0247 27.9884 17.0739 27.9642Z" fill="black"/>
<path id="Path_6" d="M18.0636 27.9618C18.0211 27.9879 17.9787 28.0125 17.9363 28.0381C17.9787 28.0125 18.0211 27.9879 18.0636 27.9618Z" fill="black"/>
<path id="Path_7" d="M18.0649 27.961C18.0218 27.9871 17.9784 28.0137 17.9351 28.0388C17.9784 28.0137 18.0218 27.9876 18.0649 27.961Z" fill="black"/>
<path id="Path_8" d="M17.0689 27.9642C17.0232 27.9889 16.9771 28.012 16.9309 28.0356C16.9771 28.012 17.0232 27.9889 17.0689 27.9642Z" fill="black"/>
<path id="Path_9" d="M16.1107 27.9807C16.037 27.995 15.9633 28.0078 15.8894 28.0191C15.9633 28.0078 16.037 27.995 16.1107 27.9807Z" fill="black"/>
<path id="Path_10" d="M28 13.9999C28 6.26913 21.7308 -6.10352e-05 14 -6.10352e-05C6.2692 -6.10352e-05 0 6.26913 0 13.9999C0 21.7307 6.2692 27.9999 14 27.9999C14.0822 27.9999 14.1641 27.9982 14.2461 27.9967V17.0983H11.2383V13.593H14.2461V11.0135C14.2461 8.02191 16.0724 6.39368 18.7409 6.39368C20.0188 6.39368 21.1173 6.48895 21.4375 6.53146V9.65805H19.5974C18.1456 9.65805 17.8644 10.3481 17.8644 11.3604V13.593H21.3358L20.8834 17.0983H17.8644V27.459C23.7162 25.7815 28 20.3903 28 13.9999Z" fill="#DD0E12"/>
<path id="Path_11" d="M16 27.9748C15.668 27.9965 15.3345 28.0137 15 28.0251C15.3345 28.0137 15.668 27.9965 16 27.9748Z" fill="black"/>
<path id="Path_12" d="M15.1162 27.9933C15.0389 27.9992 14.9613 28.0036 14.8838 28.0066C14.9613 28.0036 15.0389 27.9992 15.1162 27.9933Z" fill="black"/>
</g>
</svg>
