<svg viewBox="0 0 166 166" fill="none" xmlns="http://www.w3.org/2000/svg">
<g id="noun_rangoli_1570659 copy 2" opacity="0.38">
<g id="Group">
<path id="Shape" fill-rule="evenodd" clip-rule="evenodd" d="M139.274 64.0139C147.518 67.2085 155.905 73.0468 164.342 81.4822L166 83.1376L164.392 84.8451C163.837 85.435 154.166 95.5566 140.63 101.153C135.057 120.522 119.927 135.885 100.685 141.773C95.0086 154.649 85.4764 163.761 84.8844 164.318L83.1761 165.925L81.518 164.268C73.8567 156.61 68.3544 149.014 65.0113 141.532C46.1945 135.496 31.4271 120.374 25.8784 101.354C12.0802 95.8061 2.17072 85.4427 1.60966 84.8471L0 83.1395L1.65996 81.4803C10.279 72.867 18.8419 66.9726 27.2539 63.8243C33.4391 47.2842 46.7633 34.2057 63.4597 28.3346C66.4894 19.5878 72.5063 10.667 81.518 1.65923L83.1761 0L84.8844 1.60895C85.5344 2.22004 96.98 13.1617 102.24 28.0812C119.353 33.8402 133.027 47.1353 139.274 64.0139ZM125.196 61.1479C127.869 61.1924 130.566 61.5366 133.279 62.1689C127.494 49.3631 116.94 39.1621 103.885 33.8421C104.438 36.3812 104.773 38.9977 104.827 41.6741C113.437 45.975 120.516 52.7744 125.196 61.1479ZM104.802 121.902L104.802 121.9V121.899C104.791 121.552 104.78 121.205 104.756 120.853C104.452 116.639 103.396 112.613 101.629 108.774C104.309 106.725 106.652 104.261 108.524 101.449C112.663 103.396 117.025 104.501 121.601 104.74C117.792 112.062 111.953 118.097 104.812 122.182L104.807 122.036L104.802 121.902ZM57.8258 101.285C53.7223 103.271 49.3983 104.431 44.8595 104.727C48.6031 111.904 54.3046 117.86 61.2656 121.952C61.2745 121.832 61.2829 121.712 61.2913 121.593C61.3234 121.134 61.3555 120.676 61.4107 120.221C61.9273 115.974 63.1868 112.168 64.8119 108.769C62.0859 106.682 59.716 104.16 57.8258 101.285ZM125.548 89.8983C122.609 89.8983 120.22 87.51 120.22 84.5744C120.22 81.6369 122.609 79.2486 125.548 79.2486C128.487 79.2486 130.876 81.6369 130.876 84.5744C130.876 87.51 128.485 89.8983 125.548 89.8983ZM113.481 82.2693H115.669C116.703 77.864 120.591 74.5649 125.279 74.4392C124.575 71.5133 123.553 68.7247 122.296 66.0715C117.546 66.4293 113.328 67.8622 109.68 69.7941C111.794 73.5361 113.125 77.7635 113.481 82.2693ZM108.646 87.1058C108.385 89.8364 107.69 92.4413 106.636 94.8566C102.351 92.0758 98.34 88.1772 94.6293 83.1492C96.2254 80.9214 99.9806 76.2376 105.562 72.3178C107.23 75.3191 108.309 78.6859 108.646 82.2693H102.687V87.1039H108.646V87.1058ZM84.6116 89.6623C91.0309 94.1546 95.9295 99.111 99.3036 104.485C101.209 102.938 102.883 101.126 104.278 99.1013C99.0037 95.7365 94.1303 90.9019 89.7018 84.5782L88.7963 83.2884L89.6128 81.9405C89.9184 81.4338 94.4514 74.093 102.774 68.2721C101.32 66.5414 99.6383 65.0117 97.7791 63.7179C94.5075 68.2219 90.1177 72.4144 84.6135 76.2666L83.3231 77.1697L81.9746 76.3556C81.5084 76.0732 74.4526 71.724 68.6795 63.7141C66.7467 65.0581 64.9977 66.6535 63.5042 68.4675C71.6473 74.2554 76.0816 81.4377 76.3853 81.9405L77.1979 83.2864L76.2944 84.5763C71.951 90.7762 67.182 95.547 62.028 98.9022C63.4461 101.008 65.1757 102.888 67.1433 104.485C73.1157 95.0248 81.4639 89.8808 81.9727 89.5733L83.3212 88.7592L84.6116 89.6623ZM83.0018 132.427C80.063 132.427 77.6737 130.039 77.6737 127.101C77.6737 124.164 80.063 121.776 83.0018 121.776C85.9387 121.776 88.328 124.164 88.328 127.101C88.328 130.039 85.9367 132.427 83.0018 132.427ZM80.5816 110.066V104.009H85.4163V110.093C88.9549 109.792 92.2903 108.776 95.2716 107.175C92.4702 102.671 88.4383 98.4651 83.1818 94.5897C80.7344 96.3417 75.3134 100.674 71.208 107.189C74.0539 108.714 77.221 109.718 80.5816 110.066ZM41.12 94.6652C45.6258 94.3693 49.3308 91.1572 50.331 86.8796H52.9583C53.2176 90.4668 54.092 93.882 55.4966 97.0187C51.4647 98.9332 47.2123 99.9233 42.7548 99.96C42.1067 98.2428 41.5475 96.4811 41.12 94.6652ZM41.1645 74.4875C45.5698 74.7989 49.1838 77.8949 50.2594 82.0449H52.9796C53.3549 77.6977 54.6415 73.6096 56.6613 69.9759C53.0493 68.015 48.8703 66.522 44.1536 66.0966C42.8902 68.7576 41.8706 71.5558 41.1645 74.4875ZM40.4522 79.2486C43.391 79.2486 45.7803 81.6369 45.7803 84.5744C45.7803 87.51 43.391 89.8983 40.4522 89.8983C37.5134 89.8983 35.1241 87.51 35.1241 84.5744C35.126 81.6389 37.5153 79.2486 40.4522 79.2486ZM63.6687 86.8794H57.795C58.0291 89.6081 58.6811 92.2188 59.7123 94.638C63.8661 91.8745 67.7587 88.0397 71.3688 83.1491C69.8036 80.9638 66.1645 76.4135 60.757 72.542C59.1938 75.4234 58.1703 78.6355 57.8182 82.0448H63.6687V86.8794ZM66.2068 45.0834C66.2029 45.0505 66.201 45.0181 66.1991 44.9857C66.1971 44.9533 66.1952 44.921 66.1913 44.8881C68.3408 43.9715 70.585 43.2269 72.8989 42.6623C73.1794 47.23 76.4548 50.9913 80.8079 51.9543V54.4316C77.0759 54.7275 73.5412 55.7041 70.3083 57.2318C68.3214 53.7277 66.7582 49.6666 66.2068 45.0834ZM88.328 42.0455C88.328 39.108 85.9387 36.7197 83.0018 36.7197C80.063 36.7197 77.6737 39.108 77.6737 42.0455C77.6737 44.983 80.063 47.3713 83.0018 47.3713C85.9387 47.3713 88.328 44.983 88.328 42.0455ZM93.1127 42.5559C95.4653 43.1032 97.7463 43.8283 99.9286 44.7353V44.743C99.6094 49.1174 98.3519 53.2887 96.1676 57.2395C92.927 55.706 89.3846 54.7255 85.6448 54.4277V51.8093C89.8006 50.6838 92.8864 47.0076 93.1127 42.5559ZM80.808 65.0097V59.2642C78.0453 59.5253 75.4122 60.2331 72.9725 61.3064C76.7548 66.3943 81.0711 69.8307 83.1819 71.341C87.4246 68.2102 90.8626 64.8627 93.5092 61.3199C91.0618 60.2389 88.421 59.5253 85.6447 59.2642V65.0097H80.808ZM106.913 65.7059C105.042 63.3775 102.844 61.3277 100.379 59.6336C102.591 55.6461 103.985 51.4361 104.552 47.0231C110.747 50.5156 115.979 55.4681 119.774 61.4572C114.934 62.1089 110.633 63.687 106.913 65.7059ZM85.4204 32.208C88.2934 32.9158 90.6614 34.8419 91.9925 37.412C94.703 37.9109 97.3245 38.6303 99.8493 39.5527C99.6171 36.9479 99.1122 34.3971 98.377 31.9373C94.2367 30.746 89.8972 30.0267 85.4204 29.8507V32.208ZM80.5838 32.208C77.674 32.9236 75.2769 34.8903 73.9575 37.5068C71.2276 38.0405 68.5868 38.8005 66.0485 39.7693C66.1762 37.2592 66.6057 34.7182 67.3273 32.152C71.5565 30.8698 75.9967 30.0808 80.5857 29.8623V32.208H80.5838ZM66.0868 59.626C64.0535 56.0252 62.4361 51.8656 61.6642 47.176C55.566 50.6743 50.4081 55.5959 46.6587 61.5193C51.4626 62.2251 55.7247 63.8418 59.4083 65.8839C61.3101 63.4821 63.5543 61.3626 66.0868 59.626ZM36.0278 75.4718C33.3869 76.7617 31.3981 79.1442 30.6474 82.0449H28.3916C28.6295 77.0305 29.5524 72.1959 31.0517 67.6185C33.6771 66.7947 36.2735 66.288 38.8389 66.0792C37.591 69.0631 36.6604 72.2114 36.0278 75.4718ZM35.9852 93.6538C33.2941 92.3252 31.2743 89.8673 30.5759 86.8796V86.8815H28.38C28.527 90.5809 29.0436 94.1856 29.891 97.6646C32.3287 98.5174 34.8631 99.1749 37.4653 99.5636C36.8442 97.6472 36.3664 95.6688 35.9852 93.6538ZM66.207 120.845C66.6191 117.413 67.6057 114.274 68.9059 111.439C72.4405 113.336 76.3912 114.541 80.5836 114.905V117.266C76.2828 118.326 73.0732 122.106 72.8816 126.682C70.5039 126.102 68.2094 125.326 66.0096 124.377C66.0135 123.191 66.0657 122.015 66.207 120.845ZM80.5816 136.939C77.755 136.245 75.4179 134.367 74.0752 131.861C71.4363 131.354 68.8786 130.635 66.4158 129.718C66.8298 132.3 67.5553 134.912 68.5846 137.552C72.4346 138.617 76.4452 139.283 80.5816 139.48V136.939ZM85.4185 136.939C88.2103 136.254 90.5241 134.413 91.8765 131.953C94.4496 131.487 96.9473 130.824 99.356 129.977C98.8375 132.677 98.0365 135.287 97.0537 137.784C93.3139 138.759 89.4214 139.337 85.4185 139.495V136.939ZM85.4185 117.264C89.7522 118.329 92.987 122.162 93.1321 126.786C95.5002 126.237 97.7889 125.5 99.9828 124.587C100.023 123.46 100.014 122.325 99.9306 121.184C99.6849 117.817 98.8684 114.572 97.5161 111.453C93.8634 113.408 89.7638 114.615 85.4185 114.926V117.264ZM123.524 99.9697C119.099 99.9697 114.88 99.0298 110.873 97.1888C112.291 94.0714 113.197 90.6776 113.483 87.1058H115.743C116.857 91.4105 120.701 94.611 125.329 94.7116C124.902 96.5158 124.342 98.2582 123.704 99.9639C123.669 99.9628 123.636 99.9647 123.603 99.9666C123.577 99.9681 123.551 99.9697 123.524 99.9697ZM135.424 86.8796C134.77 89.6759 132.954 92.0023 130.518 93.3811C130.135 95.4716 129.647 97.5195 129.011 99.4998C131.625 99.0763 134.159 98.3743 136.597 97.4925C137.421 94.0676 137.926 90.519 138.069 86.8796H135.424ZM135.354 82.045C134.652 79.3337 132.866 77.0827 130.477 75.7445C129.85 72.4009 128.908 69.1772 127.641 66.1237C130.216 66.3712 132.822 66.9204 135.455 67.7868C136.925 72.312 137.825 77.0924 138.061 82.045H135.354ZM96.3612 26.4337C92.3757 17.2827 86.1693 9.98638 83.2247 6.82842C76.786 13.5543 72.1466 20.1622 69.3123 26.6135C72.9534 25.7413 76.7202 25.196 80.5838 25.0278V15.4553H85.4205V25.0181C89.1642 25.1535 92.8207 25.6369 96.3612 26.4337ZM61.8851 34.111C61.3724 36.7294 61.1383 39.3284 61.177 41.9082C52.794 46.2226 45.8872 52.9311 41.2845 61.1286C38.6185 61.1383 35.9313 61.4554 33.2246 62.053C38.9204 49.5236 49.18 39.489 61.8851 34.111ZM25.3446 69.8831C19.2909 72.7548 13.1077 77.1872 6.82961 83.1898C9.75873 85.9204 16.2515 91.4395 24.472 95.4078C23.9651 92.6269 23.6498 89.7803 23.5434 86.8796H13.9647V82.045H23.555C23.7349 77.8659 24.3424 73.7972 25.3446 69.8831ZM31.5781 103.278C34.126 103.971 36.7688 104.458 39.4774 104.673C43.9736 114.533 51.662 122.58 61.2852 127.494C61.4999 130.178 62.0107 132.88 62.8136 135.601C48.3421 129.784 36.8984 117.989 31.5781 103.278ZM71.2256 143.173C74.0735 148.395 78.0628 153.711 83.2245 159.102C85.7474 156.397 90.6557 150.642 94.5192 143.301C91.5572 143.87 88.5178 144.216 85.4185 144.33V153.694H80.5818V144.316C77.3934 144.179 74.2669 143.794 71.2256 143.173ZM102.885 135.896C103.688 133.29 104.285 130.576 104.597 127.784C114.516 122.905 122.425 114.733 127.003 104.634C129.719 104.387 132.367 103.868 134.919 103.143C129.527 118.171 117.757 130.176 102.885 135.896ZM142.908 86.8794C142.805 89.6989 142.503 92.4682 142.02 95.1756C150.014 91.2286 156.305 85.868 159.177 83.1916C153.071 77.3553 147.056 72.9964 141.163 70.1188C142.128 73.9614 142.718 77.9489 142.898 82.0448H152.264V86.8794H142.908Z" fill="#DF0E12"/>
<path id="Shape_2" fill-rule="evenodd" clip-rule="evenodd" d="M134.3 43.1438C131.847 43.1438 129.539 42.1865 127.803 40.4519C126.066 38.7172 125.11 36.4101 125.11 33.9561C125.11 31.5021 126.068 29.195 127.803 27.4604C129.539 25.7257 131.845 24.7704 134.3 24.7704H134.302C136.755 24.7704 139.063 25.7257 140.799 27.4604C144.382 31.0438 144.382 36.8704 140.797 40.4519C139.063 42.1865 136.753 43.1438 134.3 43.1438ZM134.302 29.6069C133.137 29.6069 132.044 30.0594 131.222 30.8813C130.402 31.7013 129.947 32.7939 129.947 33.96C129.947 35.1203 130.4 36.2129 131.222 37.0348C132.867 38.6805 135.734 38.6805 137.378 37.0348C139.075 35.3369 139.077 32.5773 137.38 30.8813C136.558 30.0594 135.465 29.6069 134.302 29.6069Z" fill="#DF0E12"/>
<path id="Shape_3" fill-rule="evenodd" clip-rule="evenodd" d="M31.6999 127.328C34.1531 127.328 36.4611 128.285 38.1966 130.02C39.932 131.754 40.8877 134.061 40.8877 136.513C40.8877 138.966 39.932 141.271 38.1946 143.007C36.4573 144.744 34.1492 145.699 31.696 145.699C29.2428 145.699 26.9347 144.742 25.1993 143.007C23.4639 141.273 22.5082 138.968 22.5082 136.513C22.5101 134.059 23.4658 131.752 25.2013 130.02C26.9386 128.283 29.2448 127.328 31.6999 127.328ZM28.6196 139.59C30.2622 141.234 33.1294 141.232 34.7758 139.59C35.598 138.77 36.0508 137.676 36.0508 136.513C36.0508 135.349 35.598 134.259 34.7758 133.437C33.9536 132.615 32.8605 132.162 31.6977 132.162C30.535 132.162 29.4419 132.615 28.6196 133.437C27.7974 134.259 27.3447 135.351 27.3447 136.513C27.3447 137.676 27.7974 138.768 28.6196 139.59Z" fill="#DF0E12"/>
<path id="Shape_4" fill-rule="evenodd" clip-rule="evenodd" d="M127.803 130.02C129.537 128.283 131.843 127.328 134.3 127.328C136.757 127.328 139.063 128.283 140.797 130.018C144.382 133.601 144.382 139.426 140.797 143.009C139.063 144.744 136.755 145.699 134.302 145.699C131.849 145.699 129.539 144.742 127.803 143.007C126.066 141.275 125.11 138.969 125.11 136.513C125.11 134.061 126.068 131.754 127.803 130.02ZM131.222 139.588C132.869 141.23 135.734 141.236 137.378 139.59C139.075 137.892 139.075 135.135 137.378 133.435C136.556 132.613 135.463 132.16 134.3 132.16C133.137 132.16 132.044 132.613 131.222 133.435C130.4 134.257 129.947 135.349 129.947 136.511C129.947 137.676 130.4 138.766 131.222 139.588Z" fill="#DF0E12"/>
<path id="Shape_5" fill-rule="evenodd" clip-rule="evenodd" d="M38.1946 40.45C36.4592 42.1847 34.1531 43.14 31.698 43.14C29.2448 43.14 26.9367 42.1847 25.1974 40.4481C21.6144 36.8666 21.6144 31.04 25.1974 27.4585C26.9348 25.7239 29.2409 24.7686 31.696 24.7686C34.1511 24.7686 36.4592 25.7258 38.1946 27.4605C41.7777 31.0419 41.7777 36.8686 38.1946 40.45ZM31.6979 29.6031C30.5351 29.6031 29.442 30.0576 28.6198 30.8795C26.923 32.5754 26.923 35.335 28.6198 37.031C30.2643 38.6748 33.1315 38.6748 34.7759 37.031C35.5982 36.2091 36.0509 35.1165 36.0509 33.9543C36.0509 32.792 35.5982 31.6994 34.7759 30.8775C33.9537 30.0557 32.8606 29.6031 31.6979 29.6031Z" fill="#DF0E12"/>
<path id="Shape_6" fill-rule="evenodd" clip-rule="evenodd" d="M113.404 140.801C114.752 140.062 116.275 139.671 117.807 139.671C121.172 139.671 124.263 141.505 125.877 144.452C128.309 148.896 126.67 154.488 122.222 156.919C120.874 157.656 119.353 158.047 117.823 158.047C114.458 158.047 111.365 156.213 109.751 153.264C108.571 151.114 108.304 148.633 108.995 146.277C109.683 143.922 111.25 141.976 113.404 140.801ZM113.992 150.946C115.108 152.984 117.838 153.81 119.9 152.678C122.007 151.526 122.783 148.876 121.63 146.77C120.866 145.372 119.399 144.506 117.805 144.506C117.072 144.506 116.371 144.684 115.723 145.042C114.702 145.598 113.959 146.521 113.632 147.637C113.307 148.751 113.435 149.926 113.992 150.946Z" fill="#DF0E12"/>
<path id="Shape_7" fill-rule="evenodd" clip-rule="evenodd" d="M52.5964 29.6688C51.248 30.4056 49.7254 30.7962 48.1931 30.7962C44.8306 30.7962 41.739 28.963 40.1255 26.0158C37.6955 21.5718 39.3361 15.9792 43.7801 13.5503C45.1305 12.8135 46.6531 12.4229 48.1834 12.4229C51.5459 12.4229 54.6395 14.2561 56.2511 17.2033C57.4293 19.3557 57.6982 21.8387 57.0075 24.1922C56.3168 26.5457 54.7498 28.4911 52.5964 29.6688ZM48.1815 17.2575C47.4483 17.2575 46.746 17.4373 46.0979 17.7912C43.9949 18.9419 43.2171 21.5912 44.3683 23.6972C45.4826 25.7393 48.2183 26.5554 50.2749 25.428C51.2964 24.8691 52.0393 23.9486 52.3663 22.8327C52.6913 21.7189 52.5655 20.5431 52.0064 19.522C51.2422 18.1258 49.7777 17.2575 48.1815 17.2575Z" fill="#DF0E12"/>
<path id="Shape_8" fill-rule="evenodd" clip-rule="evenodd" d="M147.038 110.138C148.534 110.138 150.025 110.513 151.352 111.221C153.519 112.373 155.106 114.301 155.824 116.649C156.541 118.997 156.299 121.482 155.144 123.648C153.543 126.651 150.433 128.515 147.026 128.515C145.531 128.515 144.041 128.142 142.714 127.436C140.545 126.281 138.957 124.355 138.243 122.008C137.527 119.66 137.769 117.175 138.924 115.009C140.52 112.006 143.631 110.138 147.038 110.138ZM144.984 123.168C147.062 124.274 149.782 123.425 150.877 121.373C151.422 120.348 151.535 119.173 151.198 118.061C150.858 116.949 150.105 116.034 149.078 115.489C148.439 115.148 147.752 114.974 147.037 114.974C145.423 114.974 143.951 115.858 143.192 117.281C142.645 118.308 142.529 119.488 142.869 120.6C143.208 121.71 143.96 122.623 144.984 123.168Z" fill="#DF0E12"/>
<path id="Shape_9" fill-rule="evenodd" clip-rule="evenodd" d="M18.9598 60.326C17.4643 60.326 15.9726 59.9528 14.6454 59.2469C10.1744 56.8625 8.47378 51.2892 10.8554 46.8201C12.4554 43.8168 15.5644 41.9507 18.9695 41.9507C20.465 41.9507 21.9585 42.3239 23.2857 43.0317C27.7568 45.4123 29.4574 50.9856 27.0758 55.4566C25.4758 58.4618 22.3668 60.326 18.9598 60.326ZM18.9714 46.7872C17.3579 46.7872 15.8836 47.6709 15.1252 49.0943C13.9973 51.2099 14.8022 53.8496 16.9226 54.9808C18.9946 56.087 21.7167 55.24 22.8098 53.1862C23.9377 51.0687 23.1329 48.429 21.0144 47.3016C20.3741 46.9593 19.6872 46.7872 18.9714 46.7872Z" fill="#DF0E12"/>
<path id="Shape_10" fill-rule="evenodd" clip-rule="evenodd" d="M49.025 140.124C50.5147 140.124 52.0025 140.495 53.3258 141.195C55.4946 142.34 57.0869 144.264 57.8085 146.61C58.5302 148.958 58.2941 151.444 57.143 153.612C55.5469 156.625 52.432 158.499 49.0173 158.499C47.5276 158.499 46.0418 158.126 44.7184 157.426C40.2454 155.053 38.5313 149.482 40.9032 145.007C42.4993 141.996 45.6103 140.124 49.025 140.124ZM46.9857 153.156C49.0713 154.262 51.7799 153.403 52.871 151.348C53.4166 150.321 53.5288 149.143 53.1864 148.033C52.8439 146.923 52.0894 146.012 51.064 145.471C50.4236 145.13 49.7388 144.96 49.0249 144.96C47.4075 144.96 45.9332 145.846 45.1768 147.271C44.0547 149.393 44.8653 152.032 46.9857 153.156Z" fill="#DF0E12"/>
<path id="Shape_11" fill-rule="evenodd" clip-rule="evenodd" d="M116.969 30.3457C115.48 30.3457 113.994 29.9744 112.67 29.2743C110.502 28.1256 108.907 26.2034 108.188 23.8576C107.468 21.5119 107.704 19.0269 108.853 16.8572C110.451 13.8442 113.564 11.9723 116.979 11.9723C118.469 11.9723 119.954 12.3436 121.276 13.0436C125.755 15.4165 127.467 20.9859 125.093 25.4608C123.497 28.4737 120.384 30.3457 116.969 30.3457ZM116.979 16.8071C115.36 16.8071 113.885 17.6947 113.127 19.1219C112.583 20.1488 112.469 21.3265 112.812 22.4384C113.154 23.5504 113.909 24.4612 114.934 25.0046C117.023 26.1069 119.728 25.2541 120.819 23.1984C121.943 21.0789 121.133 18.4392 119.01 17.3157C118.376 16.9773 117.691 16.8071 116.979 16.8071Z" fill="#DF0E12"/>
<path id="Shape_12" fill-rule="evenodd" clip-rule="evenodd" d="M27.4821 115.761C28.6642 117.906 28.9428 120.387 28.2579 122.745C27.5749 125.104 26.0117 127.055 23.8603 128.237C22.5061 128.981 20.9757 129.376 19.4357 129.376C16.081 129.376 12.9913 127.552 11.3777 124.613C8.9381 120.176 10.5652 114.582 15.0014 112.139C16.3576 111.393 17.886 110.998 19.4241 110.998C22.7769 110.998 25.8666 112.824 27.4821 115.761ZM21.529 124.001C22.5486 123.441 23.2896 122.516 23.6127 121.4C23.9358 120.285 23.8042 119.111 23.2451 118.094C22.4789 116.697 21.0144 115.833 19.4241 115.833C18.6889 115.833 17.9847 116.013 17.3346 116.372C15.2316 117.531 14.4597 120.182 15.6166 122.284C16.731 124.313 19.4802 125.129 21.529 124.001Z" fill="#DF0E12"/>
<path id="Shape_13" fill-rule="evenodd" clip-rule="evenodd" d="M138.514 54.7083C137.33 52.5579 137.055 50.0768 137.74 47.7214C138.425 45.366 139.986 43.4167 142.138 42.2332C143.492 41.4886 145.02 41.0961 146.558 41.0961C149.913 41.0961 153.003 42.9197 154.618 45.8552C157.06 50.2934 155.435 55.888 150.995 58.3304C149.64 59.0749 148.11 59.4694 146.572 59.4694C143.219 59.4694 140.131 57.6458 138.514 54.7083ZM144.469 46.4681C143.449 47.0289 142.708 47.9533 142.385 49.0691C142.06 50.185 142.19 51.3588 142.749 52.376C143.871 54.4123 146.601 55.2284 148.663 54.0932C150.766 52.9368 151.538 50.2855 150.379 48.1834C149.613 46.793 148.15 45.9286 146.558 45.9286C145.833 45.9286 145.111 46.1142 144.469 46.4681Z" fill="#DF0E12"/>
</g>
</g>
</svg>
