<svg width="680" height="140" viewBox="310 170 680 140" fill="none" xmlns="http://www.w3.org/2000/svg">
<g clip-path="url(#clip0_2_353)">
<path d="M413.745 206.85L346.067 193.009C341.63 192.098 337.457 195.507 337.457 200.032V232.094V233.798V265.859C337.457 270.385 341.63 273.794 346.067 272.883L413.745 259.042" stroke="black" stroke-width="3.43015" stroke-miterlimit="10" stroke-linecap="round" stroke-linejoin="round"/>
<path d="M361.488 181.871C361.489 175.513 367.988 171.261 373.807 173.695L374.084 173.816L374.09 173.82L410.295 190.54C413.472 191.973 415.464 195.146 415.465 198.592V212.757C415.465 217.924 411.064 222.005 405.922 221.608L364.919 218.547V247.344L405.916 244.283L406.396 244.259C411.32 244.139 415.463 248.115 415.434 253.105V267.27C415.434 270.742 413.39 273.869 410.271 275.32L410.265 275.321L374.091 292.012L374.092 292.013C368.193 294.743 361.488 290.443 361.488 283.962V270.463C361.223 270.568 360.938 270.638 360.639 270.659L340.63 272.1C338.958 272.22 337.536 270.895 337.535 269.219V254.364C337.535 253.788 337.707 253.248 338.003 252.793L321.542 254.022H321.536C316.409 254.386 312 250.318 312 245.171V220.72C312 215.551 316.405 211.468 321.548 211.869H321.548L337.644 213.071C337.574 212.822 337.535 212.561 337.535 212.291V196.643C337.535 194.358 339.579 192.615 341.835 192.976L360.888 196.025C361.097 196.058 361.298 196.115 361.488 196.19V181.871ZM406.183 247.704H406.177L364.919 250.784V268.688L412.005 258.846V253.093L411.999 252.802C411.859 249.809 409.236 247.466 406.183 247.704ZM336.874 216.453C337.162 216.903 337.329 217.437 337.329 218.006V248.413C337.329 248.765 337.263 249.103 337.146 249.417L361.488 247.6V218.29L336.874 216.453ZM364.919 215.107L406.177 218.187L406.183 218.188L406.476 218.203C409.493 218.277 412.035 215.834 412.035 212.757V206.802L364.919 196.953V215.107Z" fill="black"/>
</g>
<path d="M957.048 275.086C937.743 275.086 925.65 262.105 925.65 243.689C925.65 225.161 937.743 212.18 957.048 212.18C976.352 212.18 988.445 225.161 988.445 243.689C988.445 262.105 976.352 275.086 957.048 275.086ZM957.048 263.548C966.256 263.548 971.138 255.892 971.138 243.689C971.138 231.374 966.256 223.719 957.048 223.719C947.839 223.719 942.958 231.374 942.958 243.689C942.958 255.892 947.839 263.548 957.048 263.548Z" fill="black"/>
<path d="M919.304 205.413H901.775V189.438H919.304V205.413ZM918.972 273.755H901.997V213.512H918.972V273.755Z" fill="black"/>
<path d="M867.346 275.086C852.48 275.086 841.386 268.762 839.278 255.56H856.363C857.583 261.662 862.687 263.548 868.012 263.548C875.445 263.548 879.439 261.107 879.439 257.224C879.439 253.563 876.999 251.787 868.789 249.901L858.138 247.572C846.711 245.131 840.498 239.806 840.498 230.819C840.498 219.392 852.258 212.18 866.681 212.18C880.327 212.18 891.754 217.839 894.417 229.488H877.331C876 225.716 871.673 223.719 866.792 223.719C861.355 223.719 856.696 225.716 856.696 229.488C856.696 232.927 860.135 234.258 866.348 235.59L876.999 237.919C889.646 240.693 895.637 246.129 895.637 255.892C895.637 268.207 883.433 275.086 867.346 275.086Z" fill="black"/>
<path d="M805.137 275.086C785.833 275.086 773.74 262.105 773.74 243.689C773.74 225.161 785.833 212.18 805.137 212.18C824.441 212.18 836.534 225.161 836.534 243.689C836.534 262.105 824.441 275.086 805.137 275.086ZM805.137 263.548C814.346 263.548 819.227 255.892 819.227 243.689C819.227 231.374 814.346 223.719 805.137 223.719C795.929 223.719 791.047 231.374 791.047 243.689C791.047 255.892 795.929 263.548 805.137 263.548Z" fill="black"/>
<path d="M745.312 212.18C760.178 212.18 770.163 225.605 770.163 243.689C770.163 261.772 760.178 275.086 745.312 275.086C735.992 275.086 728.559 269.428 725.342 261.662V295.499H708.478V213.512H725.342V227.047C728.004 219.17 734.772 212.18 745.312 212.18ZM738.766 263.548C747.974 263.548 752.856 255.892 752.856 243.689C752.856 231.374 747.974 223.719 738.766 223.719C729.558 223.719 724.676 231.374 724.676 243.689C724.676 255.892 729.558 263.548 738.766 263.548Z" fill="black"/>
<path d="M679.838 212.18C693.374 212.18 699.143 222.054 699.143 235.59V235.812V273.754H682.168V239.473V239.251C682.168 228.822 678.951 224.051 671.961 224.051C664.972 224.051 661.644 228.822 661.644 239.473V273.754H644.669V239.473V239.251C644.669 228.822 641.452 224.051 634.462 224.051C627.473 224.051 624.144 228.822 624.144 239.473V273.754H607.17V213.512H624.033V225.827C626.918 218.393 632.354 212.18 642.561 212.18C652.99 212.18 658.759 219.17 660.867 226.825C663.53 219.503 669.299 212.18 679.838 212.18Z" fill="black"/>
<path d="M569.262 275.086C549.958 275.086 537.865 262.105 537.865 243.689C537.865 225.161 549.958 212.18 569.262 212.18C588.566 212.18 600.659 225.161 600.659 243.689C600.659 262.105 588.566 275.086 569.262 275.086ZM569.262 263.548C578.47 263.548 583.352 255.892 583.352 243.689C583.352 231.374 578.47 223.719 569.262 223.719C560.054 223.719 555.172 231.374 555.172 243.689C555.172 255.892 560.054 263.548 569.262 263.548Z" fill="black"/>
<path d="M495.496 275.087C472.198 275.087 454.336 258.446 454.336 231.597C454.336 204.859 472.087 188.107 495.607 188.107C515.577 188.107 530.887 199.312 535.325 218.173H517.019C513.802 209.075 507.367 201.975 495.607 201.975C481.628 201.975 472.419 213.624 472.419 231.597C472.419 249.681 481.961 261.219 495.607 261.219C506.701 261.219 514.134 255.339 517.574 244.799H535.88C530.332 265.657 515.133 275.087 495.496 275.087Z" fill="black"/>
<defs>
<clipPath id="clip0_2_353">
<rect width="103.863" height="120.12" fill="white" transform="translate(312 173)"/>
</clipPath>
</defs>
</svg>
