<?xml version="1.0" encoding="UTF-8"?>
<svg id="Layer_1" xmlns="http://www.w3.org/2000/svg" xmlns:xlink="http://www.w3.org/1999/xlink" version="1.1" viewBox="0 0 115 38">
  <!-- Generator: Adobe Illustrator 29.0.1, SVG Export Plug-In . SVG Version: 2.1.0 Build 192)  -->
  <defs>
    <style>
      .st0 {
        fill: none;
      }

      .st1 {
        clip-path: url(#clippath);
      }
    </style>
    <clipPath id="clippath">
      <rect class="st0" y="2" width="30.3" height="26.3"/>
    </clipPath>
  </defs>
  <path d="M55.3,29h-17.2V3.8h4.3v21.3h12.9v3.9ZM58.1,36.2h-3.5v-3.6h3.5c1.6,0,2.5-.6,2.8-1.6l.8-2h-.8l-7.6-19.1h4.6l5.5,14.5,5.4-14.5h4.4l-8.3,22.4c-1,2.6-3,3.9-6.7,3.9ZM79,29h-4.3V9.9h3.4l.5,3.7c1.2-2.6,3.5-4,6.6-4h.7v4.1h-.7c-4,0-6.3,2.1-6.3,5.7v9.4ZM89.8,7.3c-1.5,0-2.7-1.2-2.7-2.8s1.2-2.7,2.7-2.7,2.7,1.2,2.7,2.7-1.2,2.8-2.7,2.8ZM91.9,29h-4.3V9.9h4.3v19.1ZM104.1,29.5c-6.2,0-9.9-4.5-9.9-10.2s4.2-10,9.8-10,8.8,3.2,9.1,8h-4.2c-.4-2.6-2.3-4.3-5-4.3s-5.4,2.5-5.4,6.3,2.4,6.6,5.5,6.6,4.4-1.7,4.8-4.4h4.2c-.5,4.9-3.9,8-9,8Z"/>
  <g class="st1">
    <g>
      <path d="M30.3,8.2c0,1.7-.7,3.2-1.8,4.3-.4.4-.9.8-1.5,1.1-.7-2.6-3.1-4.5-5.9-4.5h-11.9c-1,0-2,.3-2.8.7-.1-.5-.2-1.1-.2-1.6,0-3.4,2.7-6.1,6.1-6.1h11.9c3.4,0,6.1,2.7,6.1,6.1Z"/>
      <path d="M27.2,15.2c0,1.7-.7,3.2-1.8,4.3-.4.4-.9.8-1.5,1.1-.7-2.6-3.1-4.5-5.9-4.5H6.1c-1,0-2,.3-2.8.7-.1-.5-.2-1.1-.2-1.6,0-2.4,1.3-4.4,3.3-5.4.7,2.6,3.1,4.5,5.9,4.5h11.9c1,0,2-.3,2.8-.7.1.5.2,1.1.2,1.6Z"/>
      <path d="M24.2,22.2c0,1.7-.7,3.2-1.8,4.3-1.1,1.1-2.6,1.8-4.3,1.8H6.1c-3.4,0-6.1-2.7-6.1-6.1s1.3-4.4,3.3-5.4c.7,2.6,3.1,4.5,5.9,4.5h11.9c1,0,2-.3,2.8-.7.1.5.2,1.1.2,1.6Z"/>
    </g>
  </g>
</svg>