<?xml version="1.0" encoding="UTF-8"?>
<svg width="529px" height="120px" viewBox="0 0 529 120" version="1.1" xmlns="http://www.w3.org/2000/svg" xmlns:xlink="http://www.w3.org/1999/xlink">
    <!-- Generator: Sketch 47.1 (45422) - http://www.bohemiancoding.com/sketch -->
    <title>2 copy 9@1x</title>
    <desc>Created with Sketch.</desc>
    <defs>
        <path d="M91.595,28.802 C91.556,28.724 91.516,28.648 91.472,28.574 C91.354,28.375 91.217,28.191 91.069,28.013 C91.004,27.936 90.948,27.853 90.878,27.781 C90.86,27.76 90.846,27.737 90.826,27.718 C90.616,27.508 90.387,27.327 90.143,27.168 C90.135,27.163 90.13,27.155 90.122,27.15 L48.538,0.718 C47.861,0.288 47.08,0.06 46.278,0.06 C45.476,0.06 44.694,0.288 44.017,0.716 L2.439,27.15 C2.402,27.173 2.377,27.207 2.341,27.231 C2.084,27.404 1.841,27.6 1.626,27.826 C1.625,27.826 1.625,27.827 1.624,27.828 C1.62,27.832 1.617,27.837 1.613,27.841 C1.382,28.086 1.196,28.36 1.032,28.646 C1.018,28.671 1.006,28.697 0.992,28.723 C0.658,29.335 0.465,30.017 0.465,30.73 L0.465,77.029 C0.465,78.482 1.198,79.813 2.429,80.593 L44.013,107.04 C44.69,107.472 45.473,107.699 46.278,107.699 C47.083,107.699 47.866,107.471 48.545,107.04 L90.13,80.591 C91.359,79.814 92.093,78.482 92.093,77.029 L92.093,30.73 C92.093,30.06 91.906,29.401 91.595,28.802 L91.595,28.802 Z" id="path-1"></path>
    </defs>
    <g id="Page-1" stroke="none" stroke-width="1" fill="none" fill-rule="evenodd">
        <g id="2-copy-9">
            <g id="HyperTrack_RGB_web-use" transform="translate(-5586.000000, -796.000000)">
                <g id="Group" transform="translate(5594.000000, 801.000000)">
                    <g id="Group-3">
                        <g id="Group-2">
                            <g id="Shape" fill-rule="nonzero">
                                <use fill="#00CE5B" fill-rule="evenodd" xlink:href="#path-1"></use>
                                <path stroke="#FFFFFF" stroke-width="3" d="M1.41884275,26.0446023 C1.47654224,25.9938033 1.55107933,25.9357841 1.63422266,25.8841669 L43.2154469,-0.551877214 C44.1331382,-1.13204249 45.1932227,-1.44 46.278,-1.44 C47.3643539,-1.44 48.4243749,-1.13116124 49.3426513,-0.547913237 L90.9169984,25.8780025 C90.9330788,25.8899073 90.9480435,25.900986 90.9619848,25.9113123 C91.299338,26.1311499 91.6073771,26.3780568 91.8591242,26.6305008 C91.9730416,26.7511772 92.0014845,26.7813076 92.0264153,26.8132845 C92.0758704,26.8684946 92.1193821,26.9226431 92.1797575,27.0003169 L92.1867298,27.0092872 C92.211693,27.0412033 92.2124529,27.0421583 92.2223935,27.0539987 C92.4319027,27.305976 92.6082546,27.5492763 92.7613038,27.8073869 C92.820713,27.9073023 92.874313,28.0069575 92.9315849,28.121086 C93.3586328,28.9471975 93.593,29.8360109 93.593,30.73 L93.593,77.029 C93.593,78.9965562 92.595275,80.8070367 90.935006,81.8566877 L49.3488645,108.306413 C48.4291839,108.890187 47.3673118,109.199 46.278,109.199 C45.1866206,109.199 44.1237503,108.890042 43.2080236,108.305707 L1.62615253,81.860058 C-0.0383919229,80.8053507 -1.035,78.9965274 -1.035,77.029 L-1.035,30.73 C-1.035,29.778932 -0.786383289,28.8504176 -0.32870665,28.0118503 C-0.335523019,28.0248502 -0.335523019,28.0248502 -0.327030649,28.0081095 C-0.310742689,27.9757548 -0.310742689,27.9757548 -0.269243287,27.8998325 C-0.0511879209,27.5195652 0.179637727,27.1890068 0.47455614,26.8642735 C0.54582636,26.7718581 0.604226846,26.706163 0.677242246,26.6524768 C0.901720683,26.4338065 1.14816956,26.2330378 1.41884275,26.0446023 Z"></path>
                            </g>
                            <polygon id="Path" fill="#FFFFFF" points="46.278 9.26 80.005 30.696 46.278 52.164 12.55 30.697"></polygon>
                            <path d="M46.278,98.495 L8.886,74.707 L8.886,38.345 L44.016,60.706 C44.694,61.138 45.476,61.366 46.278,61.366 C47.08,61.366 47.861,61.138 48.54,60.706 L83.673,38.345 L83.673,74.707 L46.278,98.495 Z" id="Path" fill="#00CE5B"></path>
                            <path d="M1.10760237,53.0894258 L43.9266575,81.0376353 L43.9266575,81.0376353 C45.6061288,82.1338345 47.7780914,82.1204345 49.4439092,81.0035963 L74.9930899,63.8742918" id="Path-6" stroke="#FFFFFF" stroke-width="4" stroke-linecap="square"></path>
                            <ellipse id="Oval-3" fill="#FFFFFF" transform="translate(71.068906, 66.088916) rotate(20.000000) translate(-71.068906, -66.088916) " cx="71.0689056" cy="66.0889161" rx="6.22530929" ry="9.46981691"></ellipse>
                            <path d="M46.279,36.895 C40.492,36.895 35.603,34.057 35.603,30.697 C35.603,27.337 40.492,24.498 46.279,24.498 C52.065,24.498 56.955,27.337 56.955,30.697 C56.955,34.057 52.065,36.895 46.279,36.895" id="Shape" fill="#00CE5B" fill-rule="nonzero"></path>
                        </g>
                    </g>
                    <path d="M129,27 L129,77.6488992 L141.015968,77.6488992 L141.015968,56.5272306 C141.015968,51.7856315 145.189179,48.8400927 148.642871,48.9119351 C151.664851,48.9837775 154.470975,51.2108922 154.470975,56.3117034 L154.470975,77.6488992 L165.911328,77.6488992 L165.911328,56.239861 C166.055232,46.5411356 162.9613,38.3511008 151.880706,38.207416 C147.707496,38.207416 143.246478,39.2132097 140.440353,42.6616454 L140.440353,27 L129,27 Z M188.792035,61.0533024 L186.057862,51.2108922 L181.237084,38.7821553 L169.436972,38.7821553 L169.436972,40.5782155 L182.388315,74.4878331 L177.351681,87.2757822 L177.351681,89 L189.079842,89 C195.41161,72.8354577 201.81533,56.7427578 208.219049,40.5782155 L208.219049,38.7821553 L196.490889,38.7821553 L191.670111,51.2108922 L188.792035,61.0533024 Z M233.618073,78.2954809 C229.804621,78.2954809 226.135074,77.0023175 223.544806,74.0567787 L223.544806,89 L212.320308,89 L212.320308,38.7821553 L223.544806,38.7821553 L223.544806,42.6616454 C226.207026,39.3568946 230.020477,38.2792584 233.761976,38.2792584 C246.137704,38.2792584 252.541424,48.193511 252.469472,58.8980301 C252.325568,69.5307068 246.209656,78.2954809 233.618073,78.2954809 Z M232.39489,49.1274623 C227.50216,49.1274623 223.544806,53.2943221 223.544806,58.4669757 C223.544806,63.6396292 227.50216,67.8783314 232.39489,67.8783314 C238.151043,67.8783314 241.029119,63.2804171 241.101071,58.6106605 C241.173023,53.9409038 238.222995,49.1274623 232.39489,49.1274623 Z M297.007702,58.1077636 C297.007702,59.6882966 296.863799,61.1251448 296.575991,62.561993 L268.658651,62.561993 C270.025737,66.1541136 273.551381,67.9501738 277.005072,68.0220162 C279.523389,68.0220162 281.897802,67.1599073 283.552696,65.363847 L295.856472,65.363847 C292.834492,73.9849363 284.631974,78.2236385 276.429457,78.0799537 C266.572046,77.8644264 256.786587,71.2549247 256.786587,58.1077636 C256.786587,44.7450753 266.931805,38.1355736 277.077024,38.207416 C287.078339,38.2792584 297.007702,44.8887601 297.007702,58.1077636 Z M269.090363,53.7253766 L284.631974,53.7253766 C283.552696,49.8458864 280.386812,48.0498262 276.717265,48.0498262 C273.335525,48.0498262 270.241593,49.9177289 269.090363,53.7253766 Z M313.700545,56.0961761 C313.700545,50.8516802 317.873755,48.6964079 321.975014,48.6245655 C323.270148,48.6245655 324.637235,48.8400927 325.788465,49.1993048 L325.932369,38.566628 C324.421379,38.207416 322.910389,37.9918888 321.543303,37.9918888 C318.377419,37.9918888 315.571294,38.9976825 313.052978,41.368482 L312.621266,38.7821553 L302.404095,38.7821553 L302.404095,77.6488992 L313.700545,77.6488992 L313.700545,56.0961761 Z M354.569228,77.7207416 L354.209468,68.3812283 C353.202142,68.5967555 352.050911,68.7404403 350.971633,68.7404403 C348.23746,68.7404403 345.719143,67.6628042 345.719143,64.2143685 L345.719143,48.9119351 L353.849709,48.9119351 L353.849709,39.2132097 L345.719143,39.2132097 L345.719143,30.8076477 L334.422694,31.8134415 L334.422694,39.2132097 L329.314109,39.2132097 L329.314109,48.9119351 L334.422694,48.9119351 L334.422694,64.2143685 C334.422694,74.3441483 339.675183,78.3673233 348.381364,78.2954809 C350.252113,78.2954809 352.338719,78.0799537 354.569228,77.7207416 Z M370.902311,56.0961761 C370.902311,50.8516802 375.075521,48.6964079 379.17678,48.6245655 C380.471914,48.6245655 381.839001,48.8400927 382.990231,49.1993048 L383.134135,38.566628 C381.623145,38.207416 380.112155,37.9918888 378.745069,37.9918888 C375.579185,37.9918888 372.77306,38.9976825 370.254744,41.368482 L369.823032,38.7821553 L359.605861,38.7821553 L359.605861,77.6488992 L370.902311,77.6488992 L370.902311,56.0961761 Z M405.727034,38.1355736 C409.540485,38.1355736 413.281984,39.5724218 415.800301,42.8053302 L415.800301,38.7821553 L427.09675,38.7821553 L427.09675,77.6488992 L415.800301,77.6488992 L415.800301,73.769409 C413.13808,77.0741599 409.324629,78.1517961 405.58313,78.1517961 C393.207402,78.1517961 386.803682,68.2375435 386.875634,57.5330243 C387.019538,46.9003476 393.13545,38.1355736 405.727034,38.1355736 Z M406.950216,67.3035921 C411.842946,67.3035921 415.800301,63.1367323 415.800301,57.9640788 C415.800301,52.7914253 411.842946,48.5527231 406.950216,48.5527231 C401.194064,48.5527231 398.315987,53.0787949 398.244035,57.820394 C398.172083,62.4901506 401.122112,67.3035921 406.950216,67.3035921 Z M459.978771,61.1251448 C457.028743,70.7520278 443.070073,69.1714948 443.070073,58.179606 C443.070073,47.1877173 457.100695,45.6790267 459.978771,55.3059096 L471.203269,55.3059096 C468.037385,31.382387 431.98948,33.0347625 431.98948,58.179606 C431.98948,83.3244496 467.965433,84.976825 471.203269,61.1251448 L459.978771,61.1251448 Z M487.608304,54.0845886 L487.608304,27.3592121 L476.311854,27.3592121 L476.311854,77.6488992 L487.608304,77.6488992 L487.608304,62.4901506 L498.760849,77.6488992 L512,77.6488992 L512,77.1460023 L497.537667,58.1077636 L510.704866,39.3568946 L510.704866,38.7821553 L498.329138,38.7821553 L487.608304,54.0845886 Z" id="hypertrack" fill="#FFFFFF"></path>
                </g>
            </g>
        </g>
    </g>
</svg>