<svg width="14" height="16" viewBox="0 0 14 16" fill="none" xmlns="http://www.w3.org/2000/svg">
<g clip-path="url(#clip0_1_33)">
<path d="M1.55556 15.7782C1.12778 15.7782 0.761574 15.6259 0.456944 15.3213C0.152315 15.0166 0 14.6504 0 14.2227V3.33377C0 2.90599 0.152315 2.53979 0.456944 2.23516C0.761574 1.93053 1.12778 1.77821 1.55556 1.77821H2.33333V0.222656H3.88889V1.77821H10.1111V0.222656H11.6667V1.77821H12.4444C12.8722 1.77821 13.2384 1.93053 13.5431 2.23516C13.8477 2.53979 14 2.90599 14 3.33377V14.2227C14 14.6504 13.8477 15.0166 13.5431 15.3213C13.2384 15.6259 12.8722 15.7782 12.4444 15.7782H1.55556ZM1.55556 14.2227H12.4444V6.44488H1.55556V14.2227ZM1.55556 4.88932H12.4444V3.33377H1.55556V4.88932ZM7 9.55599C6.77963 9.55599 6.59491 9.48145 6.44583 9.33238C6.29676 9.1833 6.22222 8.99858 6.22222 8.77821C6.22222 8.55784 6.29676 8.37312 6.44583 8.22404C6.59491 8.07497 6.77963 8.00043 7 8.00043C7.22037 8.00043 7.40509 8.07497 7.55417 8.22404C7.70324 8.37312 7.77778 8.55784 7.77778 8.77821C7.77778 8.99858 7.70324 9.1833 7.55417 9.33238C7.40509 9.48145 7.22037 9.55599 7 9.55599ZM3.88889 9.55599C3.66852 9.55599 3.4838 9.48145 3.33472 9.33238C3.18565 9.1833 3.11111 8.99858 3.11111 8.77821C3.11111 8.55784 3.18565 8.37312 3.33472 8.22404C3.4838 8.07497 3.66852 8.00043 3.88889 8.00043C4.10926 8.00043 4.29398 8.07497 4.44306 8.22404C4.59213 8.37312 4.66667 8.55784 4.66667 8.77821C4.66667 8.99858 4.59213 9.1833 4.44306 9.33238C4.29398 9.48145 4.10926 9.55599 3.88889 9.55599ZM10.1111 9.55599C9.89074 9.55599 9.70602 9.48145 9.55694 9.33238C9.40787 9.1833 9.33333 8.99858 9.33333 8.77821C9.33333 8.55784 9.40787 8.37312 9.55694 8.22404C9.70602 8.07497 9.89074 8.00043 10.1111 8.00043C10.3315 8.00043 10.5162 8.07497 10.6653 8.22404C10.8144 8.37312 10.8889 8.55784 10.8889 8.77821C10.8889 8.99858 10.8144 9.1833 10.6653 9.33238C10.5162 9.48145 10.3315 9.55599 10.1111 9.55599ZM7 12.6671C6.77963 12.6671 6.59491 12.5926 6.44583 12.4435C6.29676 12.2944 6.22222 12.1097 6.22222 11.8893C6.22222 11.669 6.29676 11.4842 6.44583 11.3352C6.59491 11.1861 6.77963 11.1115 7 11.1115C7.22037 11.1115 7.40509 11.1861 7.55417 11.3352C7.70324 11.4842 7.77778 11.669 7.77778 11.8893C7.77778 12.1097 7.70324 12.2944 7.55417 12.4435C7.40509 12.5926 7.22037 12.6671 7 12.6671ZM3.88889 12.6671C3.66852 12.6671 3.4838 12.5926 3.33472 12.4435C3.18565 12.2944 3.11111 12.1097 3.11111 11.8893C3.11111 11.669 3.18565 11.4842 3.33472 11.3352C3.4838 11.1861 3.66852 11.1115 3.88889 11.1115C4.10926 11.1115 4.29398 11.1861 4.44306 11.3352C4.59213 11.4842 4.66667 11.669 4.66667 11.8893C4.66667 12.1097 4.59213 12.2944 4.44306 12.4435C4.29398 12.5926 4.10926 12.6671 3.88889 12.6671ZM10.1111 12.6671C9.89074 12.6671 9.70602 12.5926 9.55694 12.4435C9.40787 12.2944 9.33333 12.1097 9.33333 11.8893C9.33333 11.669 9.40787 11.4842 9.55694 11.3352C9.70602 11.1861 9.89074 11.1115 10.1111 11.1115C10.3315 11.1115 10.5162 11.1861 10.6653 11.3352C10.8144 11.4842 10.8889 11.669 10.8889 11.8893C10.8889 12.1097 10.8144 12.2944 10.6653 12.4435C10.5162 12.5926 10.3315 12.6671 10.1111 12.6671Z" fill="#FF7B3E"/>
</g>
<defs>
<clipPath id="clip0_1_33">
<rect width="14" height="16" fill="white"/>
</clipPath>
</defs>
</svg>
