<svg xmlns="http://www.w3.org/2000/svg" xmlns:xlink="http://www.w3.org/1999/xlink" width="129.071" height="62.227" viewBox="0 0 129.071 62.227">
  <defs>
    <clipPath id="clip-path">
      <rect id="Rectangle_8016" data-name="Rectangle 8016" width="87" height="43" transform="translate(16304 -139)" fill="#fff"/>
    </clipPath>
    <clipPath id="clip-path-2">
      <rect id="Rectangle_8019" data-name="Rectangle 8019" width="21" height="43" transform="translate(16304 -139)" fill="#fff"/>
    </clipPath>
  </defs>
  <g id="Group_4907" data-name="Group 4907" transform="translate(-16300.929 146.227)">
    <g id="Group_4864" data-name="Group 4864">
      <g id="Group_29" data-name="Group 29" transform="translate(16323.613 -126.79)">
        <g id="Group_27" data-name="Group 27" transform="translate(0.334 -0.018)">
          <path id="Subtraction_2" data-name="Subtraction 2" d="M106,43H88.709l-2.373-2.389L83.962,43H0V0H83.962l2.374,2.39L88.709,0H106V43ZM86.858,32.575a2.5,2.5,0,1,0,2.455,2.975V34.6A2.5,2.5,0,0,0,86.858,32.575Zm0-9a2.5,2.5,0,1,0,2.455,2.975V25.6A2.5,2.5,0,0,0,86.858,23.575Zm0-9a2.5,2.5,0,1,0,2.455,2.975V16.6A2.5,2.5,0,0,0,86.858,14.575Zm0-9a2.5,2.5,0,1,0,2.455,2.975V7.6A2.5,2.5,0,0,0,86.858,5.575Z" transform="translate(0.053 -0.192)" fill="#ff724b"/>
          <g id="Rectangle_134" data-name="Rectangle 134" transform="translate(4.053 3.808)" fill="none" stroke="#6d2213" stroke-width="1">
            <rect width="98" height="35" stroke="none"/>
            <rect x="0.5" y="0.5" width="97" height="34" fill="none"/>
          </g>
        </g>
      </g>
      <g id="Mask_Group_29" data-name="Mask Group 29" transform="matrix(0.985, -0.174, 0.174, 0.985, 268.759, 2836.928)" clip-path="url(#clip-path)">
        <g id="Group_28" data-name="Group 28" transform="translate(16303.613 -138.79)">
          <g id="Group_27-2" data-name="Group 27" transform="translate(0.334 -0.018)">
            <path id="Subtraction_2-2" data-name="Subtraction 2" d="M106,43H88.709l-2.373-2.389L83.962,43H0V0H83.962l2.374,2.39L88.709,0H106V43ZM86.858,32.575a2.5,2.5,0,1,0,2.455,2.975V34.6A2.5,2.5,0,0,0,86.858,32.575Zm0-9a2.5,2.5,0,1,0,2.455,2.975V25.6A2.5,2.5,0,0,0,86.858,23.575Zm0-9a2.5,2.5,0,1,0,2.455,2.975V16.6A2.5,2.5,0,0,0,86.858,14.575Zm0-9a2.5,2.5,0,1,0,2.455,2.975V7.6A2.5,2.5,0,0,0,86.858,5.575Z" transform="translate(0.053 -0.192)" fill="#b8dfd8"/>
            <g id="Rectangle_134-2" data-name="Rectangle 134" transform="translate(4.053 3.808)" fill="none" stroke="#245e79" stroke-width="1">
              <rect width="98" height="35" stroke="none"/>
              <rect x="0.5" y="0.5" width="97" height="34" fill="none"/>
            </g>
          </g>
        </g>
      </g>
      <g id="Mask_Group_30" data-name="Mask Group 30" transform="matrix(0.985, 0.174, -0.174, 0.985, 319.451, -2840.499)" clip-path="url(#clip-path-2)">
        <g id="Group_4863" data-name="Group 4863" transform="translate(16217.613 -138.79)">
          <g id="Group_4862" data-name="Group 4862" transform="translate(0.334 -0.018)">
            <path id="Subtraction_5" data-name="Subtraction 5" d="M106,43H88.709l-2.373-2.389L83.962,43H0V0H83.962l2.374,2.39L88.709,0H106V43ZM86.858,32.575a2.5,2.5,0,1,0,2.455,2.975V34.6A2.5,2.5,0,0,0,86.858,32.575Zm0-9a2.5,2.5,0,1,0,2.455,2.975V25.6A2.5,2.5,0,0,0,86.858,23.575Zm0-9a2.5,2.5,0,1,0,2.455,2.975V16.6A2.5,2.5,0,0,0,86.858,14.575Zm0-9a2.5,2.5,0,1,0,2.455,2.975V7.6A2.5,2.5,0,0,0,86.858,5.575Z" transform="translate(0.053 -0.192)" fill="#b8dfd8"/>
            <g id="Rectangle_8018" data-name="Rectangle 8018" transform="translate(4.053 3.808)" fill="none" stroke="#245e79" stroke-width="1">
              <rect width="98" height="35" stroke="none"/>
              <rect x="0.5" y="0.5" width="97" height="34" fill="none"/>
            </g>
          </g>
        </g>
      </g>
    </g>
    <path id="Path_9766" data-name="Path 9766" d="M-27.824-9.869v-1.767h9.284v1.767h-3.6V0h-2.091V-9.869ZM-16.847,0V-8.727h2.057V0Zm1.034-9.966a1.194,1.194,0,0,1-.841-.327,1.035,1.035,0,0,1-.352-.787,1.041,1.041,0,0,1,.352-.793,1.194,1.194,0,0,1,.841-.327,1.191,1.191,0,0,1,.844.327,1.045,1.045,0,0,1,.349.793,1.039,1.039,0,0,1-.349.787A1.191,1.191,0,0,1-15.813-9.966ZM-8.869.17A4.2,4.2,0,0,1-11.111-.4a3.8,3.8,0,0,1-1.437-1.588,5.2,5.2,0,0,1-.5-2.338,5.174,5.174,0,0,1,.511-2.349A3.833,3.833,0,0,1-11.094-8.27a4.162,4.162,0,0,1,2.213-.571A4.348,4.348,0,0,1-7-8.452a3.246,3.246,0,0,1,1.31,1.1A3.26,3.26,0,0,1-5.131-5.7H-7.1a1.9,1.9,0,0,0-.565-1.054,1.658,1.658,0,0,0-1.19-.423,1.868,1.868,0,0,0-1.108.338,2.184,2.184,0,0,0-.741.969,3.9,3.9,0,0,0-.264,1.511A4.04,4.04,0,0,0-10.7-2.832a2.208,2.208,0,0,0,.736.983,1.852,1.852,0,0,0,1.116.344,1.86,1.86,0,0,0,.815-.173,1.615,1.615,0,0,0,.605-.5,1.942,1.942,0,0,0,.335-.8h1.966a3.41,3.41,0,0,1-.545,1.639A3.2,3.2,0,0,1-6.96-.23,4.27,4.27,0,0,1-8.869.17Zm7.307-2.909-.006-2.483h.33L1.9-8.727H4.3L.443-4.432H.017ZM-3.437,0V-11.636h2.057V0ZM2.04,0-.8-3.972.585-5.42,4.5,0ZM9.165.17A4.46,4.46,0,0,1,6.9-.378,3.667,3.667,0,0,1,5.438-1.935a5.2,5.2,0,0,1-.511-2.378A5.19,5.19,0,0,1,5.44-6.679,3.871,3.871,0,0,1,6.881-8.27a4.062,4.062,0,0,1,2.176-.571,4.473,4.473,0,0,1,1.526.259,3.5,3.5,0,0,1,1.273.8,3.753,3.753,0,0,1,.872,1.372,5.545,5.545,0,0,1,.318,1.98V-3.8H5.892V-5.187h5.182a2.229,2.229,0,0,0-.256-1.054,1.87,1.87,0,0,0-.7-.73,1.98,1.98,0,0,0-1.037-.267,2.018,2.018,0,0,0-1.108.3,2.12,2.12,0,0,0-.741.8,2.286,2.286,0,0,0-.27,1.077v1.21a2.826,2.826,0,0,0,.278,1.3,1.964,1.964,0,0,0,.778.83,2.311,2.311,0,0,0,1.17.287,2.438,2.438,0,0,0,.813-.128,1.769,1.769,0,0,0,.631-.378,1.585,1.585,0,0,0,.4-.619l1.92.216a2.988,2.988,0,0,1-.69,1.327,3.363,3.363,0,0,1-1.3.875A4.923,4.923,0,0,1,9.165.17Zm9.977-8.9v1.591H14.125V-8.727Zm-3.778-2.091H17.42v8.193a1.273,1.273,0,0,0,.128.634.659.659,0,0,0,.338.3,1.307,1.307,0,0,0,.466.08,2.06,2.06,0,0,0,.355-.028q.162-.028.247-.051L19.3-.085a4.637,4.637,0,0,1-.469.125,3.912,3.912,0,0,1-.741.08A3.324,3.324,0,0,1,16.7-.116a2.131,2.131,0,0,1-.98-.8,2.39,2.39,0,0,1-.355-1.364Zm12.267,4.4-1.875.2a1.53,1.53,0,0,0-.276-.534,1.408,1.408,0,0,0-.526-.4,1.9,1.9,0,0,0-.807-.153,1.958,1.958,0,0,0-1.077.278.818.818,0,0,0-.429.722.752.752,0,0,0,.281.619,2.351,2.351,0,0,0,.952.392l1.489.318a3.778,3.778,0,0,1,1.844.847,2.023,2.023,0,0,1,.611,1.517,2.37,2.37,0,0,1-.48,1.452,3.109,3.109,0,0,1-1.315.98A4.964,4.964,0,0,1,24.091.17,4.464,4.464,0,0,1,21.511-.5a2.686,2.686,0,0,1-1.165-1.878l2.006-.193a1.413,1.413,0,0,0,.58.892,2.014,2.014,0,0,0,1.153.3,2.072,2.072,0,0,0,1.179-.3.881.881,0,0,0,.446-.744.778.778,0,0,0-.287-.619,2.045,2.045,0,0,0-.889-.375l-1.489-.312a3.528,3.528,0,0,1-1.858-.884,2.155,2.155,0,0,1-.6-1.577,2.239,2.239,0,0,1,.44-1.4,2.872,2.872,0,0,1,1.244-.92,4.839,4.839,0,0,1,1.844-.327,3.986,3.986,0,0,1,2.418.653A2.752,2.752,0,0,1,27.631-6.42Z" transform="matrix(0.985, -0.174, 0.174, 0.985, 16346.042, -111.091)" fill="#170404"/>
  </g>
</svg>
