<svg width="32" height="32" viewBox="0 0 32 32" fill="none" xmlns="http://www.w3.org/2000/svg">
<path d="M12.4824 4.46221C13.519 4.75665 14.4917 5.24169 15.3506 5.89249C16.8097 6.97979 17.897 8.49157 18.4637 10.2208C18.7635 9.7714 19.0996 9.34726 19.4685 8.95261C20.157 8.18228 20.9232 7.48511 21.7549 6.87218C22.527 6.30381 23.4876 5.58065 24.3997 5.80311C25.3118 6.02557 25.6747 7.05769 25.7318 8.1064C25.7827 9.19522 25.6686 10.2855 25.3934 11.3402C24.9952 12.9661 24.1977 14.4671 23.0731 15.7071C23.253 15.7589 23.4295 15.8219 23.6015 15.8958C24.1473 16.146 24.6668 16.4499 25.1523 16.8031C26.0049 17.3864 26.7953 18.0558 27.5109 18.8009C28.1735 19.493 29.0151 20.352 28.9131 21.2851C28.8111 22.2183 27.8356 22.7106 26.8018 22.9049C25.7284 23.096 24.6323 23.1236 23.5507 22.9868C22.1889 22.831 20.8716 22.4061 19.6755 21.7368C19.6789 21.8516 19.6779 21.9658 19.6728 22.0804C19.6264 22.679 19.5213 23.2715 19.359 23.8495C19.1079 24.8512 18.7543 25.8244 18.3036 26.7536C17.883 27.6154 17.3689 28.7028 16.4586 28.9298C15.5484 29.1569 14.7463 28.4123 14.2096 27.5136C13.6581 26.5735 13.2516 25.5554 13.0041 24.4938C12.6715 23.132 12.6195 21.7168 12.8512 20.3343C12.8305 20.3418 12.8089 20.3497 12.7873 20.3575C12.6641 20.3944 12.5389 20.4243 12.4124 20.4472C12.3273 20.4622 12.2416 20.4725 12.1554 20.4779C11.8027 20.5834 11.4377 20.6422 11.0697 20.6528C10.4397 20.647 9.81219 20.5728 9.19818 20.4315C8.09655 20.2147 7.02079 19.8825 5.98867 19.4405C5.6673 19.3031 5.31773 19.1526 4.97936 18.9831C4.26726 18.684 3.67922 18.1499 3.31326 17.4697C3.14023 16.9818 3.13031 16.4508 3.28499 15.9568C3.43967 15.4627 3.7506 15.0322 4.171 14.7301C4.97584 14.014 5.90691 13.4539 6.91668 13.0784C8.10392 12.6286 9.37353 12.4376 10.6406 12.518L10.6799 12.5207C10.5709 12.2741 10.4708 12.0253 10.3753 11.7802C9.96773 10.734 9.67055 9.64805 9.48857 8.54008C9.32235 7.78123 9.27394 7.00131 9.34505 6.22772C9.39408 5.87041 9.52043 5.52809 9.71529 5.2246C10.0317 4.81489 10.4725 4.51902 10.9716 4.38153C11.4706 4.24403 12.0008 4.27235 12.4824 4.46221Z" fill="#ECCED6"/>
<path d="M11.0524 5.68505C11.2648 6.13984 11.4346 6.62395 11.6571 7.08037C11.8796 7.53678 12.0955 7.99244 12.3177 8.44791C12.7636 9.38066 13.1911 10.3243 13.5894 11.284C13.9727 12.2087 14.3204 13.1463 14.6427 14.0932L14.7111 14.2811C14.6108 14.1782 14.5112 14.074 14.4134 13.9691C13.8136 13.3293 13.2639 12.6441 12.7694 11.9198C12.2749 11.1838 11.826 10.4182 11.4252 9.62729C11.233 9.24818 11.0504 8.86343 10.8894 8.47081C10.6862 8.03592 10.5137 7.58736 10.3731 7.12842C10.3711 7.11726 10.365 7.10726 10.3559 7.10044C10.3469 7.09361 10.3355 7.09046 10.3243 7.09161C10.313 7.09276 10.3026 7.09811 10.2951 7.10662C10.2876 7.11513 10.2836 7.12616 10.2838 7.1375C10.2482 7.59385 10.2618 8.05273 10.3244 8.50617C10.411 8.96127 10.5339 9.40868 10.6922 9.84408C11.0078 10.7315 11.4128 11.5846 11.9009 12.3902C12.1904 12.867 12.5037 13.3329 12.8336 13.7832C12.3114 13.5813 11.7731 13.4237 11.2244 13.3122C9.4782 12.9356 7.65401 13.2477 6.13228 14.1833C5.7004 14.4586 5.27193 14.7434 4.8568 15.0413C4.44007 15.3015 4.0797 15.6425 3.79694 16.0443C3.78788 16.0601 3.7836 16.0781 3.78461 16.0963C3.78562 16.1145 3.79189 16.132 3.80263 16.1466C3.81338 16.1613 3.82815 16.1725 3.84517 16.179C3.86218 16.1854 3.88069 16.1868 3.89847 16.1829C4.40477 16.0058 4.88421 15.7597 5.32324 15.4515C5.77561 15.1824 6.25314 14.958 6.74905 14.7815C7.70898 14.3836 8.73848 14.1807 9.77758 14.1847C10.7781 14.2551 11.7566 14.5126 12.6622 14.9438L12.716 14.9689C12.0735 14.83 11.4205 14.7444 10.7638 14.7132C9.89748 14.6869 9.03138 14.7732 8.18725 14.9699C7.36626 15.0959 6.5982 15.4533 5.97314 16.0003C5.96845 16.0049 5.96517 16.0107 5.96371 16.0171C5.96225 16.0235 5.96268 16.0302 5.96492 16.0363C5.96716 16.0425 5.97111 16.0479 5.97634 16.0518C5.98156 16.0558 5.98782 16.0581 5.99435 16.0586C6.77104 15.9845 7.54251 15.8633 8.30451 15.6956C9.11179 15.5929 9.92855 15.5886 10.7369 15.6829C11.5493 15.7817 12.3496 15.9633 13.1252 16.2247C12.7243 16.2344 12.324 16.2464 11.9241 16.2607C11.0151 16.2925 10.1066 16.3401 9.20068 16.4006C8.29473 16.4611 7.40211 16.5231 6.50584 16.6365C5.63898 16.723 4.78547 16.9122 3.96327 17.2001C3.89937 17.2234 3.93828 17.3156 3.99116 17.3177C4.88953 17.3721 5.7905 17.3677 6.68828 17.3044C7.59295 17.2784 8.49677 17.2325 9.40307 17.2198C10.3094 17.207 11.2153 17.2285 12.1234 17.2587C12.4209 17.2689 12.7179 17.2811 13.0146 17.2951C12.3237 17.6871 11.592 18.0023 10.8325 18.2351C10.0521 18.4608 9.23927 18.5541 8.42794 18.5112C7.62628 18.4635 6.86155 18.2161 6.06382 18.1383C6.04985 18.1381 6.03615 18.1421 6.02443 18.1497C6.0127 18.1573 6.00349 18.1682 5.99794 18.181C5.99238 18.1938 5.99072 18.208 5.99318 18.2217C5.99563 18.2355 6.00209 18.2482 6.01174 18.2583C6.66916 18.7998 7.47072 19.1369 8.31751 19.2282C9.21497 19.3955 10.133 19.4222 11.0387 19.3073C11.357 19.2636 11.672 19.198 11.9814 19.111C12.5581 18.9833 13.123 18.8069 13.6699 18.5837C13.459 19.2889 13.3352 20.0172 13.3014 20.7525C13.2348 22.9817 13.7399 25.1909 14.7687 27.1697C14.7985 27.228 14.8746 27.1886 14.8683 27.1334C14.6175 25.0495 14.0809 22.9994 14.3575 20.8853C14.4275 20.3608 14.5543 19.8454 14.7356 19.3483C14.6656 19.7611 14.6112 20.1758 14.5805 20.5945C14.4829 21.9163 14.7182 23.2415 15.2651 24.4488C15.2842 24.5015 15.3623 24.4645 15.359 24.4146C15.1514 23.0483 15.2232 21.6541 15.57 20.3163C15.5674 20.8323 15.5634 21.3478 15.6113 21.8624C15.6043 22.4682 15.6583 23.0732 15.7727 23.6681C15.7747 23.6756 15.7789 23.6822 15.7847 23.6873C15.7904 23.6924 15.7976 23.6958 15.8052 23.6969C15.8128 23.6981 15.8206 23.697 15.8276 23.6939C15.8346 23.6907 15.8406 23.6856 15.8448 23.6791C16.1122 23.1243 16.3097 22.5384 16.4327 21.9349C16.5544 21.5253 16.6462 21.1073 16.7076 20.6844C16.7359 20.9279 16.7515 21.1726 16.7542 21.4177C16.7468 22.3942 16.6552 23.3682 16.4803 24.3289C16.401 24.8154 16.3123 25.3 16.2285 25.786C16.1844 25.9945 16.1517 26.2054 16.1306 26.4175C16.118 26.6754 16.136 26.9178 16.0984 27.1741C16.0947 27.1989 16.1339 27.2102 16.145 27.1881C16.2676 26.9402 16.4426 26.7339 16.566 26.491C16.6646 26.2818 16.7509 26.067 16.8246 25.8478C17.0085 25.3561 17.1614 24.8533 17.2823 24.3425C17.522 23.3393 17.6603 22.3146 17.6951 21.2838L17.697 21.1576C18.0766 22.4697 18.102 23.859 17.7707 25.1842C17.7626 25.2116 17.801 25.2413 17.8215 25.2157C18.311 24.5383 18.6513 23.7648 18.8198 22.9462C18.9883 22.1276 18.9814 21.2826 18.7993 20.4669L18.782 20.3668C19.7469 21.0225 20.7938 21.5484 21.8958 21.9311C22.76 22.218 23.6562 22.3972 24.5642 22.4647C24.6321 22.4698 24.6448 22.3672 24.5827 22.3515C22.9577 21.8696 21.4127 21.1507 19.9975 20.2181C20.4695 20.4156 20.9498 20.5919 21.4268 20.7535C23.3792 21.4346 25.4556 21.6862 27.5141 21.491C27.5397 21.4843 27.5624 21.4695 27.5789 21.4488C27.5953 21.4281 27.6046 21.4027 27.6053 21.3762C27.606 21.3498 27.5981 21.3239 27.5828 21.3023C27.5675 21.2808 27.5456 21.2648 27.5204 21.2568C26.5402 21.099 25.5702 20.8835 24.6155 20.6114C23.6671 20.3182 22.735 19.9747 21.8231 19.5824C20.9069 19.204 20.0166 18.7659 19.1578 18.2708C18.9595 18.1557 18.7651 18.0339 18.5774 17.9042C18.7433 17.9936 18.91 18.0812 19.0775 18.1671C20.5528 19.069 22.2357 19.5751 23.9637 19.6365C24.0525 19.6318 24.124 19.492 24.0184 19.4474C22.5213 18.7474 21.0678 17.9577 19.666 17.0824C19.4454 16.9498 19.2282 16.8161 19.0144 16.681C19.9485 16.9083 20.8788 17.1252 21.8135 17.3543C22.7855 17.5758 23.7334 17.8924 24.6434 18.2994C25.5368 18.7184 26.3965 19.2056 27.2149 19.7568C27.2981 19.8127 27.3794 19.6969 27.3192 19.6252C25.9204 18.0964 24.1448 16.9615 22.17 16.3338C21.6306 16.1353 21.0874 15.9499 20.5418 15.7696C21.0808 15.4865 21.6006 15.1682 22.0978 14.817C22.8124 14.3445 23.4351 13.7461 23.9357 13.0509C24.3887 12.4688 24.6022 11.7355 24.5326 11.0012C24.5301 10.9916 24.5248 10.9829 24.5174 10.9762C24.51 10.9696 24.5009 10.9652 24.491 10.9637C24.4812 10.9622 24.4712 10.9636 24.4621 10.9677C24.4531 10.9718 24.4454 10.9785 24.4401 10.9869C24.125 11.6081 23.7467 12.1951 23.3112 12.7387C22.7849 13.314 22.175 13.8068 21.5021 14.2006C21.1526 14.4098 20.7873 14.6108 20.4175 14.7965C20.9459 14.3358 21.4402 13.8376 21.8968 13.3056C23.1208 11.8822 24.4375 9.98544 24.2634 8.01619C24.264 7.99767 24.2578 7.97956 24.246 7.96528C24.2342 7.95099 24.2176 7.94152 24.1993 7.93864C24.181 7.93576 24.1623 7.93968 24.1466 7.94964C24.131 7.9596 24.1195 7.97493 24.1144 7.99275C23.3683 9.71026 22.3098 11.2744 20.9929 12.6056C20.947 12.6521 20.9002 12.6989 20.854 12.7444C21.2018 12.2796 21.5155 11.7902 21.7927 11.2801C21.9671 10.9721 22.1095 10.6471 22.2177 10.3102C22.3208 9.96196 22.3801 9.6073 22.4621 9.25392C22.4774 9.1877 22.3934 9.12356 22.3409 9.18099C22.112 9.42925 21.8551 9.65044 21.6143 9.88922C21.3756 10.1362 21.1504 10.3957 20.9396 10.6669C20.5077 11.1965 20.0777 11.7255 19.6192 12.2319C19.2035 12.6939 18.7705 13.1406 18.3202 13.572C18.5707 13.0646 18.8501 12.572 19.1571 12.0967C19.6566 11.3084 20.1354 10.5158 20.6935 9.76569C21.264 8.99404 21.8977 8.25577 22.4997 7.5035C22.5459 7.44624 22.492 7.34775 22.4163 7.39126C21.5481 7.90873 20.7429 8.52534 20.017 9.22866C19.2584 9.91811 18.5682 10.6793 17.9561 11.5016C17.5406 12.0733 17.1812 12.6838 16.8829 13.3246C16.7432 12.4687 16.522 11.628 16.2225 10.8141C15.8875 9.83229 15.4272 8.89782 14.853 8.03384C14.5709 7.61267 14.2478 7.22052 13.8884 6.86314C13.5179 6.52644 13.128 6.21175 12.7206 5.92069C12.6531 5.86971 12.5853 5.96994 12.6338 6.02999C13.2306 6.83137 13.741 7.69362 14.1564 8.60235C14.5955 9.47747 14.9502 10.3924 15.2158 11.3348C15.4213 12.0055 15.579 12.6899 15.6878 13.3829C15.3272 12.5032 14.9402 11.6348 14.5268 10.7779C14.0826 9.84671 13.5867 8.9411 13.0415 8.06529C12.7809 7.64187 12.4959 7.23587 12.1974 6.83689C11.8625 6.41899 11.5023 6.02198 11.1188 5.64811C11.1121 5.6445 11.1047 5.64263 11.0971 5.64268C11.0895 5.64272 11.0821 5.64467 11.0755 5.64835C11.0688 5.65204 11.0633 5.65733 11.0592 5.66375C11.0552 5.67016 11.0529 5.67749 11.0524 5.68505Z" fill="#ECBDCA"/>
<path d="M14.9234 14.6774C14.6916 14.4503 14.4234 14.2638 14.1298 14.1255C14.1148 14.1193 14.1026 14.1355 14.1099 14.1498C14.2786 14.4509 14.4993 14.7197 14.7618 14.9437L15.0264 15.206C14.8063 15.1216 14.5844 15.0413 14.3609 14.9651C14.0353 14.8676 13.6988 14.8114 13.3592 14.7976C13.3047 14.794 13.2915 14.8659 13.3311 14.893C13.612 15.095 13.9142 15.2655 14.2324 15.4014C14.5094 15.5134 14.7845 15.6261 15.055 15.7405C14.543 15.6945 14.0283 15.6879 13.5154 15.7209C13.4588 15.7234 13.436 15.8126 13.4989 15.8248C14.0741 15.9432 14.635 16.1158 15.2007 16.2696L15.4358 16.3308C14.828 16.4531 14.2206 16.5795 13.6122 16.6945C13.6003 16.6963 13.5896 16.7027 13.5823 16.7122C13.5749 16.7217 13.5715 16.7337 13.5728 16.7457C13.574 16.7576 13.5797 16.7687 13.5888 16.7765C13.598 16.7844 13.6097 16.7884 13.6217 16.7879C14.2512 16.79 14.8802 16.755 15.5056 16.6832L15.5658 16.6762L15.5709 16.6903C15.4318 16.7729 15.2923 16.8545 15.1518 16.9333C14.6276 17.2241 14.1223 17.5347 13.6097 17.8426C13.5998 17.8479 13.5921 17.8567 13.5881 17.8672C13.5841 17.8778 13.584 17.8894 13.5879 17.9C13.5918 17.9106 13.5993 17.9195 13.6091 17.925C13.619 17.9305 13.6305 17.9322 13.6415 17.93C14.2114 17.8267 14.7666 17.6546 15.295 17.4175C15.0043 17.8295 14.8487 18.3215 14.8498 18.8257C14.8512 18.888 14.9493 18.9119 14.9629 18.8442C15.0671 18.4326 15.2661 18.0512 15.544 17.7302C15.5126 17.9277 15.497 18.1273 15.4973 18.3272C15.5029 18.6114 15.5708 18.8975 15.5957 19.1821C15.5994 19.2244 15.6645 19.2454 15.6767 19.1941C15.7403 18.9305 15.8495 18.6896 15.9324 18.4349C15.9897 18.2619 16.0326 18.0845 16.0768 17.9077L16.0976 18.0555C16.166 18.5914 16.2052 19.1348 16.2468 19.673C16.2461 19.6887 16.2512 19.7041 16.2611 19.7162C16.271 19.7284 16.285 19.7365 16.3005 19.739C16.316 19.7415 16.3319 19.7383 16.3451 19.7298C16.3584 19.7214 16.3681 19.7084 16.3723 19.6933C16.5009 19.3847 16.5939 19.0623 16.6495 18.7326C16.6945 18.8854 16.7366 19.0393 16.7829 19.1927C16.8748 19.4806 16.9463 19.7747 16.9967 20.0726C17.0025 20.112 17.0608 20.1025 17.0633 20.0654C17.0935 19.7545 17.1056 19.442 17.0994 19.1296C17.0835 18.8862 17.0495 18.6442 16.9977 18.4058C17.0294 18.4549 17.0602 18.5044 17.0904 18.5551C17.3601 19.0186 17.5834 19.5077 17.7569 20.0152C17.7634 20.033 17.7957 20.034 17.7938 20.0113C17.7886 19.4709 17.6932 18.9352 17.5117 18.4262L17.7069 18.5882C17.8101 18.6723 17.9197 18.7484 18.0345 18.8159C18.1785 18.8986 18.3483 18.9443 18.4835 19.0409C18.5261 19.0701 18.5663 19.0023 18.5247 18.9727C18.3856 18.848 18.2596 18.7096 18.1486 18.5594C18.0515 18.4532 17.9485 18.3545 17.8448 18.2539C17.6963 18.109 17.5505 17.9598 17.4069 17.8109L17.7854 18.0584C18.044 18.2379 18.3128 18.4023 18.5903 18.5508C18.7327 18.6224 18.8797 18.6845 19.0304 18.7365C19.1719 18.7776 19.3185 18.7984 19.4658 18.7983C19.4703 18.7982 19.4746 18.7968 19.4784 18.7942C19.4821 18.7917 19.4851 18.7882 19.4869 18.7841C19.4887 18.78 19.4894 18.7755 19.4887 18.771C19.4881 18.7666 19.4863 18.7624 19.4834 18.7589C19.2634 18.5645 19.0337 18.3813 18.7952 18.2102C18.5287 18.0188 18.2606 17.8291 17.9983 17.6319C17.8756 17.5403 17.7531 17.4434 17.6276 17.3412C17.8101 17.3564 17.9915 17.3832 18.1707 17.4212C18.6543 17.5432 19.1275 17.7033 19.5858 17.9001C19.6223 17.9156 19.6524 17.8609 19.6248 17.8348C19.2469 17.4823 18.8093 17.1999 18.3325 17.0005C18.3852 16.9813 18.4402 16.9688 18.4923 16.9541C18.9383 16.8258 19.3672 16.6356 19.8142 16.5219C19.8253 16.5189 19.8349 16.5121 19.8414 16.5027C19.8479 16.4933 19.8508 16.4819 19.8496 16.4705C19.8484 16.4591 19.8432 16.4485 19.8349 16.4407C19.8266 16.4328 19.8158 16.4281 19.8044 16.4275C19.3281 16.42 18.8218 16.3595 18.3196 16.3656C18.6759 16.1763 19.0072 15.9435 19.306 15.6724C19.3096 15.6682 19.3119 15.6631 19.3124 15.6576C19.313 15.6521 19.3118 15.6466 19.3091 15.6417C19.3064 15.6369 19.3024 15.633 19.2974 15.6306C19.2925 15.6282 19.2869 15.6273 19.2814 15.6282C18.9639 15.7027 18.6524 15.8004 18.3492 15.9207L18.4721 15.8195C18.8822 15.4606 19.2369 15.0428 19.5245 14.5798C19.5295 14.5709 19.5315 14.5605 19.5302 14.5503C19.5289 14.5401 19.5244 14.5306 19.5173 14.5232C19.5102 14.5158 19.5009 14.5108 19.4908 14.5091C19.4806 14.5074 19.4702 14.5089 19.461 14.5135C19.0214 14.7929 18.6 15.0998 18.1992 15.4325C18.5873 14.9243 18.9163 14.3736 19.18 13.7911C19.1826 13.7821 19.1824 13.7725 19.1796 13.7636C19.1767 13.7547 19.1712 13.7469 19.1639 13.7411C19.1565 13.7353 19.1476 13.7319 19.1382 13.7312C19.1289 13.7305 19.1196 13.7326 19.1114 13.7373C18.8681 13.9049 18.6408 14.0945 18.4322 14.3038C18.2142 14.5321 18.0013 14.766 17.7882 14.999L17.6831 15.1138C17.668 14.9086 17.6666 14.7025 17.6789 14.4971C17.6899 14.3664 17.72 14.2416 17.7402 14.1129C17.7543 13.955 17.7774 13.7981 17.8096 13.6428C17.8121 13.6322 17.8112 13.621 17.8069 13.6109C17.8026 13.6008 17.7953 13.5923 17.7859 13.5866C17.7765 13.5809 17.7656 13.5784 17.7546 13.5793C17.7437 13.5802 17.7333 13.5845 17.725 13.5917C17.5179 13.7666 17.351 13.9842 17.2357 14.2295C17.127 14.4887 17.053 14.7611 17.0155 15.0397C17.0082 15.0839 17.0034 15.1292 16.9983 15.1737C16.9436 15.0382 16.8894 14.9036 16.8408 14.7702C16.7662 14.5653 16.6964 14.3588 16.6262 14.1513C16.5552 13.9592 16.4514 13.7809 16.3195 13.6244C16.2723 13.5649 16.1569 13.6251 16.1845 13.698C16.2344 13.9014 16.2624 14.1096 16.2679 14.3189C16.3001 14.5477 16.3442 14.7743 16.395 14.9984C16.4245 15.1292 16.4537 15.2622 16.4865 15.3961C16.3726 15.2533 16.2668 15.1043 16.1697 14.9495C15.8886 14.5049 15.641 14.0555 15.3239 13.6345C15.2773 13.5738 15.1835 13.6377 15.1989 13.7034C15.3229 14.2531 15.527 14.7815 15.8049 15.2718C15.8541 15.3603 15.9031 15.4393 15.9553 15.5214C15.8741 15.4679 15.7935 15.4132 15.7147 15.3546C15.4516 15.1375 15.1881 14.9046 14.9234 14.6774Z" fill="#EC7D9C"/>
<path d="M14.7696 15.4187C14.5406 15.718 14.3996 16.0753 14.3622 16.4503C14.3248 16.8254 14.3927 17.2034 14.5581 17.5421C14.6863 17.7847 14.8661 17.9963 15.0849 18.162C15.3036 18.3276 15.5561 18.4433 15.8244 18.5008C16.0684 18.606 16.3328 18.6551 16.5983 18.6448C16.7169 18.6376 16.8343 18.6167 16.9481 18.5824C17.4488 18.462 17.9006 18.191 18.2426 17.8058C18.5232 17.5109 18.6879 17.1244 18.7063 16.7177C18.7246 16.3109 18.5954 15.9112 18.3425 15.5922C18.1479 15.3048 17.8891 15.0667 17.5865 14.8966C17.284 14.7266 16.946 14.6293 16.5994 14.6125C16.2528 14.5956 15.907 14.6597 15.5894 14.7996C15.2718 14.9396 14.9912 15.1515 14.7696 15.4187Z" fill="#965063"/>
</svg>
