<svg xmlns="http://www.w3.org/2000/svg" width="172" height="36.877" viewBox="0 0 172 36.877">
  <g id="Layer_2_00000124151972497254884930000016882608232990048921_" transform="translate(-9.008 -8)">
    <g id="Layer_3" transform="translate(9.008 8)">
      <path id="Path_2" d="M81.591,39.875,75.4,21.1h3.1l4.643,14.468h-.808L86.84,21.1h2.153L93.5,35.568h-.808L97.338,21.1h3.028L94.175,39.875H92.021l-4.576-14.4h.808l-4.509,14.4Z" transform="translate(-30.719 -12.285)" fill="#fff"/>
      <path id="Path_3" d="M118.78,42.859a7.109,7.109,0,0,1-3.5-.875,6,6,0,0,1-2.423-2.423,6.937,6.937,0,0,1,0-6.864,6.583,6.583,0,0,1,5.787-3.3,6.32,6.32,0,0,1,3.163.808,5.426,5.426,0,0,1,2.153,2.288,7.027,7.027,0,0,1,.808,3.3,2.289,2.289,0,0,1-.067.673,3.473,3.473,0,0,1-.135.74H114V34.783h9.017l-1.077.942a3.982,3.982,0,0,0-.471-1.952,2.851,2.851,0,0,0-1.144-1.211,3.43,3.43,0,0,0-1.817-.4,3.982,3.982,0,0,0-1.952.471,3.5,3.5,0,0,0-1.279,1.346,4.509,4.509,0,0,0-.471,2.086,4.326,4.326,0,0,0,.471,2.086,3.886,3.886,0,0,0,1.346,1.413,3.583,3.583,0,0,0,2.019.471,5.439,5.439,0,0,0,1.817-.336,4.191,4.191,0,0,0,1.413-1.009l1.884,1.884a6.325,6.325,0,0,1-2.288,1.682,6.071,6.071,0,0,1-2.692.606Z" transform="translate(-42.674 -14.999)" fill="#fff"/>
      <path id="Path_4" d="M134.4,39.613V20.3h2.961v9.623l-.538,3.1.538,3.163v3.432Zm6.931.269a5.786,5.786,0,0,1-2.624-.606,5.022,5.022,0,0,1-1.817-1.75,4.619,4.619,0,0,1-.673-2.49v-3.7a4.619,4.619,0,0,1,.673-2.49,4.891,4.891,0,0,1,4.441-2.355,5.749,5.749,0,0,1,3.163.875,6.418,6.418,0,0,1,2.221,2.423,7.554,7.554,0,0,1,0,6.8,6.418,6.418,0,0,1-2.221,2.423,6.574,6.574,0,0,1-3.163.875Zm-.471-2.826a3.568,3.568,0,0,0,1.884-.471,3.255,3.255,0,0,0,1.279-1.413,4.864,4.864,0,0,0,0-4.1,3.676,3.676,0,0,0-1.279-1.413,3.042,3.042,0,0,0-1.884-.471,3.568,3.568,0,0,0-1.884.471,3.255,3.255,0,0,0-1.279,1.413,4.863,4.863,0,0,0,0,4.1,3.255,3.255,0,0,0,1.279,1.413,3.568,3.568,0,0,0,1.884.471Z" transform="translate(-50.016 -12.023)" fill="#fff"/>
      <path id="Path_5" d="M163.013,42.887a6.685,6.685,0,0,1-3.432-.875,6.959,6.959,0,0,1-2.423-2.423,6.81,6.81,0,0,1,0-6.8,6.959,6.959,0,0,1,2.423-2.423,7.3,7.3,0,0,1,6.258-.336,6.753,6.753,0,0,1,2.221,1.615L166.109,33.6a2.867,2.867,0,0,0-1.346-1.009,5.055,5.055,0,0,0-1.75-.336,3.982,3.982,0,0,0-1.952.471,4.283,4.283,0,0,0-1.346,1.346,4.713,4.713,0,0,0,0,4.038,3.239,3.239,0,0,0,1.346,1.346,3.367,3.367,0,0,0,1.952.471,5.055,5.055,0,0,0,1.75-.336,2.867,2.867,0,0,0,1.346-1.009l1.952,1.952a5.274,5.274,0,0,1-2.221,1.615A5.232,5.232,0,0,1,163.013,42.887Z" transform="translate(-57.163 -15.028)" fill="#fff"/>
      <path id="Path_6" d="M176.9,39.613V20.3h2.961V39.613Zm8.815,0v-7.4a2.9,2.9,0,0,0-.808-2.086,2.735,2.735,0,0,0-2.086-.808,3.126,3.126,0,0,0-1.548.4,2.233,2.233,0,0,0-1.009,1.077,3.126,3.126,0,0,0-.4,1.548l-1.144-.673a5.088,5.088,0,0,1,.673-2.624,4.783,4.783,0,0,1,4.307-2.49,4.85,4.85,0,0,1,2.557.673A4.156,4.156,0,0,1,188,29.048a5.261,5.261,0,0,1,.673,2.624v8.075h-2.961Z" transform="translate(-63.916 -12.023)" fill="#fff"/>
      <path id="Path_7" d="M200.266,24.583a1.576,1.576,0,0,1-1.211-.538,1.761,1.761,0,1,1,2.49,0A1.409,1.409,0,0,1,200.266,24.583Zm-1.48,15.276V26.938h2.961v12.92Z" transform="translate(-70.997 -12.268)" fill="#fff"/>
      <path id="Path_8" d="M208.2,42.554V29.634h2.961v12.92Zm2.961-7.2-1.009-.538a6.934,6.934,0,0,1,1.077-3.97,3.9,3.9,0,0,1,3.3-1.548,3.858,3.858,0,0,1,3.163,1.48l-1.952,1.952a1.716,1.716,0,0,0-.808-.538,3.075,3.075,0,0,0-3.028.606,4.043,4.043,0,0,0-.74,2.557Z" transform="translate(-74.154 -14.964)" fill="#fff"/>
      <path id="Path_9" d="M224.4,47.933V29.7h2.961v3.5l-.471,3.163.538,3.1V48l-3.028-.067Zm6.864-5.047a5.786,5.786,0,0,1-2.624-.606,5.023,5.023,0,0,1-1.817-1.75,4.619,4.619,0,0,1-.673-2.49v-3.7a4.619,4.619,0,0,1,.673-2.49,4.891,4.891,0,0,1,4.441-2.355,5.749,5.749,0,0,1,3.163.875,6.418,6.418,0,0,1,2.221,2.423,7.554,7.554,0,0,1,0,6.8,5.952,5.952,0,0,1-5.383,3.3Zm-.471-2.826a3.568,3.568,0,0,0,1.884-.471,3.255,3.255,0,0,0,1.279-1.413,4.864,4.864,0,0,0,0-4.1,3.675,3.675,0,0,0-1.279-1.413,3.042,3.042,0,0,0-1.884-.471,3.568,3.568,0,0,0-1.884.471,3.255,3.255,0,0,0-1.279,1.413,4.864,4.864,0,0,0,0,4.1,3.255,3.255,0,0,0,1.279,1.413A3.568,3.568,0,0,0,230.793,40.06Z" transform="translate(-79.452 -15.027)" fill="#fff"/>
      <path id="Path_10" d="M250.318,42.888,244.8,29.9h3.23l3.768,9.556h-.942l3.97-9.556h3.3l-5.989,12.988Zm-3.836,5.182,3.97-8.21,1.682,3.028-2.355,5.249-3.3-.067Z" transform="translate(-86.124 -15.163)" fill="#fff"/>
      <path id="Path_11" d="M59.819,45.238A2.025,2.025,0,0,1,57.8,43.219,2.07,2.07,0,0,1,59.819,41.2a2.025,2.025,0,0,1,2.019,2.019h0A1.982,1.982,0,0,1,59.819,45.238Z" transform="translate(-24.963 -18.859)" fill="#fff" fill-rule="evenodd"/>
      <path id="Path_12" d="M35.717,31.485c.067-.067.2-.135.269-.269.4-.4.808-.875,1.211-1.279a3.109,3.109,0,0,1,.471-.471.066.066,0,0,0,.067-.067,12.379,12.379,0,0,0,1.144-1.48c.135-.2.269-.336.336-.471l1.48-2.423h0c1.211-2.355,1.48-4.374.538-5.383a2.686,2.686,0,0,0-2.221-.673,9.638,9.638,0,0,0-3.1.875,24.631,24.631,0,0,0-6.8,4.711l-.336.336c-.067.067-.135.067-.135.135q-1.009,1.009-2.221,2.423l-.067.067a51.362,51.362,0,0,0-3.634,4.711c-.4.606-.942,1.615-1.548,2.49a3.667,3.667,0,0,1-5.114,1.346,3.761,3.761,0,0,1-1.884-3.23v-.269a7.958,7.958,0,0,1,.336-2.826,8.987,8.987,0,0,1,.471-1.211,27.413,27.413,0,0,1,9.488-11.507,19.93,19.93,0,0,1,9.287-4.038,4.123,4.123,0,0,1,1.75-.269,9.342,9.342,0,0,1,6.931,2.826,13.91,13.91,0,0,0-1.817-3.028,10.6,10.6,0,0,0-7.066-4.374A13.139,13.139,0,0,0,32.015,8a10.844,10.844,0,0,0-2.961.4,24.831,24.831,0,0,0-8.883,4.576,35.436,35.436,0,0,0-7.268,7.6,19.211,19.211,0,0,0-3.768,8.748,9.288,9.288,0,0,0,2.086,7.537,9.143,9.143,0,0,0,6.931,3.1h.2c.875,0,2.086-.673,2.355.4.4,1.682,1.009,3.634,3.1,4.172a9.05,9.05,0,0,0,2.355.336,15.233,15.233,0,0,0,3.9-.606A25.131,25.131,0,0,0,40.831,38.08a2.154,2.154,0,0,0,.4-3.028.066.066,0,0,0-.067-.067,2,2,0,0,0-1.346-.673,1.827,1.827,0,0,0-1.144.4,6.475,6.475,0,0,0-1.144.875c-.269.2-.538.471-.808.673A19.5,19.5,0,0,1,26.5,40.974h-.269a1.5,1.5,0,0,1-.673-2.826h.067l.067-.067.538-.2a29.877,29.877,0,0,0,9.488-6.393ZM32.083,29.8c-3.432,3.23-6.662,5.316-6.931,5.047s2.019-3.5,5.451-6.8,6.8-5.316,7.066-5.047-2.086,3.567-5.585,6.8Z" transform="translate(-9.003 -8)" fill="#fff" fill-rule="evenodd"/>
    </g>
  </g>
</svg>
