<svg xmlns="http://www.w3.org/2000/svg" xmlns:xlink="http://www.w3.org/1999/xlink" width="1367" height="70" viewBox="0 0 1367 70">
  <defs>
    <clipPath id="clip-path">
      <rect id="Rectangle_8015" data-name="Rectangle 8015" width="1367" height="70" transform="translate(0 1988)" fill="#b8dfd8"/>
    </clipPath>
    <clipPath id="clip-path-2">
      <rect id="Rectangle_7351" data-name="Rectangle 7351" width="493.75" height="70.067" fill="#fec580"/>
    </clipPath>
    <clipPath id="clip-path-3">
      <rect id="Rectangle_7350" data-name="Rectangle 7350" width="493.75" height="70.067" transform="translate(0 0)" fill="#fec580"/>
    </clipPath>
    <clipPath id="clip-path-4">
      <rect id="Rectangle_7347" data-name="Rectangle 7347" width="493.75" height="4.995" transform="translate(0 4.918)" fill="#fec580"/>
    </clipPath>
  </defs>
  <g id="Mask_Group_28" data-name="Mask Group 28" transform="translate(0 -1988)" clip-path="url(#clip-path)">
    <g id="Group_4464" data-name="Group 4464" transform="translate(56.25 -30.185)">
      <g id="Group_4461" data-name="Group 4461" transform="translate(871.25 2017.933)">
        <g id="Group_4460" data-name="Group 4460" clip-path="url(#clip-path-2)">
          <g id="Group_4459" data-name="Group 4459">
            <g id="Group_4458" data-name="Group 4458" clip-path="url(#clip-path-3)">
              <path id="Path_2260" data-name="Path 2260" d="M13.219,70.067c.017-13.764.045-37.206.045-37.283,0-8.026,6.773-14.531,15.127-14.531s15.128,6.5,15.128,14.531c0,.126-.008,23.534-.012,37.283H76.119c.016-13.764.045-37.206.045-37.283,0-8.026,6.772-14.531,15.127-14.531s15.128,6.5,15.128,14.531c0,.126-.009,23.534-.011,37.283H139.02c.015-13.764.045-37.206.045-37.283,0-8.026,6.771-14.531,15.127-14.531s15.126,6.5,15.126,14.531c0,.126-.006,23.534-.01,37.283h32.61c.018-13.764.046-37.206.046-37.283,0-8.026,6.773-14.531,15.126-14.531s15.128,6.5,15.128,14.531c0,.126-.007,23.534-.009,37.283h28.22c.019-13.764.047-37.206.047-37.283,0-8.026,6.772-14.531,15.125-14.531s15.128,6.5,15.128,14.531c0,.126-.006,23.534-.011,37.283H323.33c.016-13.764.043-37.206.043-37.283,0-8.026,6.775-14.531,15.128-14.531s15.129,6.5,15.129,14.531c0,.126-.009,23.534-.012,37.283H386.23c.015-13.764.044-37.206.044-37.283,0-8.026,6.772-14.531,15.127-14.531s15.129,6.5,15.129,14.531c0,.126-.008,23.534-.013,37.283h32.611c.019-13.764.046-37.206.046-37.283,0-8.026,6.774-14.531,15.127-14.531s15.129,6.5,15.129,14.531c0,.126-.008,23.534-.011,37.283H493.75V3.971H0v66.1Z" fill="#ff724b"/>
              <path id="Path_2261" data-name="Path 2261" d="M140.54,70.067l0-2.542c.018-13.917.043-35.02.043-35.092,0-7.237,6.155-13.126,13.722-13.126S168.03,25.2,168.03,32.433c0,.127-.007,23.937-.012,37.634h2.81c0-13.7.012-37.507.012-37.634,0-8.787-7.416-15.936-16.532-15.936s-16.533,7.149-16.533,15.936c0,.119-.024,21.189-.043,35.088v2.546Z" fill="#fec580"/>
              <path id="Path_2262" data-name="Path 2262" d="M77.641,70.067c.018-13.714.045-37.557.045-37.634,0-7.237,6.156-13.126,13.723-13.126s13.722,5.889,13.722,13.126c0,.127-.008,23.937-.011,37.634h2.809c0-13.7.011-37.507.011-37.634,0-8.787-7.416-15.936-16.531-15.936S74.875,23.646,74.875,32.433c0,.127-.028,23.938-.045,37.634Z" fill="#fec580"/>
              <path id="Path_2263" data-name="Path 2263" d="M203.44,70.067c.017-13.714.045-37.557.045-37.634,0-7.237,6.155-13.126,13.723-13.126S230.93,25.2,230.93,32.433c0,.127-.007,23.937-.011,37.634h2.81c0-13.7.011-37.507.011-37.634,0-8.787-7.416-15.936-16.532-15.936s-16.535,7.149-16.535,15.936c0,.127-.027,23.938-.043,37.634Z" fill="#fec580"/>
              <path id="Path_2264" data-name="Path 2264" d="M14.74,70.067l0-2.542c.016-13.917.042-35.02.042-35.092,0-7.237,6.157-13.126,13.722-13.126S42.231,25.2,42.231,32.433c0,.127-.008,23.937-.012,37.634H45.03c0-13.7.011-37.507.011-37.634,0-8.787-7.416-15.936-16.533-15.936S11.975,23.646,11.975,32.433c0,.119-.025,21.189-.042,35.088l0,2.546Z" fill="#fec580"/>
              <path id="Path_2265" data-name="Path 2265" d="M450.651,70.067l.024-20.3c.011-9.35.02-17.294.02-17.338,0-7.237,6.156-13.126,13.724-13.126S478.14,25.2,478.14,32.433l-.01,37.634h2.81l.011-37.634c0-8.787-7.418-15.936-16.532-15.936s-16.535,7.149-16.535,15.936c0,.072-.008,8-.019,17.334l-.024,20.3Z" fill="#fec580"/>
              <path id="Path_2266" data-name="Path 2266" d="M324.852,70.067l.023-20.3c.011-9.35.021-17.294.021-17.338,0-7.237,6.156-13.126,13.723-13.126s13.724,5.889,13.724,13.126l-.013,37.634h2.811l.01-37.634c0-8.787-7.416-15.936-16.532-15.936s-16.534,7.149-16.534,15.936c0,.072-.008,8-.02,17.334l-.023,20.3Z" fill="#fec580"/>
              <path id="Path_2267" data-name="Path 2267" d="M387.752,70.067l.037-31.739c0-3.572.007-5.872.007-5.9,0-7.237,6.154-13.126,13.722-13.126s13.721,5.889,13.721,13.126c0,.127,0,23.937-.011,37.634h2.81c.006-13.7.013-37.507.013-37.634,0-8.787-7.418-15.936-16.533-15.936s-16.533,7.149-16.533,15.936l-.043,37.634Z" fill="#fec580"/>
              <path id="Path_2268" data-name="Path 2268" d="M261.952,70.067l.015-11.9c.013-12.425.029-25.675.029-25.733,0-7.237,6.156-13.126,13.724-13.126s13.721,5.889,13.721,13.126c0,.127-.007,23.937-.011,37.634h2.81c0-13.7.012-37.507.012-37.634,0-8.787-7.417-15.936-16.532-15.936s-16.533,7.149-16.533,15.936c0,.094-.017,13.324-.031,25.73l-.014,11.9Z" fill="#fec580"/>
              <rect id="Rectangle_7345" data-name="Rectangle 7345" width="493.75" height="2.811" transform="translate(0 2.215)" fill="#fec580"/>
              <g id="Group_4457" data-name="Group 4457" opacity="0.8" style="mix-blend-mode: multiply;isolation: isolate">
                <g id="Group_4456" data-name="Group 4456">
                  <g id="Group_4455" data-name="Group 4455" clip-path="url(#clip-path-4)">
                    <rect id="Rectangle_7346" data-name="Rectangle 7346" width="493.75" height="4.995" transform="translate(0 4.918)" fill="#fec580"/>
                  </g>
                </g>
              </g>
              <rect id="Rectangle_7348" data-name="Rectangle 7348" width="493.75" height="3.689" transform="translate(0 2.185)" fill="#fec580"/>
              <rect id="Rectangle_7349" data-name="Rectangle 7349" width="493.75" height="3.689" transform="translate(0 -0.001)" fill="#fec580"/>
            </g>
          </g>
        </g>
      </g>
      <g id="Group_4462" data-name="Group 4462" transform="translate(379.5 2017.933)">
        <g id="Group_4460-2" data-name="Group 4460" clip-path="url(#clip-path-2)">
          <g id="Group_4459-2" data-name="Group 4459">
            <g id="Group_4458-2" data-name="Group 4458" clip-path="url(#clip-path-3)">
              <path id="Path_2260-2" data-name="Path 2260" d="M13.219,70.067c.017-13.764.045-37.206.045-37.283,0-8.026,6.773-14.531,15.127-14.531s15.128,6.5,15.128,14.531c0,.126-.008,23.534-.012,37.283H76.119c.016-13.764.045-37.206.045-37.283,0-8.026,6.772-14.531,15.127-14.531s15.128,6.5,15.128,14.531c0,.126-.009,23.534-.011,37.283H139.02c.015-13.764.045-37.206.045-37.283,0-8.026,6.771-14.531,15.127-14.531s15.126,6.5,15.126,14.531c0,.126-.006,23.534-.01,37.283h32.61c.018-13.764.046-37.206.046-37.283,0-8.026,6.773-14.531,15.126-14.531s15.128,6.5,15.128,14.531c0,.126-.007,23.534-.009,37.283h28.22c.019-13.764.047-37.206.047-37.283,0-8.026,6.772-14.531,15.125-14.531s15.128,6.5,15.128,14.531c0,.126-.006,23.534-.011,37.283H323.33c.016-13.764.043-37.206.043-37.283,0-8.026,6.775-14.531,15.128-14.531s15.129,6.5,15.129,14.531c0,.126-.009,23.534-.012,37.283H386.23c.015-13.764.044-37.206.044-37.283,0-8.026,6.772-14.531,15.127-14.531s15.129,6.5,15.129,14.531c0,.126-.008,23.534-.013,37.283h32.611c.019-13.764.046-37.206.046-37.283,0-8.026,6.774-14.531,15.127-14.531s15.129,6.5,15.129,14.531c0,.126-.008,23.534-.011,37.283H493.75V3.971H0v66.1Z" fill="#ff724b"/>
              <path id="Path_2261-2" data-name="Path 2261" d="M140.54,70.067l0-2.542c.018-13.917.043-35.02.043-35.092,0-7.237,6.155-13.126,13.722-13.126S168.03,25.2,168.03,32.433c0,.127-.007,23.937-.012,37.634h2.81c0-13.7.012-37.507.012-37.634,0-8.787-7.416-15.936-16.532-15.936s-16.533,7.149-16.533,15.936c0,.119-.024,21.189-.043,35.088v2.546Z" fill="#fec580"/>
              <path id="Path_2262-2" data-name="Path 2262" d="M77.641,70.067c.018-13.714.045-37.557.045-37.634,0-7.237,6.156-13.126,13.723-13.126s13.722,5.889,13.722,13.126c0,.127-.008,23.937-.011,37.634h2.809c0-13.7.011-37.507.011-37.634,0-8.787-7.416-15.936-16.531-15.936S74.875,23.646,74.875,32.433c0,.127-.028,23.938-.045,37.634Z" fill="#fec580"/>
              <path id="Path_2263-2" data-name="Path 2263" d="M203.44,70.067c.017-13.714.045-37.557.045-37.634,0-7.237,6.155-13.126,13.723-13.126S230.93,25.2,230.93,32.433c0,.127-.007,23.937-.011,37.634h2.81c0-13.7.011-37.507.011-37.634,0-8.787-7.416-15.936-16.532-15.936s-16.535,7.149-16.535,15.936c0,.127-.027,23.938-.043,37.634Z" fill="#fec580"/>
              <path id="Path_2264-2" data-name="Path 2264" d="M14.74,70.067l0-2.542c.016-13.917.042-35.02.042-35.092,0-7.237,6.157-13.126,13.722-13.126S42.231,25.2,42.231,32.433c0,.127-.008,23.937-.012,37.634H45.03c0-13.7.011-37.507.011-37.634,0-8.787-7.416-15.936-16.533-15.936S11.975,23.646,11.975,32.433c0,.119-.025,21.189-.042,35.088l0,2.546Z" fill="#fec580"/>
              <path id="Path_2265-2" data-name="Path 2265" d="M450.651,70.067l.024-20.3c.011-9.35.02-17.294.02-17.338,0-7.237,6.156-13.126,13.724-13.126S478.14,25.2,478.14,32.433l-.01,37.634h2.81l.011-37.634c0-8.787-7.418-15.936-16.532-15.936s-16.535,7.149-16.535,15.936c0,.072-.008,8-.019,17.334l-.024,20.3Z" fill="#fec580"/>
              <path id="Path_2266-2" data-name="Path 2266" d="M324.852,70.067l.023-20.3c.011-9.35.021-17.294.021-17.338,0-7.237,6.156-13.126,13.723-13.126s13.724,5.889,13.724,13.126l-.013,37.634h2.811l.01-37.634c0-8.787-7.416-15.936-16.532-15.936s-16.534,7.149-16.534,15.936c0,.072-.008,8-.02,17.334l-.023,20.3Z" fill="#fec580"/>
              <path id="Path_2267-2" data-name="Path 2267" d="M387.752,70.067l.037-31.739c0-3.572.007-5.872.007-5.9,0-7.237,6.154-13.126,13.722-13.126s13.721,5.889,13.721,13.126c0,.127,0,23.937-.011,37.634h2.81c.006-13.7.013-37.507.013-37.634,0-8.787-7.418-15.936-16.533-15.936s-16.533,7.149-16.533,15.936l-.043,37.634Z" fill="#fec580"/>
              <path id="Path_2268-2" data-name="Path 2268" d="M261.952,70.067l.015-11.9c.013-12.425.029-25.675.029-25.733,0-7.237,6.156-13.126,13.724-13.126s13.721,5.889,13.721,13.126c0,.127-.007,23.937-.011,37.634h2.81c0-13.7.012-37.507.012-37.634,0-8.787-7.417-15.936-16.532-15.936s-16.533,7.149-16.533,15.936c0,.094-.017,13.324-.031,25.73l-.014,11.9Z" fill="#fec580"/>
              <rect id="Rectangle_7345-2" data-name="Rectangle 7345" width="493.75" height="2.811" transform="translate(0 2.215)" fill="#fec580"/>
              <g id="Group_4457-2" data-name="Group 4457" opacity="0.8" style="mix-blend-mode: multiply;isolation: isolate">
                <g id="Group_4456-2" data-name="Group 4456">
                  <g id="Group_4455-2" data-name="Group 4455" clip-path="url(#clip-path-4)">
                    <rect id="Rectangle_7346-2" data-name="Rectangle 7346" width="493.75" height="4.995" transform="translate(0 4.918)" fill="#fec580"/>
                  </g>
                </g>
              </g>
              <rect id="Rectangle_7348-2" data-name="Rectangle 7348" width="493.75" height="3.689" transform="translate(0 2.185)" fill="#fec580"/>
              <rect id="Rectangle_7349-2" data-name="Rectangle 7349" width="493.75" height="3.689" transform="translate(0 -0.001)" fill="#fec580"/>
            </g>
          </g>
        </g>
      </g>
      <g id="Group_4463" data-name="Group 4463" transform="translate(-113.25 2017.933)">
        <g id="Group_4460-3" data-name="Group 4460" clip-path="url(#clip-path-2)">
          <g id="Group_4459-3" data-name="Group 4459">
            <g id="Group_4458-3" data-name="Group 4458" clip-path="url(#clip-path-3)">
              <path id="Path_2260-3" data-name="Path 2260" d="M13.219,70.067c.017-13.764.045-37.206.045-37.283,0-8.026,6.773-14.531,15.127-14.531s15.128,6.5,15.128,14.531c0,.126-.008,23.534-.012,37.283H76.119c.016-13.764.045-37.206.045-37.283,0-8.026,6.772-14.531,15.127-14.531s15.128,6.5,15.128,14.531c0,.126-.009,23.534-.011,37.283H139.02c.015-13.764.045-37.206.045-37.283,0-8.026,6.771-14.531,15.127-14.531s15.126,6.5,15.126,14.531c0,.126-.006,23.534-.01,37.283h32.61c.018-13.764.046-37.206.046-37.283,0-8.026,6.773-14.531,15.126-14.531s15.128,6.5,15.128,14.531c0,.126-.007,23.534-.009,37.283h28.22c.019-13.764.047-37.206.047-37.283,0-8.026,6.772-14.531,15.125-14.531s15.128,6.5,15.128,14.531c0,.126-.006,23.534-.011,37.283H323.33c.016-13.764.043-37.206.043-37.283,0-8.026,6.775-14.531,15.128-14.531s15.129,6.5,15.129,14.531c0,.126-.009,23.534-.012,37.283H386.23c.015-13.764.044-37.206.044-37.283,0-8.026,6.772-14.531,15.127-14.531s15.129,6.5,15.129,14.531c0,.126-.008,23.534-.013,37.283h32.611c.019-13.764.046-37.206.046-37.283,0-8.026,6.774-14.531,15.127-14.531s15.129,6.5,15.129,14.531c0,.126-.008,23.534-.011,37.283H493.75V3.971H0v66.1Z" fill="#ff724b"/>
              <path id="Path_2261-3" data-name="Path 2261" d="M140.54,70.067l0-2.542c.018-13.917.043-35.02.043-35.092,0-7.237,6.155-13.126,13.722-13.126S168.03,25.2,168.03,32.433c0,.127-.007,23.937-.012,37.634h2.81c0-13.7.012-37.507.012-37.634,0-8.787-7.416-15.936-16.532-15.936s-16.533,7.149-16.533,15.936c0,.119-.024,21.189-.043,35.088v2.546Z" fill="#fec580"/>
              <path id="Path_2262-3" data-name="Path 2262" d="M77.641,70.067c.018-13.714.045-37.557.045-37.634,0-7.237,6.156-13.126,13.723-13.126s13.722,5.889,13.722,13.126c0,.127-.008,23.937-.011,37.634h2.809c0-13.7.011-37.507.011-37.634,0-8.787-7.416-15.936-16.531-15.936S74.875,23.646,74.875,32.433c0,.127-.028,23.938-.045,37.634Z" fill="#fec580"/>
              <path id="Path_2263-3" data-name="Path 2263" d="M203.44,70.067c.017-13.714.045-37.557.045-37.634,0-7.237,6.155-13.126,13.723-13.126S230.93,25.2,230.93,32.433c0,.127-.007,23.937-.011,37.634h2.81c0-13.7.011-37.507.011-37.634,0-8.787-7.416-15.936-16.532-15.936s-16.535,7.149-16.535,15.936c0,.127-.027,23.938-.043,37.634Z" fill="#fec580"/>
              <path id="Path_2264-3" data-name="Path 2264" d="M14.74,70.067l0-2.542c.016-13.917.042-35.02.042-35.092,0-7.237,6.157-13.126,13.722-13.126S42.231,25.2,42.231,32.433c0,.127-.008,23.937-.012,37.634H45.03c0-13.7.011-37.507.011-37.634,0-8.787-7.416-15.936-16.533-15.936S11.975,23.646,11.975,32.433c0,.119-.025,21.189-.042,35.088l0,2.546Z" fill="#fec580"/>
              <path id="Path_2265-3" data-name="Path 2265" d="M450.651,70.067l.024-20.3c.011-9.35.02-17.294.02-17.338,0-7.237,6.156-13.126,13.724-13.126S478.14,25.2,478.14,32.433l-.01,37.634h2.81l.011-37.634c0-8.787-7.418-15.936-16.532-15.936s-16.535,7.149-16.535,15.936c0,.072-.008,8-.019,17.334l-.024,20.3Z" fill="#fec580"/>
              <path id="Path_2266-3" data-name="Path 2266" d="M324.852,70.067l.023-20.3c.011-9.35.021-17.294.021-17.338,0-7.237,6.156-13.126,13.723-13.126s13.724,5.889,13.724,13.126l-.013,37.634h2.811l.01-37.634c0-8.787-7.416-15.936-16.532-15.936s-16.534,7.149-16.534,15.936c0,.072-.008,8-.02,17.334l-.023,20.3Z" fill="#fec580"/>
              <path id="Path_2267-3" data-name="Path 2267" d="M387.752,70.067l.037-31.739c0-3.572.007-5.872.007-5.9,0-7.237,6.154-13.126,13.722-13.126s13.721,5.889,13.721,13.126c0,.127,0,23.937-.011,37.634h2.81c.006-13.7.013-37.507.013-37.634,0-8.787-7.418-15.936-16.533-15.936s-16.533,7.149-16.533,15.936l-.043,37.634Z" fill="#fec580"/>
              <path id="Path_2268-3" data-name="Path 2268" d="M261.952,70.067l.015-11.9c.013-12.425.029-25.675.029-25.733,0-7.237,6.156-13.126,13.724-13.126s13.721,5.889,13.721,13.126c0,.127-.007,23.937-.011,37.634h2.81c0-13.7.012-37.507.012-37.634,0-8.787-7.417-15.936-16.532-15.936s-16.533,7.149-16.533,15.936c0,.094-.017,13.324-.031,25.73l-.014,11.9Z" fill="#fec580"/>
              <rect id="Rectangle_7345-3" data-name="Rectangle 7345" width="493.75" height="2.811" transform="translate(0 2.215)" fill="#fec580"/>
              <g id="Group_4457-3" data-name="Group 4457" opacity="0.8" style="mix-blend-mode: multiply;isolation: isolate">
                <g id="Group_4456-3" data-name="Group 4456">
                  <g id="Group_4455-3" data-name="Group 4455" clip-path="url(#clip-path-4)">
                    <rect id="Rectangle_7346-3" data-name="Rectangle 7346" width="493.75" height="4.995" transform="translate(0 4.918)" fill="#fec580"/>
                  </g>
                </g>
              </g>
              <rect id="Rectangle_7348-3" data-name="Rectangle 7348" width="493.75" height="3.689" transform="translate(0 2.185)" fill="#fec580"/>
              <rect id="Rectangle_7349-3" data-name="Rectangle 7349" width="493.75" height="3.689" transform="translate(0 -0.001)" fill="#fec580"/>
            </g>
          </g>
        </g>
      </g>
    </g>
  </g>
</svg>
