<svg width="16" height="15" viewBox="0 0 16 15" fill="none" xmlns="http://www.w3.org/2000/svg">
<g clip-path="url(#clip0_2_37)">
<path d="M7.83398 7.5C6.80273 7.5 5.91992 7.13281 5.18555 6.39844C4.45117 5.66406 4.08398 4.78125 4.08398 3.75C4.08398 2.71875 4.45117 1.83594 5.18555 1.10156C5.91992 0.367188 6.80273 0 7.83398 0C8.86523 0 9.74805 0.367188 10.4824 1.10156C11.2168 1.83594 11.584 2.71875 11.584 3.75C11.584 4.78125 11.2168 5.66406 10.4824 6.39844C9.74805 7.13281 8.86523 7.5 7.83398 7.5ZM0.333984 15V12.375C0.333984 11.8438 0.470703 11.3555 0.744141 10.9102C1.01758 10.4648 1.38086 10.125 1.83398 9.89062C2.80273 9.40625 3.78711 9.04297 4.78711 8.80078C5.78711 8.55859 6.80273 8.4375 7.83398 8.4375C8.86523 8.4375 9.88086 8.55859 10.8809 8.80078C11.8809 9.04297 12.8652 9.40625 13.834 9.89062C14.2871 10.125 14.6504 10.4648 14.9238 10.9102C15.1973 11.3555 15.334 11.8438 15.334 12.375V15H0.333984ZM2.20898 13.125H13.459V12.375C13.459 12.2031 13.416 12.0469 13.3301 11.9062C13.2441 11.7656 13.1309 11.6562 12.9902 11.5781C12.1465 11.1562 11.2949 10.8398 10.4355 10.6289C9.57617 10.418 8.70898 10.3125 7.83398 10.3125C6.95898 10.3125 6.0918 10.418 5.23242 10.6289C4.37305 10.8398 3.52148 11.1562 2.67773 11.5781C2.53711 11.6562 2.42383 11.7656 2.33789 11.9062C2.25195 12.0469 2.20898 12.2031 2.20898 12.375V13.125ZM7.83398 5.625C8.34961 5.625 8.79102 5.44141 9.1582 5.07422C9.52539 4.70703 9.70898 4.26562 9.70898 3.75C9.70898 3.23438 9.52539 2.79297 9.1582 2.42578C8.79102 2.05859 8.34961 1.875 7.83398 1.875C7.31836 1.875 6.87695 2.05859 6.50977 2.42578C6.14258 2.79297 5.95898 3.23438 5.95898 3.75C5.95898 4.26562 6.14258 4.70703 6.50977 5.07422C6.87695 5.44141 7.31836 5.625 7.83398 5.625Z" fill="#FF7B3E"/>
</g>
<defs>
<clipPath id="clip0_2_37">
<rect width="16" height="15" fill="white"/>
</clipPath>
</defs>
</svg>
