<svg width="186" height="127" viewBox="0 0 186 127" fill="none" xmlns="http://www.w3.org/2000/svg">
<path d="M61.1649 119.889L125.369 64.3669L109.543 68.8934" fill="#4662FF"/>
<path d="M61.1649 119.889L125.369 64.3669L109.543 68.8934" stroke="black" stroke-width="0.465036" stroke-miterlimit="10"/>
<path d="M76.9134 80.8705L61.2454 119.89L115.914 69.3663L114.01 62.4941L90.2256 71.6002L74.6933 78.0503" fill="#D0DCFF"/>
<path d="M76.9134 80.8705L61.2454 119.89L115.914 69.3663L114.01 62.4941L90.2256 71.6002L74.6933 78.0503" stroke="black" stroke-width="0.465036" stroke-miterlimit="10"/>
<path d="M122.881 8.82258L134.628 43.5507L97.0864 52.2644L122.881 8.82258Z" fill="#4662FF" stroke="black" stroke-width="0.465036" stroke-miterlimit="10"/>
<path d="M92.3739 44.799L122.866 8.92311L123.611 37.3154L104.928 48.6115L91.5323 49.7207" fill="#D0DCFF"/>
<path d="M92.3739 44.799L122.866 8.92311L123.611 37.3154L104.928 48.6115L91.5323 49.7207" stroke="black" stroke-width="0.465036" stroke-miterlimit="10"/>
<path d="M131.177 32.5143L167.283 30.4018L149.817 52.8671L138.543 55.8084L125.273 47.734L123.399 39.4957" fill="#4662FF"/>
<path d="M131.177 32.5143L167.283 30.4018L149.817 52.8671L138.543 55.8084L125.273 47.734L123.399 39.4957" stroke="black" stroke-width="0.465036" stroke-miterlimit="10"/>
<path d="M145.231 53.7962C141.257 55.9338 134.072 53.2751 129.011 47.7428C123.951 42.2105 122.904 35.8703 126.573 33.4045C122.535 34.1524 98.065 43.1787 91.0386 46.3589C87.0318 49.5134 89.4225 54.0281 88.7734 54.8826C88.1234 55.7333 82.1908 58.8887 80.2459 59.1359C75.1282 60.129 71.5535 55.4718 70.0719 53.2402C68.8504 54.1462 54.2658 67.7982 54.2658 67.7982C54.2658 67.7982 51.8236 70.0143 47.304 69.8967C42.7843 69.7792 19.6623 59.5086 16.0194 58.5448C12.3776 57.5849 11.3183 60.296 12.0253 61.7799C12.7324 63.2637 31.195 79.1018 31.8793 79.8493C32.5635 80.5968 34.0869 83.5516 34.0869 83.5516C34.0869 83.5516 33.4548 84.2181 32.7488 85.2794C33.4776 86.9946 34.7641 87.6337 35.7481 87.8705C36.2858 86.252 38.2016 83.4891 40.9997 81.5387C39.0338 83.4976 37.088 87.9883 37.088 87.9883C37.088 87.9883 32.8784 102.53 31.8296 108.306C38.6798 106.563 47.3604 90.3203 48.817 86.9583C48.817 86.9583 51.9479 80.5736 50.8005 78.9787C49.8341 77.6368 47.5516 77.6363 46.2275 78.1117C47.2458 77.4558 49.6303 77.7509 50.6102 78.6914C51.805 79.8433 50.9956 81.7253 50.6645 82.872C50.4659 83.5569 50.2136 84.2268 49.9199 84.8769C49.7702 85.208 49.218 86.8899 48.817 86.9583L50.8928 86.6107C57.9585 85.4323 72.6062 82.982 78.332 82.0199C78.5906 81.9751 78.9554 81.5717 79.3332 81.0662C79.6442 80.3797 80.0981 79.7552 80.6217 79.1715C80.7192 79.0313 80.8096 78.915 80.8794 78.8392C81.776 77.8825 82.7671 76.9918 83.8652 76.1971C83.8696 76.1967 83.873 76.1926 83.8764 76.1884C84.9431 75.2603 86.017 74.3588 87.2214 73.5903C87.279 73.5194 87.365 73.454 87.4848 73.4129C87.5024 73.4115 87.5137 73.4028 87.5303 73.3975C88.3629 72.8891 89.259 72.4493 90.2644 72.1131C90.4462 72.0513 90.6176 72.0682 90.7684 72.1256C92.3691 71.4212 93.9194 70.6471 95.4942 69.9138C97.8191 68.8345 100.221 67.8069 102.863 67.2336C104.473 66.882 106.253 66.6096 108.016 66.7894C111.518 66.3776 114.998 67.2577 116.784 70.6687C124.772 67.0237 139.352 58.0002 145.237 53.7996L145.231 53.7962Z" fill="#EDD1FF"/>
<path d="M48.817 86.9583C47.3604 90.3203 38.6798 106.563 31.8296 108.306C32.8784 102.53 37.088 87.9883 37.088 87.9883C37.088 87.9883 39.0338 83.4976 40.9997 81.5387C38.2016 83.4891 36.2858 86.252 35.7481 87.8705C34.7641 87.6337 33.4776 86.9946 32.7488 85.2794C33.4548 84.2181 34.0869 83.5516 34.0869 83.5516C34.0869 83.5516 32.5635 80.5968 31.8793 79.8493C31.195 79.1018 12.7324 63.2637 12.0253 61.7799C11.3183 60.296 12.3776 57.5849 16.0194 58.5448C19.6623 59.5086 42.7843 69.7792 47.304 69.8967C51.8236 70.0143 54.2658 67.7982 54.2658 67.7982C54.2658 67.7982 68.8504 54.1462 70.0719 53.2402C71.5535 55.4718 75.1282 60.129 80.2459 59.1359C82.1908 58.8887 88.1234 55.7333 88.7734 54.8826C89.4225 54.0281 87.0318 49.5134 91.0386 46.3589C98.065 43.1787 122.535 34.1524 126.573 33.4045C122.904 35.8703 123.951 42.2105 129.011 47.7428C134.072 53.2751 141.257 55.9338 145.231 53.7962L145.237 53.7996C139.352 58.0002 124.772 67.0237 116.784 70.6687C114.998 67.2577 111.518 66.3776 108.016 66.7894C106.253 66.6096 104.473 66.882 102.863 67.2336C100.221 67.8069 97.8191 68.8344 95.4942 69.9138C93.9194 70.6471 92.3691 71.4212 90.7684 72.1256C90.6176 72.0681 90.4462 72.0513 90.2644 72.1131C89.259 72.4493 88.3629 72.8891 87.5303 73.3975C87.5137 73.4028 87.5024 73.4115 87.4848 73.4129C87.365 73.454 87.279 73.5194 87.2214 73.5903C86.017 74.3588 84.9431 75.2603 83.8764 76.1884C83.873 76.1926 83.8696 76.1967 83.8652 76.1971C82.7671 76.9918 81.776 77.8825 80.8794 78.8392C80.8096 78.915 80.7192 79.0313 80.6217 79.1715C80.0981 79.7552 79.6442 80.3797 79.3332 81.0662C78.9554 81.5717 78.5906 81.9751 78.332 82.0199C72.6062 82.982 57.9585 85.4323 50.8928 86.6107L48.817 86.9583ZM48.817 86.9583C48.817 86.9583 51.9479 80.5736 50.8005 78.9787C49.8341 77.6368 47.5516 77.6363 46.2275 78.1117C47.2458 77.4558 49.6303 77.7509 50.6102 78.6914C51.805 79.8433 50.9956 81.7253 50.6645 82.872C50.4659 83.5569 50.2136 84.2268 49.9199 84.8769C49.7702 85.208 49.218 86.8899 48.817 86.9583Z" stroke="black" stroke-width="0.465036" stroke-miterlimit="10"/>
<path d="M95.6287 46.4005C95.0071 47.8309 94.1567 51.0095 96.3037 55.0212C109.202 49.5969 126.508 42.4113 126.508 42.4113C126.508 42.4113 124.96 37.6216 127.665 34.5728C120.671 36.6858 102.845 43.2993 95.6242 46.4009L95.6287 46.4005Z" fill="#4662FF" stroke="black" stroke-width="0.465036" stroke-miterlimit="10"/>
<path d="M81.9657 60.3768L82.0008 60.3739L82.0348 60.3672C83.1911 60.2215 86.4316 58.6927 88.5551 57.4216C89.5532 56.824 90.9356 56.0908 91.0093 56.0155C91.0467 55.8395 91.1298 55.2369 91.0792 54.8184C90.8426 52.9358 89.2177 50.3418 92.3201 47.906L92.3944 47.8499L92.4816 47.8081C93.2881 47.4454 94.3202 47.0063 95.513 46.5156C90.8206 45.5937 87.371 45.2261 85.3056 45.0744C83.9039 44.9753 82.5919 45.3568 81.67 46.1364L71.9839 54.4591L72.6535 55.4105C74.5681 58.2802 78.0201 61.1378 81.9701 60.3765L81.9657 60.3768Z" fill="#4662FF" stroke="black" stroke-width="0.465036" stroke-miterlimit="10"/>
<path d="M51.5231 70.7787C50.0985 71.3678 48.5371 71.6433 46.8847 71.5976C46.094 71.5774 44.8005 71.2703 42.8157 70.6359L41.8706 70.3334L42.1693 69.5913C44.6335 63.4504 45.3957 61.5005 45.5974 60.9458C46.1393 59.4812 47.9881 57.8593 49.5831 56.9049L49.6731 56.8526C50.1372 56.5786 50.7728 56.5706 51.3299 56.8344C51.887 57.0981 52.2556 57.5793 52.2889 58.0883C52.55 61.8845 52.0913 68.7366 51.9449 70.2356L51.9077 70.6122L51.5211 70.7714L51.5231 70.7787Z" fill="#EDD1FF" stroke="black" stroke-width="0.465036" stroke-miterlimit="10"/>
<path d="M31.0103 86.8659C31.7267 88.5425 32.9913 89.1672 33.9587 89.3986C34.3423 88.2465 35.4503 86.4951 37.091 84.8935C36.2363 84.6033 34.3467 83.7834 35.2843 82.4829C37.1901 81.1555 38.5973 80.5075 38.5973 80.5075C38.5973 80.5075 42.7986 78.979 44.0398 78.7815C48.6399 74.2765 53.5352 71.9386 53.5352 71.9386C53.5352 71.9386 46.5193 74.5012 43.2181 73.2016C39.9169 71.9021 15.2658 62.2339 13.6758 61.7994C12.2054 61.3968 11.1225 63.0284 11.3341 64.7238C14.7801 68.2902 29.5522 80.9019 30.156 81.5584C30.8286 82.289 32.3259 85.1772 32.3259 85.1772C32.3259 85.1772 31.7045 85.8286 31.0103 86.8659Z" fill="#4662FF" stroke="black" stroke-width="0.465036" stroke-miterlimit="10"/>
<path d="M52.1778 83.0226L72.2689 78.8077C75.4688 78.1381 78.3659 76.8596 80.825 75.101C86.9587 70.7037 96.4769 65.6937 107.984 63.603C113.126 62.6705 117.942 60.9895 122.133 58.5047C126.659 55.8257 131.67 52.6118 134.633 50.608C135.414 51.1558 136.211 51.6417 137.009 52.0587C135.178 51.0951 133.353 49.7834 131.691 48.1746C129.977 49.3197 123.195 53.7927 115.839 57.8294C113.642 59.036 111.167 59.8822 108.52 60.3024C96.4905 62.2195 87.0563 67.6346 81.6198 71.4791C77.522 74.3723 72.6796 76.4397 67.3925 77.6029L52.3723 80.9116C52.3845 81.5656 52.3237 82.2905 52.1772 83.055C52.1786 83.0428 52.1834 83.0262 52.1847 83.0139L52.1778 83.0226Z" fill="#FB2A72" stroke="black" stroke-width="0.465036" stroke-miterlimit="10"/>
<path d="M134.483 49.9963C131.746 51.8585 127.261 54.7536 123.022 57.3063C118.45 60.0624 113.248 62.0591 107.625 63.1032C97.0042 65.0687 88.0881 69.5241 81.9735 73.6738C78.2496 76.1985 73.8812 77.9811 69.1456 78.9776L51.8968 82.6146C51.6298 84.0614 51.0723 85.6429 50.1863 87.1266L50.8049 86.9311C57.9924 85.6957 72.8959 83.1225 78.7215 82.1179C82.3246 76.7924 85.8885 74.3751 91.8367 72.2127C99.7451 68.865 103.2 67.832 103.72 67.6816C108.462 65.4519 115.095 64.8459 117.832 70.2169C125.956 66.3991 140.783 56.949 146.776 52.5616L146.774 52.5537C143.749 54.2291 138.895 53.0959 134.487 49.9959L134.483 49.9963Z" fill="#D0DCFF" stroke="black" stroke-width="0.465036" stroke-miterlimit="10"/>
<path d="M132.152 47.2258C136.305 51.7906 142.344 54.8165 146.607 54.4227C147.46 53.8463 148.226 53.3144 148.882 52.851L148.88 52.8438C145.098 54.8868 138.268 52.3467 133.458 47.0608C128.648 41.7748 127.652 35.7168 131.149 33.367L131.148 33.3598C130.711 33.4409 130.03 33.6204 129.161 33.8824C126.504 36.7447 127.638 42.2604 132.156 47.2254L132.152 47.2258Z" fill="#D0DCFF" stroke="black" stroke-width="0.465036" stroke-miterlimit="10"/>
<path d="M43.6881 78.165C39.8511 78.6486 35.4882 80.3916 31.2251 83.933C31.498 84.4427 31.6871 84.8095 31.6871 84.8095C31.6871 84.8095 37.6483 79.6186 43.6925 78.1646L43.6881 78.165Z" fill="#D0DCFF" stroke="black" stroke-width="0.465036" stroke-miterlimit="10"/>
<path d="M31.2227 84.799C31.2227 84.799 31.2197 84.7877 31.207 84.7695C31.2159 84.788 31.2227 84.799 31.2227 84.799Z" fill="#D0DCFF" stroke="black" stroke-width="0.465036" stroke-miterlimit="10"/>
<path d="M31.7464 84.7207C31.7464 84.7207 31.1401 85.3948 30.4726 86.4711C30.4726 86.4711 37.2854 79.853 43.3672 78.1611C37.4635 79.5613 31.7464 84.7207 31.7464 84.7207Z" fill="#D0DCFF" stroke="black" stroke-width="0.465036" stroke-miterlimit="10"/>
<path d="M31.2078 84.7732C31.2078 84.7732 31.1916 84.7378 31.1816 84.7129C31.1907 84.7342 31.2041 84.7588 31.2078 84.7732Z" fill="#D0DCFF" stroke="black" stroke-width="0.465036" stroke-miterlimit="10"/>
<path d="M31.1653 84.6856C31.1335 84.6193 31.0926 84.5319 31.0391 84.4238C31.0926 84.5319 31.1344 84.6228 31.1653 84.6856Z" fill="#D0DCFF" stroke="black" stroke-width="0.465036" stroke-miterlimit="10"/>
<path d="M29.4379 81.9141L31.9515 80.1096L10.8598 62.5432C10.7496 62.7085 10.6633 62.8829 10.5967 63.0669L30.9632 80.0287L28.9548 81.475C29.1702 81.6689 29.3298 81.8153 29.4389 81.9177L29.4379 81.9141Z" fill="#D0DCFF" stroke="black" stroke-width="0.465036" stroke-miterlimit="10"/>
<path d="M59.3449 68.2153C59.008 67.7478 58.2715 66.5166 58.5347 64.9953C58.3033 65.227 58.0786 65.4545 57.8599 65.6742C57.8896 67.0527 58.5755 68.114 58.8932 68.536L59.344 68.2118L59.3449 68.2153Z" fill="#D0DCFF" stroke="black" stroke-width="0.465036" stroke-miterlimit="10"/>
<path d="M70.9055 54.8495C72.6223 57.4058 76.5331 62.0236 81.523 60.2639C81.4307 60.2829 81.3417 60.2979 81.2647 60.308C76.2377 61.2776 72.7267 56.7292 71.2717 54.5498C71.1981 54.6052 71.0749 54.7064 70.9088 54.8454L70.9055 54.8495Z" fill="#D0DCFF" stroke="black" stroke-width="0.465036" stroke-miterlimit="10"/>
<path d="M120.213 53.3383C114.81 47.3729 113.533 40.6053 117.29 38.1023C117.309 38.0785 117.901 37.6994 118.374 37.4339C117.114 37.8729 115.801 38.3386 114.42 38.8507C112.28 42.9197 113.968 48.7721 118.853 54.1669C123.087 58.843 128.609 61.7975 133.177 62.2347C134.104 61.6793 135.026 61.1171 135.934 60.5559C131.736 61.6788 125.1 58.7366 120.21 53.3422L120.213 53.3383Z" fill="#D0DCFF" stroke="black" stroke-width="0.465036" stroke-miterlimit="10"/>
<path d="M64.107 80.2399C61.3409 80.7914 58.5715 81.3314 55.7845 81.8569C54.2343 80.4166 53.516 79.6329 52.2845 78.0066C54.7817 77.2499 57.291 76.5043 59.8092 75.7737C61.3348 77.7217 62.2253 78.6387 64.1081 80.2437L64.107 80.2399Z" fill="#D0DCFF" stroke="black" stroke-width="0.465036" stroke-miterlimit="10"/>
<path d="M59.2033 78.7974C59.9921 79.624 59.8569 80.4008 58.888 80.5958C57.9603 80.784 56.6226 80.3434 55.9002 79.5656C55.1606 78.7737 55.2713 77.8991 56.1284 77.6625C57.0257 77.4153 58.3964 77.953 59.2033 78.7974Z" fill="#D0DCFF" stroke="black" stroke-width="0.465036" stroke-miterlimit="10"/>
<path d="M89.6621 80.1962C91.5113 79.1784 92.4377 77.7771 91.7314 77.0663C91.025 76.3555 88.9534 76.6042 87.1042 77.622C85.255 78.6398 84.3285 80.0411 85.0348 80.7519C85.7412 81.4627 87.8129 81.2139 89.6621 80.1962Z" fill="#D0DCFF" stroke="black" stroke-width="0.465036" stroke-miterlimit="10"/>
<path d="M109.576 36.2079C111.425 35.1901 112.352 33.7888 111.646 33.078C110.939 32.3671 108.867 32.616 107.018 33.6337C105.169 34.6515 104.243 36.0528 104.949 36.7636C105.655 37.4745 107.727 37.2256 109.576 36.2079Z" fill="#D0DCFF" stroke="black" stroke-width="0.465036" stroke-miterlimit="10"/>
<path d="M93.629 90.4676C93.3368 89.6492 92.7322 88.6883 91.4989 87.9869C88.1528 86.0839 81.7593 87.2579 72.4849 91.4647C72.2196 91.8261 71.958 92.1831 71.6954 92.5363C83.6738 86.9222 88.8687 87.2032 91.1185 88.4739C92.399 89.1983 92.8328 90.3259 92.9768 91.1275C93.1951 90.9048 93.4143 90.686 93.629 90.4676Z" fill="#A0A0A0" stroke="#231F20" stroke-width="0.348777" stroke-miterlimit="10"/>
<path d="M130.302 26.2613C130.079 25.4001 129.514 24.4112 128.183 23.7704C124.571 22.0232 116.988 23.9111 105.623 29.3679C105.264 29.786 104.907 30.196 104.556 30.6093C119.263 23.366 125.251 23.1702 127.677 24.3372C129.06 25.0005 130.657 27.1526 130.708 28.015C130.997 27.7537 130.022 26.5216 130.303 26.2651L130.302 26.2613Z" fill="#A0A0A0" stroke="#231F20" stroke-width="0.348777" stroke-miterlimit="10"/>
</svg>
