<svg width="71" height="65" viewBox="0 0 71 65" fill="none" xmlns="http://www.w3.org/2000/svg">
<path d="M36.2983 60.7327C51.006 58.3754 61.1215 43.8581 58.8919 28.3076C56.6623 12.757 42.932 2.06178 28.2243 4.41914C13.5166 6.77649 3.40118 21.2937 5.63076 36.8443C7.86034 52.3949 21.5907 63.0901 36.2983 60.7327Z" fill="#CD89FF" stroke="black" stroke-width="0.465036" stroke-miterlimit="10"/>
<path d="M15.4979 20.4295C12.2427 23.8713 11.5219 27.0525 12.0055 29.6044C12.4891 32.1513 15.884 33.9952 20.9203 32.6627C26.7054 31.1335 32.1276 23.7435 29.9559 20.4344C27.7889 17.1205 19.5949 16.1027 15.4979 20.4344V20.4295Z" fill="#B6C6FF" stroke="black" stroke-width="0.465036" stroke-miterlimit="10"/>
<path d="M14.7714 22.9766C18.8684 18.6448 27.0623 19.6626 29.2294 22.9766C29.5875 23.5273 29.7363 24.1861 29.7131 24.9138C30.4292 23.2519 30.5641 21.6736 29.8293 20.5575C27.6622 17.2435 19.4683 16.2257 15.3713 20.5575C13.0229 23.0405 11.9952 25.3858 11.7812 27.4608C12.3393 26.0447 13.2927 24.5401 14.7669 22.9815L14.7714 22.9766Z" fill="#CD89FF" stroke="black" stroke-width="0.465036" stroke-miterlimit="10"/>
<path d="M49.357 37.4996C46.7249 35.7 38.7542 37.2439 36.7034 40.6857C34.6526 44.1275 34.2945 47.4366 37.308 49.3492C40.3214 51.2619 43.572 49.4771 46.2227 47.058C48.8734 44.6389 53.454 40.3071 49.357 37.5045V37.4996Z" fill="#B6C6FF" stroke="black" stroke-width="0.465036" stroke-miterlimit="10"/>
<path d="M38.2696 42.8502C40.3204 39.4084 48.2912 37.8645 50.9233 39.664C50.9326 39.6689 50.9371 39.6739 50.9464 39.6788C50.8023 38.897 50.3187 38.1546 49.3607 37.4957C46.7286 35.6961 38.7579 37.24 36.7071 40.6818C34.7633 43.9466 34.34 47.0983 36.8838 49.0454C36.3257 47.2655 36.9442 45.0824 38.2742 42.8502H38.2696Z" fill="#CD89FF" stroke="black" stroke-width="0.465036" stroke-miterlimit="10"/>
<path d="M42.4892 13.8007C40.3268 14.7153 38.6342 18.2603 41.043 21.8251C43.4519 25.3947 47.6698 27.5581 49.7206 26.4125C51.7714 25.2669 53.8176 19.9173 50.925 16.859C48.0325 13.8007 45.5027 12.5273 42.4892 13.8007Z" fill="#B6C6FF" stroke="black" stroke-width="0.465036" stroke-miterlimit="10"/>
<path d="M50.9247 16.7321C48.0322 13.6738 45.5023 12.4003 42.4889 13.6738C41.7634 13.9835 41.0891 14.5883 40.6055 15.3898C43.5445 14.2294 46.0371 15.5127 48.8738 18.512C51.0362 20.7983 50.4364 24.3729 49.1343 26.5068C49.3435 26.4576 49.5388 26.3839 49.7156 26.2855C51.7664 25.1399 53.8126 19.7904 50.92 16.7321H50.9247Z" fill="#CD89FF" stroke="black" stroke-width="0.465036" stroke-miterlimit="10"/>
<path d="M26.1243 49.5062C24.0642 48.3852 19.358 47.5444 16.2423 49.3636C14.8379 50.1847 13.8102 51.5074 13.373 52.8448C17.5584 57.1863 23.0736 60.0873 29.2028 60.815C29.5748 60.2741 29.9655 59.6054 30.4398 58.7597C31.621 56.6553 28.189 50.6322 26.1289 49.5062H26.1243Z" fill="#B6C6FF" stroke="black" stroke-width="0.465036" stroke-miterlimit="10"/>
<path d="M26.1322 49.4769C24.0721 48.3559 19.3659 47.5151 16.2502 49.3343C14.8458 50.1554 13.818 51.4781 13.3809 52.8155C13.5204 52.958 13.66 53.1006 13.8041 53.2432C14.2598 52.722 14.8086 52.2549 15.4364 51.8911C18.5521 50.0718 23.2583 50.9077 25.3184 52.0337C26.9972 52.9482 29.5921 57.1226 29.8478 59.7728C30.0339 59.4581 30.2292 59.109 30.4478 58.7255C31.629 56.6211 28.197 50.598 26.1369 49.472L26.1322 49.4769Z" fill="#CD89FF" stroke="black" stroke-width="0.465036" stroke-miterlimit="10"/>
<path d="M5.97352 46.925C5.97352 46.925 -1.56934 54.5265 1.92308 57.398C4.01574 59.1238 11.2796 61.4839 31.5272 51.3453C57.4343 38.3697 68.3953 25.0057 70.209 20.0101C72.0226 15.0146 56.6252 19.5774 56.6252 19.5774L56.5229 19.9757C56.5229 19.9757 69.609 16.7453 68.6697 19.2529C65.3167 28.1819 47.1664 41.5017 37.1076 46.4973C27.0536 51.4928 12.6701 57.6979 6.94548 57.2456C1.37436 56.803 3.15544 52.7368 4.15062 50.888C5.12719 49.0737 6.11305 47.2643 6.11305 47.2643L5.96886 46.925H5.97352Z" fill="#CEFF62" stroke="black" stroke-width="0.465036" stroke-miterlimit="10"/>
</svg>
