<svg viewBox="0 0 108 177" fill="none" xmlns="http://www.w3.org/2000/svg">
<g id="Group 33">
<g id="noun_Lantern_2692881">
<g id="Group">
<g id="Group_2">
<path id="Path" d="M54.2999 135.194C53.3595 135.194 52.5972 134.431 52.5972 133.49C52.5972 123.463 58.7585 117.248 65.2816 110.668C69.9737 105.935 74.8255 101.041 78.2717 94.1644C78.6935 93.323 79.7161 92.9828 80.5572 93.4051C81.3977 93.8274 81.7372 94.8519 81.3154 95.6933C77.6252 103.057 72.3512 108.376 67.6984 113.07C61.4225 119.401 56.0023 124.868 56.0023 133.49C56.0026 134.431 55.2405 135.194 54.2999 135.194Z" fill="#D21316"/>
<path id="Path_2" d="M54.207 135.194C53.2667 135.194 52.5043 134.431 52.5043 133.49C52.5043 124.868 47.0842 119.4 40.8082 113.07C36.1552 108.377 30.8815 103.057 27.1912 95.6933C26.7694 94.8519 27.109 93.8273 27.9494 93.4051C28.7903 92.9825 29.8132 93.3227 30.2349 94.1642C33.6814 101.041 38.5332 105.935 43.2251 110.668C49.7484 117.248 55.9097 123.463 55.9097 133.489C55.9097 134.431 55.1474 135.194 54.207 135.194Z" fill="#D21316"/>
</g>
<path id="Shape" fill-rule="evenodd" clip-rule="evenodd" d="M28.4595 147.776H79.5406C80.481 147.776 81.2433 147.013 81.2433 146.071V94.9289C81.2433 93.9874 80.481 93.2241 79.5406 93.2241H28.4595C27.5192 93.2241 26.7568 93.9874 26.7568 94.9289V146.071C26.7568 147.013 27.5192 147.776 28.4595 147.776ZM77.8379 144.366H30.1622V96.6336H77.8379V144.366Z" fill="#D21316"/>
<path id="Shape_2" fill-rule="evenodd" clip-rule="evenodd" d="M35.7567 159.953H72.2431C73.1835 159.953 73.9458 159.189 73.9458 158.248V146.071C73.9458 145.13 73.1835 144.366 72.2431 144.366H35.7567C34.8163 144.366 34.054 145.13 34.054 146.071V158.248C34.054 159.189 34.8163 159.953 35.7567 159.953ZM70.5404 156.543H37.4594V147.776H70.5404V156.543Z" fill="#D21316"/>
<path id="Shape_3" fill-rule="evenodd" clip-rule="evenodd" d="M35.7567 96.6336H72.2431C73.1835 96.6336 73.9458 95.8704 73.9458 94.9289V82.7522C73.9458 81.8107 73.1835 81.0474 72.2431 81.0474H35.7567C34.8163 81.0474 34.054 81.8107 34.054 82.7522V94.9289C34.054 95.8704 34.8163 96.6336 35.7567 96.6336ZM70.5404 93.2241H37.4594V84.4569H70.5404V93.2241Z" fill="#D21316"/>
<path id="Shape_4" fill-rule="evenodd" clip-rule="evenodd" d="M38.9189 82.7522C38.9189 83.6937 39.6813 84.4569 40.6216 84.4569H67.3784C68.3188 84.4569 69.0811 83.6937 69.0811 82.7522V79.0991C69.0811 70.7734 62.3158 64 54 64C45.6843 64 38.9189 70.7734 38.9189 79.0991V82.7522ZM65.6757 79.0991V81.0474H42.3244V79.0991C42.3244 72.6535 47.5621 67.4095 54 67.4095C60.4379 67.4095 65.6757 72.6535 65.6757 79.0991Z" fill="#D21316"/>
<path id="Shape_5" fill-rule="evenodd" clip-rule="evenodd" d="M38.9189 161.901C38.9189 170.227 45.6843 177 54 177C62.3158 177 69.0811 170.227 69.0811 161.901V158.248C69.0811 157.306 68.3188 156.543 67.3784 156.543H40.6216C39.6813 156.543 38.9189 157.306 38.9189 158.248V161.901ZM42.3244 161.901V159.953H65.6757V161.901C65.6757 168.346 60.4379 173.591 54 173.591C47.5621 173.591 42.3244 168.346 42.3244 161.901Z" fill="#D21316"/>
<path id="Path_3" d="M86.8379 147.776H79.5406C78.6002 147.776 77.8379 147.013 77.8379 146.071C77.8379 145.13 78.6002 144.366 79.5406 144.366H86.8379C87.7783 144.366 88.5406 145.13 88.5406 146.071C88.5406 147.013 87.7783 147.776 86.8379 147.776Z" fill="#D21316"/>
<path id="Path_4" d="M28.4595 147.776H21.1622C20.2218 147.776 19.4595 147.013 19.4595 146.071C19.4595 145.13 20.2218 144.366 21.1622 144.366H28.4595C29.3999 144.366 30.1622 145.13 30.1622 146.071C30.1622 147.013 29.3999 147.776 28.4595 147.776Z" fill="#D21316"/>
<path id="Path_5" d="M86.8379 96.6336H79.5406C78.6002 96.6336 77.8379 95.8704 77.8379 94.9289C77.8379 93.9874 78.6002 93.2241 79.5406 93.2241H86.8379C87.7783 93.2241 88.5406 93.9874 88.5406 94.9289C88.5406 95.8704 87.7783 96.6336 86.8379 96.6336Z" fill="#D21316"/>
<path id="Path_6" d="M28.4595 96.6336H21.1622C20.2218 96.6336 19.4595 95.8704 19.4595 94.9289C19.4595 93.9874 20.2218 93.2241 21.1622 93.2241H28.4595C29.3999 93.2241 30.1622 93.9874 30.1622 94.9289C30.1622 95.8704 29.3999 96.6336 28.4595 96.6336Z" fill="#D21316"/>
<path id="Shape_6" fill-rule="evenodd" clip-rule="evenodd" d="M0 141.687C0 145.313 2.94616 148.263 6.56757 148.263C10.189 148.263 13.1351 145.313 13.1351 141.687C13.1351 138.062 10.189 135.112 6.56757 135.112C2.94616 135.112 0 138.062 0 141.687ZM3.40541 141.687C3.40541 139.942 4.824 138.522 6.56757 138.522C8.31114 138.522 9.72973 139.942 9.72973 141.687C9.72973 143.433 8.31114 144.853 6.56757 144.853C4.824 144.853 3.40541 143.433 3.40541 141.687Z" fill="#F4040A"/>
<path id="Shape_7" fill-rule="evenodd" clip-rule="evenodd" d="M90 76.6638C90 80.9609 93.4918 84.4569 97.7838 84.4569C102.076 84.4569 105.568 80.9609 105.568 76.6638C105.568 72.3666 102.076 68.8707 97.7838 68.8707C93.4918 68.8707 90 72.3666 90 76.6638ZM93.4054 76.6638C93.4054 74.2467 95.3696 72.2801 97.7838 72.2801C100.198 72.2801 102.162 74.2467 102.162 76.6638C102.162 79.0808 100.198 81.0474 97.7838 81.0474C95.3696 81.0474 93.4054 79.0808 93.4054 76.6638Z" fill="#F4040A"/>
<path id="Shape_8" fill-rule="evenodd" clip-rule="evenodd" d="M28.4595 135.194H79.5406C80.481 135.194 81.2433 134.431 81.2431 133.49C81.2431 123.569 75.0803 117.245 68.5555 110.55L68.5543 110.548C63.9268 105.8 59.1417 100.89 55.7755 94.1651C55.4868 93.5884 54.8979 93.2241 54.2538 93.2241H54.2533C53.6094 93.2241 53.0203 93.588 52.7316 94.1644C49.2744 101.063 44.3472 105.969 39.5822 110.713L39.5809 110.714C32.9861 117.28 26.7568 123.482 26.7568 133.49C26.7568 134.431 27.5192 135.194 28.4595 135.194ZM77.7637 131.785H30.2364C30.909 124.157 36.0699 119.018 41.9824 113.132C46.0959 109.036 50.6873 104.465 54.2523 98.475C57.7098 104.302 62.1439 108.852 66.1185 112.931C71.9784 118.944 77.0936 124.193 77.7637 131.785Z" fill="#D21316"/>
<path id="Shape_9" fill-rule="evenodd" clip-rule="evenodd" d="M94.8647 167.989C94.8647 171.615 97.8109 174.565 101.432 174.565C105.054 174.565 108 171.615 108 167.989C108 164.364 105.054 161.414 101.432 161.414C97.8109 161.414 94.8647 164.364 94.8647 167.989ZM98.2702 167.989C98.2702 166.244 99.6887 164.823 101.432 164.823C103.176 164.823 104.594 166.244 104.594 167.989C104.594 169.735 103.176 171.155 101.432 171.155C99.6887 171.155 98.2702 169.735 98.2702 167.989Z" fill="#F4040A"/>
<path id="Path_7" d="M77.1081 84.4569H30.8919C29.9515 84.4569 29.1892 83.6937 29.1892 82.7522C29.1892 81.8107 29.9515 81.0474 30.8919 81.0474H77.1081C78.0485 81.0474 78.8108 81.8107 78.8108 82.7522C78.8108 83.6937 78.0485 84.4569 77.1081 84.4569Z" fill="#D21316"/>
<path id="Path_8" d="M77.1081 159.953H30.8919C29.9515 159.953 29.1892 159.189 29.1892 158.248C29.1892 157.306 29.9515 156.543 30.8919 156.543H77.1081C78.0485 156.543 78.8108 157.306 78.8108 158.248C78.8108 159.189 78.0485 159.953 77.1081 159.953Z" fill="#D21316"/>
<path id="Path_9" d="M54.2535 133.164C53.3131 133.164 52.5508 132.401 52.5508 131.459V94.9289C52.5508 93.9874 53.3131 93.2241 54.2535 93.2241C55.1939 93.2241 55.9562 93.9874 55.9562 94.9289V131.459C55.9562 132.401 55.1939 133.164 54.2535 133.164Z" fill="#D21316"/>
</g>
</g>
<rect id="Rectangle" x="52" y="-40" width="4" height="106" fill="#D21316"/>
</g>
</svg>
