<svg viewBox="0 0 74 70" fill="none" xmlns="http://www.w3.org/2000/svg">
<g id="noun_rangoli_1570659 copy" opacity="0.7">
<g id="Group">
<path id="Shape" fill-rule="evenodd" clip-rule="evenodd" d="M61.4293 26.7183C65.0562 28.0517 68.746 30.4885 72.4579 34.0093L73.1874 34.7002L72.48 35.413C72.2358 35.6591 67.9808 39.8838 62.026 42.2197C59.5738 50.3041 52.9177 56.7161 44.452 59.1739C41.9546 64.5479 37.7609 68.3512 37.5005 68.5837L36.7489 69.2544L36.0194 68.5627C32.6488 65.3664 30.2281 62.1959 28.7573 59.073C20.4788 56.5539 13.9819 50.242 11.5407 42.3036C5.47021 39.9879 1.11053 35.6624 0.863689 35.4138L0.155518 34.7011L0.885819 34.0085C4.67777 30.4135 8.44503 27.9533 12.1459 26.6392C14.8671 19.7357 20.7291 14.2769 28.0747 11.8264C29.4076 8.17564 32.0547 4.45225 36.0194 0.692536L36.7489 0L37.5005 0.67155C37.7865 0.92661 42.822 5.49347 45.1363 11.7206C52.6649 14.1243 58.6809 19.6735 61.4293 26.7183ZM55.2352 25.5221C56.4115 25.5407 57.5981 25.6844 58.7914 25.9483C56.2464 20.6034 51.6033 16.3456 45.8596 14.1252C46.1031 15.1849 46.2503 16.277 46.2742 17.3941C50.0618 19.1892 53.1763 22.0272 55.2352 25.5221ZM46.2675 50.9966L46.2634 50.8789C46.2585 50.7338 46.2536 50.5889 46.2428 50.4421C46.1092 48.6833 45.6445 47.0029 44.8674 45.4007C46.0462 44.5451 47.077 43.5168 47.9009 42.3432C49.7216 43.156 51.6409 43.6169 53.654 43.7169C51.978 46.7728 49.4092 49.2919 46.2675 50.9966ZM25.596 42.2745C23.7907 43.1035 21.8883 43.5878 19.8915 43.7113C21.5385 46.7066 24.0469 49.1926 27.1094 50.9006C27.1133 50.8506 27.1169 50.8006 27.1206 50.7507L27.1206 50.7506C27.1348 50.5593 27.1489 50.3682 27.1732 50.1782C27.4005 48.4057 27.9546 46.8172 28.6696 45.3982C27.4703 44.5273 26.4276 43.4748 25.596 42.2745ZM55.3903 37.522C54.0973 37.522 53.0461 36.5252 53.0461 35.2999C53.0461 34.0739 54.0973 33.077 55.3903 33.077C56.6832 33.077 57.7344 34.0739 57.7344 35.2999C57.7344 36.5252 56.6823 37.522 55.3903 37.522ZM50.0816 34.3378H51.0443C51.4988 32.4991 53.2096 31.1221 55.272 31.0697C54.9622 29.8484 54.5128 28.6845 53.9595 27.5771C51.8699 27.7264 50.0144 28.3245 48.4091 29.1309C49.3394 30.6927 49.925 32.4572 50.0816 34.3378ZM47.9543 36.3565C47.8394 37.4962 47.5339 38.5834 47.07 39.5916C45.1847 38.4309 43.4202 36.8037 41.7876 34.7051C42.4899 33.7752 44.142 31.8203 46.5976 30.1842C47.3313 31.4369 47.8062 32.8422 47.9543 34.3378H45.3328V36.3557H47.9543V36.3565ZM37.3805 37.4236C40.2047 39.2986 42.3598 41.3673 43.8442 43.6104C44.6826 42.9647 45.4189 42.2084 46.0326 41.3633C43.7123 39.9588 41.5682 37.941 39.6199 35.3016L39.2216 34.7632L39.5807 34.2006C39.7152 33.9891 41.7095 30.9252 45.3712 28.4957C44.7312 27.7733 43.9915 27.1348 43.1735 26.5948C41.7342 28.4747 39.8029 30.2246 37.3813 31.8324L36.8136 32.2094L36.2203 31.8696C36.0152 31.7517 32.911 29.9364 30.3711 26.5932C29.5208 27.1542 28.7513 27.8201 28.0942 28.5772C31.6768 30.993 33.6277 33.9908 33.7613 34.2006L34.1188 34.7624L33.7213 35.3008C31.8104 37.8885 29.7123 39.8797 27.4448 41.2801C28.0687 42.1591 28.8297 42.9437 29.6953 43.6104C32.3228 39.6618 35.9956 37.5148 36.2195 37.3864L36.8128 37.0466L37.3805 37.4236ZM36.6723 55.2729C35.3794 55.2729 34.3282 54.2761 34.3282 53.05C34.3282 51.824 35.3794 50.8271 36.6723 50.8271C37.9644 50.8271 39.0155 51.824 39.0155 53.05C39.0155 54.2761 37.9635 55.2729 36.6723 55.2729ZM35.6074 45.9398V43.4118H37.7345V45.9511C39.2913 45.8252 40.7587 45.4014 42.0703 44.7331C40.8379 42.8533 39.064 41.0977 36.7514 39.4802C35.6747 40.2115 33.2897 42.0195 31.4835 44.7388C32.7356 45.3756 34.129 45.7945 35.6074 45.9398ZM18.2462 39.5117C20.2286 39.3882 21.8586 38.0475 22.2986 36.2621H23.4545C23.5686 37.7593 23.9533 39.1848 24.5712 40.494C22.7974 41.293 20.9265 41.7063 18.9654 41.7216C18.6803 41.0049 18.4343 40.2696 18.2462 39.5117ZM18.2658 31.0899C20.2039 31.2198 21.7939 32.5121 22.2672 34.2442H23.4639C23.629 32.4297 24.195 30.7234 25.0837 29.2068C23.4945 28.3883 21.656 27.7652 19.5809 27.5876C19.0251 28.6983 18.5765 29.8662 18.2658 31.0899ZM17.9525 33.077C19.2455 33.077 20.2967 34.0739 20.2967 35.2999C20.2967 36.5252 19.2455 37.522 17.9525 37.522C16.6596 37.522 15.6084 36.5252 15.6084 35.2999C15.6093 34.0747 16.6605 33.077 17.9525 33.077ZM28.1664 36.2621H25.5823C25.6853 37.401 25.9721 38.4906 26.4258 39.5004C28.2533 38.3469 29.9658 36.7463 31.5541 34.7051C30.8655 33.793 29.2645 31.8938 26.8854 30.2778C26.1977 31.4805 25.7474 32.8212 25.5925 34.2442H28.1664V36.2621ZM29.2815 18.7994L29.2806 18.7878L29.2799 18.7763C29.279 18.7628 29.2782 18.7493 29.2765 18.7356C30.2221 18.353 31.2095 18.0422 32.2275 17.8065C32.3509 19.713 33.7919 21.2829 35.707 21.6849V22.7189C34.0651 22.8424 32.51 23.25 31.0877 23.8876C30.2136 22.4251 29.5259 20.73 29.2833 18.8171C29.2825 18.8112 29.282 18.8053 29.2815 18.7994ZM39.0155 17.5491C39.0155 16.323 37.9644 15.3262 36.6723 15.3262C35.3794 15.3262 34.3282 16.323 34.3282 17.5491C34.3282 18.7751 35.3794 19.772 36.6723 19.772C37.9644 19.772 39.0155 18.7751 39.0155 17.5491ZM41.1203 17.7621C42.1554 17.9906 43.1589 18.2932 44.119 18.6718V18.675C43.9786 20.5008 43.4253 22.2418 42.4643 23.8908C41.0386 23.2508 39.4801 22.8415 37.8348 22.7172V21.6244C39.6632 21.1546 41.0208 19.6202 41.1203 17.7621ZM35.7069 27.134V24.7359C34.4914 24.8449 33.333 25.1403 32.2597 25.5883C33.9237 27.7119 35.8227 29.1462 36.7513 29.7766C38.6179 28.4698 40.1304 27.0726 41.2948 25.5939C40.2181 25.1427 39.0562 24.8449 37.8348 24.7359V27.134H35.7069ZM47.1919 27.4246C46.3688 26.4528 45.4019 25.5972 44.3175 24.8901C45.2903 23.2258 45.904 21.4686 46.1534 19.6267C48.8789 21.0844 51.1804 23.1515 52.8504 25.6513C50.7208 25.9233 48.8286 26.5819 47.1919 27.4246ZM37.7361 13.4431C39.0001 13.7385 40.042 14.5424 40.6276 15.6151C41.82 15.8234 42.9734 16.1236 44.0841 16.5086C43.982 15.4214 43.7599 14.3568 43.4364 13.3301C41.6149 12.8329 39.7057 12.5326 37.7361 12.4592V13.4431ZM35.6083 13.4431C34.3281 13.7417 33.2735 14.5626 32.693 15.6547C31.492 15.8775 30.3302 16.1947 29.2135 16.5991C29.2696 15.5514 29.4586 14.4908 29.7761 13.4197C31.6367 12.8845 33.5902 12.5552 35.6091 12.464V13.4431H35.6083ZM29.2305 24.8869C28.3359 23.384 27.6243 21.6478 27.2847 19.6905C24.6018 21.1506 22.3326 23.2048 20.6831 25.6771C22.7965 25.9717 24.6716 26.6465 26.2922 27.4988C27.1289 26.4964 28.1163 25.6117 29.2305 24.8869ZM16.0059 31.5007C14.8441 32.0391 13.9691 33.0335 13.6388 34.2442H12.6464C12.7511 32.1513 13.1571 30.1334 13.8167 28.2229C14.9718 27.879 16.114 27.6675 17.2427 27.5804C16.6937 28.8258 16.2843 30.1398 16.0059 31.5007ZM15.9872 39.0895C14.8033 38.535 13.9146 37.5091 13.6074 36.2621V36.2629H12.6413C12.706 37.8069 12.9333 39.3115 13.3061 40.7635C14.3785 41.1195 15.4936 41.3939 16.6384 41.5562C16.3652 40.7563 16.1549 39.9306 15.9872 39.0895ZM29.2833 50.4389C29.4646 49.0062 29.8987 47.6962 30.4707 46.5129C32.0258 47.3047 33.7639 47.8076 35.6083 47.9593V48.9449C33.7162 49.3872 32.3041 50.9652 32.2198 52.8749C31.1738 52.6327 30.1643 52.3091 29.1965 51.9128C29.1982 51.418 29.2212 50.9272 29.2833 50.4389ZM35.6074 57.156C34.3639 56.8662 33.3356 56.0825 32.7449 55.0364C31.5839 54.8249 30.4587 54.5247 29.3752 54.1421C29.5573 55.2196 29.8765 56.3101 30.3293 57.4119C32.0231 57.8566 33.7876 58.1343 35.6074 58.2166V57.156ZM37.7353 57.156C38.9635 56.8703 39.9815 56.1019 40.5765 55.0752C41.7085 54.8806 42.8074 54.6038 43.8671 54.2503C43.639 55.377 43.2866 56.4667 42.8542 57.5087C41.2089 57.9155 39.4963 58.1569 37.7353 58.2231V57.156ZM37.7353 48.944C39.6419 49.3888 41.065 50.9885 41.1289 52.9184C42.1707 52.6892 43.1776 52.3817 44.1428 52.0007C44.1607 51.5301 44.1565 51.0563 44.1199 50.5801C44.0118 49.1749 43.6526 47.8205 43.0576 46.5185C41.4506 47.3346 39.647 47.8382 37.7353 47.9682V48.944ZM54.4998 41.7257C52.5532 41.7257 50.6968 41.3334 48.9341 40.565C49.558 39.2639 49.9563 37.8473 50.0823 36.3565H51.0764C51.5667 38.1532 53.258 39.4891 55.294 39.531C55.1059 40.2841 54.8599 41.0114 54.579 41.7233C54.5638 41.7228 54.5492 41.7236 54.5346 41.7244C54.523 41.7251 54.5115 41.7257 54.4998 41.7257ZM59.7355 36.2621C59.4478 37.4292 58.6486 38.4002 57.577 38.9757C57.4084 39.8482 57.1939 40.703 56.9139 41.5295C58.0638 41.3528 59.1789 41.0598 60.2513 40.6917C60.6139 39.2622 60.8361 37.7811 60.8991 36.2621H59.7355ZM59.7047 34.2442C59.3958 33.1126 58.6101 32.1731 57.5589 31.6145C57.2832 30.2189 56.8686 28.8734 56.3111 27.5989C57.444 27.7022 58.5906 27.9315 59.749 28.2931C60.3959 30.1818 60.7917 32.1771 60.8955 34.2442H59.7047ZM42.5496 11.0329C40.7962 7.21349 38.0657 4.1681 36.7702 2.85002C33.9375 5.6573 31.8964 8.41533 30.6494 11.108C32.2513 10.744 33.9086 10.5163 35.6083 10.4461V6.45073H37.7363V10.4421C39.3833 10.4986 40.992 10.7004 42.5496 11.0329ZM27.3818 14.2373C27.1562 15.3302 27.0532 16.415 27.0702 17.4918C23.3821 19.2925 20.3435 22.0925 18.3185 25.5141C17.1456 25.5181 15.9634 25.6505 14.7726 25.8999C17.2784 20.6703 21.7922 16.482 27.3818 14.2373ZM11.3057 29.168C8.64241 30.3666 5.92208 32.2166 3.16004 34.722C4.44871 35.8617 7.30523 38.1653 10.9218 39.8216C10.6988 38.6609 10.5601 37.4728 10.5133 36.2621H6.29915V34.2442H10.5184C10.5975 32.4999 10.8648 30.8017 11.3057 29.168ZM14.0482 43.1067C15.1692 43.3957 16.3319 43.5991 17.5235 43.6887C19.5016 47.8043 22.8842 51.1629 27.1179 53.2139C27.2124 54.3342 27.4371 55.4618 27.7903 56.5974C21.4236 54.1695 16.3889 49.2467 14.0482 43.1067ZM31.4912 59.7583C32.7442 61.9376 34.4993 64.1564 36.7702 66.4068C37.8801 65.2776 40.0395 62.8755 41.7393 59.8116C40.4362 60.0489 39.099 60.1933 37.7354 60.241V64.1492H35.6075V60.2353C34.2048 60.178 32.8293 60.0174 31.4912 59.7583ZM45.4197 56.7209C45.7729 55.6329 46.0359 54.5004 46.173 53.3349C50.5369 51.2985 54.0165 47.8875 56.0303 43.6725C57.2254 43.5692 58.3906 43.3529 59.5133 43.0502C57.1411 49.3226 51.9626 54.3334 45.4197 56.7209ZM63.0277 36.2621C62.9826 37.4389 62.8498 38.5948 62.637 39.7248C66.154 38.0774 68.922 35.8399 70.1852 34.7229C67.4989 32.2869 64.8526 30.4675 62.2599 29.2665C62.6847 30.8703 62.9443 32.5347 63.0234 34.2442H67.1439V36.2621H63.0277Z" fill="#DF0E12"/>
<path id="Shape_2" fill-rule="evenodd" clip-rule="evenodd" d="M59.241 18.0076C58.1618 18.0076 57.1463 17.608 56.3828 16.884C55.6185 16.16 55.198 15.1971 55.198 14.1728C55.198 13.1485 55.6193 12.1856 56.3828 11.4616C57.1463 10.7375 58.1609 10.3388 59.241 10.3388H59.2419C60.3212 10.3388 61.3366 10.7375 62.1001 11.4616C63.6765 12.9572 63.6765 15.3892 62.0993 16.884C61.3366 17.608 60.3203 18.0076 59.241 18.0076ZM59.2419 12.3575C58.7295 12.3575 58.2485 12.5464 57.8868 12.8894C57.5259 13.2316 57.3259 13.6877 57.3259 14.1744C57.3259 14.6587 57.5251 15.1147 57.8868 15.4578C58.6103 16.1447 59.8717 16.1447 60.5952 15.4578C61.3417 14.7491 61.3425 13.5973 60.5961 12.8894C60.2343 12.5464 59.7534 12.3575 59.2419 12.3575Z" fill="#DF0E12"/>
<path id="Shape_3" fill-rule="evenodd" clip-rule="evenodd" d="M14.1018 53.1445C15.181 53.1445 16.1965 53.544 16.96 54.268C17.7235 54.992 18.1439 55.955 18.1439 56.9784C18.1439 58.0019 17.7235 58.964 16.9591 59.6889C16.1948 60.4137 15.1793 60.8124 14.1001 60.8124C13.0208 60.8124 12.0053 60.4129 11.2418 59.6889C10.4783 58.9648 10.0579 58.0027 10.0579 56.9784C10.0587 55.9542 10.4792 54.9912 11.2427 54.268C12.007 53.5432 13.0216 53.1445 14.1018 53.1445ZM12.7468 58.2626C13.4695 58.9487 14.7309 58.9479 15.4553 58.2626C15.817 57.9204 16.0162 57.4635 16.0162 56.9784C16.0162 56.4925 15.817 56.0373 15.4553 55.6943C15.0935 55.3512 14.6126 55.1623 14.101 55.1623C13.5895 55.1623 13.1086 55.3512 12.7468 55.6943C12.3851 56.0373 12.1859 56.4933 12.1859 56.9784C12.1859 57.4635 12.3851 57.9196 12.7468 58.2626Z" fill="#DF0E12"/>
<path id="Shape_4" fill-rule="evenodd" clip-rule="evenodd" d="M56.3828 54.268C57.1455 53.5432 58.1601 53.1445 59.241 53.1445C60.322 53.1445 61.3366 53.5432 62.0993 54.2672C63.6765 55.7629 63.6765 58.194 62.0993 59.6897C61.3366 60.4137 60.3212 60.8124 59.2419 60.8124C58.1626 60.8124 57.1463 60.4129 56.3828 59.6889C55.6185 58.9656 55.198 58.0035 55.198 56.9784C55.198 55.955 55.6193 54.992 56.3828 54.268ZM57.8868 58.2618C58.6111 58.9471 59.8717 58.9495 60.5952 58.2626C61.3417 57.5539 61.3417 56.4029 60.5952 55.6934C60.2335 55.3504 59.7526 55.1615 59.241 55.1615C58.7295 55.1615 58.2485 55.3504 57.8868 55.6934C57.5251 56.0365 57.3259 56.4925 57.3259 56.9776C57.3259 57.4635 57.5251 57.9187 57.8868 58.2618Z" fill="#DF0E12"/>
<path id="Shape_5" fill-rule="evenodd" clip-rule="evenodd" d="M16.9592 16.8831C16.1958 17.6072 15.1812 18.0059 14.101 18.0059C13.0218 18.0059 12.0063 17.6072 11.2411 16.8823C9.66475 15.3875 9.66475 12.9555 11.2411 11.4607C12.0055 10.7367 13.02 10.338 14.1002 10.338C15.1803 10.338 16.1958 10.7375 16.9592 11.4615C18.5356 12.9564 18.5356 15.3883 16.9592 16.8831ZM14.1011 12.3558C13.5895 12.3558 13.1086 12.5455 12.7469 12.8886C12.0004 13.5964 12.0004 14.7482 12.7469 15.4561C13.4704 16.1422 14.7318 16.1422 15.4553 15.4561C15.817 15.1131 16.0162 14.657 16.0162 14.1719C16.0162 13.6868 15.817 13.2308 15.4553 12.8878C15.0935 12.5447 14.6126 12.3558 14.1011 12.3558Z" fill="#DF0E12"/>
<path id="Shape_6" fill-rule="evenodd" clip-rule="evenodd" d="M50.0475 58.7679C50.6408 58.4596 51.3106 58.2965 51.9847 58.2965C53.4649 58.2965 54.8251 59.0617 55.535 60.2918C56.6049 62.1466 55.8839 64.4809 53.9271 65.4955C53.3338 65.803 52.6648 65.9661 51.9916 65.9661C50.5114 65.9661 49.1504 65.2009 48.4405 63.97C47.9213 63.0724 47.8038 62.0368 48.1077 61.0537C48.4107 60.0706 49.1001 59.2586 50.0475 58.7679ZM50.3062 63.0022C50.7973 63.8529 51.9983 64.1976 52.9057 63.7254C53.8326 63.2444 54.1739 62.1386 53.6666 61.2596C53.3304 60.676 52.6852 60.3144 51.9839 60.3144C51.6613 60.3144 51.3531 60.3887 51.068 60.538C50.6186 60.7704 50.2917 61.1554 50.1479 61.6212C50.0049 62.0861 50.0611 62.5768 50.3062 63.0022Z" fill="#DF0E12"/>
<path id="Shape_7" fill-rule="evenodd" clip-rule="evenodd" d="M23.2952 12.3833C22.7019 12.6908 22.0321 12.8539 21.3579 12.8539C19.8786 12.8539 18.5184 12.0887 17.8086 10.8586C16.7395 9.00375 17.4613 6.66947 19.4164 5.65569C20.0105 5.34816 20.6804 5.18512 21.3537 5.18512C22.833 5.18512 24.194 5.9503 24.903 7.1804C25.4214 8.07876 25.5397 9.11514 25.2359 10.0974C24.932 11.0797 24.2425 11.8917 23.2952 12.3833ZM21.3529 7.20302C21.0303 7.20302 20.7213 7.27808 20.4362 7.42579C19.511 7.90605 19.1688 9.01184 19.6752 9.89083C20.1655 10.7432 21.3691 11.0838 22.2738 10.6132C22.7233 10.38 23.0501 9.99576 23.194 9.53004C23.337 9.06512 23.2816 8.57437 23.0356 8.14819C22.6994 7.56543 22.0551 7.20302 21.3529 7.20302Z" fill="#DF0E12"/>
<path id="Shape_8" fill-rule="evenodd" clip-rule="evenodd" d="M64.8448 45.9697C65.5028 45.9697 66.159 46.1263 66.7429 46.4217C67.6963 46.9027 68.3942 47.7075 68.71 48.6873C69.0258 49.6672 68.9194 50.7044 68.4112 51.6084C67.7065 52.8619 66.3386 53.64 64.8397 53.64C64.1818 53.64 63.5264 53.4842 62.9425 53.1896C61.9883 52.7078 61.2895 51.9038 60.9754 50.924C60.6605 49.9441 60.7669 48.9069 61.2751 48.0029C61.9773 46.7494 63.3459 45.9697 64.8448 45.9697ZM63.9411 51.4083C64.8552 51.87 66.052 51.5156 66.5337 50.6593C66.7738 50.2315 66.8231 49.7407 66.675 49.2766C66.5252 48.8125 66.1941 48.4307 65.7421 48.2031C65.4613 48.061 65.1591 47.9884 64.8442 47.9884C64.1343 47.9884 63.4866 48.3573 63.1529 48.9513C62.912 49.3799 62.8609 49.8723 63.0108 50.3364C63.1597 50.7997 63.4908 51.1807 63.9411 51.4083Z" fill="#DF0E12"/>
<path id="Shape_9" fill-rule="evenodd" clip-rule="evenodd" d="M8.49696 25.1791C7.83901 25.1791 7.18276 25.0233 6.59886 24.7287C4.63182 23.7335 3.88364 21.4073 4.93143 19.5419C5.63534 18.2884 7.00317 17.5095 8.50122 17.5095C9.15917 17.5095 9.81627 17.6653 10.4002 17.9607C12.3672 18.9543 13.1154 21.2805 12.0676 23.1467C11.3637 24.401 9.99587 25.1791 8.49696 25.1791ZM8.502 19.5282C7.79213 19.5282 7.14354 19.8971 6.80988 20.4911C6.31365 21.3742 6.66774 22.4759 7.60062 22.9481C8.51222 23.4098 9.70981 23.0563 10.1907 22.1991C10.6869 21.3152 10.3329 20.2135 9.40084 19.7429C9.1191 19.6 8.81693 19.5282 8.502 19.5282Z" fill="#DF0E12"/>
<path id="Shape_10" fill-rule="evenodd" clip-rule="evenodd" d="M21.7241 58.4854C22.3795 58.4854 23.034 58.6404 23.6162 58.9326C24.5704 59.4104 25.2709 60.2135 25.5884 61.1926C25.9059 62.1725 25.802 63.2105 25.2956 64.1153C24.5934 65.3728 23.223 66.155 21.7207 66.155C21.0653 66.155 20.4116 65.9992 19.8294 65.707C17.8615 64.7166 17.1073 62.3912 18.1509 60.5235C18.8531 59.2667 20.2218 58.4854 21.7241 58.4854ZM20.8269 63.9248C21.7445 64.3865 22.9361 64.0281 23.4161 63.1701C23.6562 62.7415 23.7055 62.25 23.5549 61.7866C23.4042 61.3233 23.0723 60.9432 22.6212 60.7172C22.3394 60.5751 22.0381 60.5041 21.724 60.5041C21.0124 60.5041 20.3639 60.8738 20.0311 61.4686C19.5374 62.3541 19.894 63.4558 20.8269 63.9248Z" fill="#DF0E12"/>
<path id="Shape_11" fill-rule="evenodd" clip-rule="evenodd" d="M51.6163 12.6658C50.9609 12.6658 50.3072 12.5108 49.725 12.2187C48.7708 11.7392 48.0695 10.9369 47.7528 9.95782C47.4362 8.97875 47.54 7.94156 48.0456 7.03594C48.7487 5.77839 50.1182 4.99707 51.6205 4.99707C52.2759 4.99707 52.9296 5.15204 53.511 5.44423C55.4814 6.43461 56.2347 8.7592 55.1903 10.627C54.4881 11.8845 53.1186 12.6658 51.6163 12.6658ZM51.6206 7.01493C50.9082 7.01493 50.2596 7.38541 49.926 7.98109C49.6868 8.40969 49.6366 8.90124 49.7872 9.36535C49.9379 9.82947 50.2698 10.2096 50.7209 10.4364C51.6402 10.8965 52.8301 10.5406 53.3102 9.68256C53.8047 8.79793 53.4481 7.69616 52.5144 7.22721C52.2352 7.08596 51.9339 7.01493 51.6206 7.01493Z" fill="#DF0E12"/>
<path id="Shape_12" fill-rule="evenodd" clip-rule="evenodd" d="M12.2462 48.3169C12.7663 49.212 12.8889 50.2476 12.5875 51.2315C12.2871 52.2162 11.5993 53.0306 10.6528 53.5238C10.057 53.8346 9.38375 53.9992 8.70622 53.9992C7.23029 53.9992 5.87098 53.2381 5.16111 52.0112C4.08778 50.1596 4.80362 47.8245 6.75534 46.8051C7.35201 46.4935 8.02443 46.3289 8.70111 46.3289C10.1762 46.3289 11.5355 47.0908 12.2462 48.3169ZM9.62721 51.7561C10.0758 51.5221 10.4018 51.1362 10.5439 50.6705C10.6861 50.2048 10.6282 49.7148 10.3822 49.2903C10.0451 48.7075 9.4008 48.3467 8.70114 48.3467C8.3777 48.3467 8.06787 48.4218 7.78188 48.5719C6.85666 49.0554 6.51704 50.162 7.02604 51.0394C7.51631 51.8861 8.72582 52.2267 9.62721 51.7561Z" fill="#DF0E12"/>
<path id="Shape_13" fill-rule="evenodd" clip-rule="evenodd" d="M61.0948 22.8343C60.5739 21.9368 60.453 20.9012 60.7543 19.9181C61.0557 18.935 61.7426 18.1214 62.6891 17.6274C63.2849 17.3166 63.9573 17.1528 64.634 17.1528C66.1099 17.1528 67.4692 17.9139 68.1799 19.1392C69.2541 20.9916 68.5391 23.3267 66.5857 24.3461C65.9899 24.6569 65.3166 24.8215 64.6399 24.8215C63.1649 24.8215 61.8064 24.0604 61.0948 22.8343ZM63.7147 19.395C63.2662 19.6291 62.9402 20.0149 62.798 20.4806C62.655 20.9464 62.712 21.4363 62.958 21.8609C63.4517 22.7108 64.6527 23.0514 65.5601 22.5776C66.4853 22.0949 66.8249 20.9883 66.315 20.111C65.978 19.5306 65.3345 19.1698 64.634 19.1698C64.3148 19.1698 63.9973 19.2473 63.7147 19.395Z" fill="#DF0E12"/>
</g>
</g>
</svg>
