<svg viewBox="0 0 452 265" fill="none" xmlns="http://www.w3.org/2000/svg">
<g id="noun_rangoli_1570659 copy 3" opacity="0.1229">
<g id="Group">
<path id="Shape" fill-rule="evenodd" clip-rule="evenodd" d="M379.285 -12.0143C401.691 -3.33134 424.486 12.5367 447.418 35.4635L451.924 39.9627L447.554 44.6038C446.045 46.2069 419.759 73.717 382.971 88.928C367.822 141.573 326.702 183.327 274.402 199.331C258.974 234.326 233.066 259.093 231.457 260.606L226.814 264.974L222.307 260.47C201.484 239.656 186.53 219.01 177.443 198.674C126.3 182.27 86.1632 141.168 71.0823 89.4747C33.5797 74.3951 6.64634 46.2279 5.12141 44.6091L0.74646 39.968L5.25813 35.4583C28.6841 12.0479 51.9576 -3.9726 74.821 -12.5294C91.6319 -57.4844 127.846 -93.031 173.226 -108.988C181.46 -132.762 197.814 -157.008 222.307 -181.49L226.814 -186L231.457 -181.627C233.224 -179.966 264.332 -150.227 278.63 -109.677C325.14 -94.0244 362.306 -57.8891 379.285 -12.0143ZM341.02 -19.8038C348.287 -19.6829 355.617 -18.7474 362.99 -17.0286C347.267 -51.8342 318.583 -79.5598 283.099 -94.0192C284.603 -87.118 285.513 -80.0066 285.66 -72.7322C309.06 -61.0428 328.3 -42.5625 341.02 -19.8038ZM285.607 145.771L285.593 145.317C285.562 144.371 285.532 143.428 285.466 142.471C284.64 131.018 281.769 120.075 276.968 109.642C284.251 104.071 290.619 97.3745 295.709 89.7322C306.956 95.0251 318.814 98.0262 331.25 98.678C320.896 118.577 305.027 134.982 285.618 146.082L285.607 145.771ZM157.914 89.2855C146.761 94.6834 135.008 97.837 122.672 98.6412C132.847 118.146 148.343 134.335 167.263 145.457C167.287 145.131 167.31 144.806 167.332 144.481L167.333 144.479C167.42 143.234 167.507 141.99 167.657 140.753C169.061 129.21 172.484 118.866 176.901 109.626C169.492 103.955 163.051 97.1012 157.914 89.2855ZM341.977 58.3378C333.99 58.3378 327.496 51.8466 327.496 43.868C327.496 35.884 333.99 29.3928 341.977 29.3928C349.965 29.3928 356.459 35.884 356.459 43.868C356.459 51.8466 349.959 58.3378 341.977 58.3378ZM309.181 37.6028H315.128C317.936 25.6295 328.505 16.6627 341.246 16.321C339.332 8.36862 336.556 0.789413 333.138 -6.42189C320.229 -5.44952 308.765 -1.55479 298.848 3.696C304.595 13.8665 308.213 25.3562 309.181 37.6028ZM296.04 50.7481C295.33 58.1696 293.442 65.2495 290.577 71.8143C278.929 64.2561 268.029 53.6599 257.943 39.9942C262.281 33.9393 272.488 21.2091 287.658 10.5551C292.191 18.7125 295.125 27.8633 296.04 37.6027H279.844V50.7428H296.04V50.7481ZM230.716 57.6966C248.163 69.9064 261.477 83.3777 270.647 97.9842C275.827 93.7794 280.375 88.8545 284.167 83.3514C269.832 74.2059 256.587 61.0658 244.55 43.8785L242.089 40.3727L244.308 36.7092C245.139 35.3322 257.46 15.3802 280.081 -0.440506C276.127 -5.14467 271.557 -9.3022 266.504 -12.8185C257.612 -0.577164 245.681 10.8179 230.721 21.288L227.213 23.7426L223.548 21.5298C222.281 20.7624 203.104 8.94153 187.413 -12.829C182.16 -9.17606 177.406 -4.83981 173.347 0.0903473C195.479 15.8217 207.531 35.3427 208.357 36.7092L210.566 40.3674L208.11 43.8732C196.305 60.7241 183.343 73.6908 169.335 82.81C173.189 88.5338 177.89 93.6427 183.238 97.9842C199.47 72.2716 222.16 58.2906 223.543 57.4548L227.208 55.2421L230.716 57.6966ZM226.341 173.929C218.353 173.929 211.859 167.438 211.859 159.454C211.859 151.47 218.353 144.978 226.341 144.978C234.323 144.978 240.817 151.47 240.817 159.454C240.817 167.438 234.318 173.929 226.341 173.929ZM219.762 113.153V96.6912H232.903V113.227C242.521 112.407 251.586 109.647 259.689 105.295C252.075 93.054 241.117 81.6221 226.83 71.089C220.178 75.851 205.444 87.6245 194.286 105.332C202.021 109.479 210.629 112.207 219.762 113.153ZM112.508 71.294C124.754 70.4898 134.824 61.7595 137.543 50.1332H144.683C145.388 59.8831 147.765 69.1653 151.582 77.6906C140.624 82.8941 129.066 85.5852 116.951 85.6851C115.189 81.0177 113.67 76.2294 112.508 71.294ZM112.629 16.4524C124.602 17.2986 134.424 25.7136 137.348 36.993H144.741C145.761 25.1774 149.258 14.0662 154.748 4.19005C144.931 -1.13957 133.573 -5.19725 120.753 -6.35358C117.319 0.878738 114.548 8.48424 112.629 16.4524ZM110.693 29.3928C118.681 29.3928 125.175 35.884 125.175 43.868C125.175 51.8466 118.681 58.3378 110.693 58.3378C102.706 58.3378 96.212 51.8466 96.212 43.868C96.2172 35.8893 102.711 29.3928 110.693 29.3928ZM173.794 50.1331H157.829C158.466 57.5494 160.238 64.6451 163.04 71.2204C174.33 63.7095 184.91 53.2868 194.722 39.9942C190.468 34.0549 180.577 21.6874 165.88 11.1648C161.631 18.9963 158.85 27.7266 157.893 36.993H173.794V50.1331ZM180.693 -63.4658C180.682 -63.5552 180.677 -63.6432 180.672 -63.7313C180.666 -63.8193 180.661 -63.9073 180.651 -63.9967C186.493 -66.488 192.592 -68.5116 198.881 -70.0464C199.644 -57.6316 208.546 -47.4086 220.378 -44.7911V-38.0581C210.234 -37.2539 200.627 -34.5996 191.84 -30.4473C186.44 -39.9713 182.191 -51.009 180.693 -63.4658ZM240.817 -71.723C240.817 -79.707 234.323 -86.1982 226.341 -86.1982C218.353 -86.1982 211.859 -79.707 211.859 -71.723C211.859 -63.7391 218.353 -57.2479 226.341 -57.2479C234.323 -57.2479 240.817 -63.7391 240.817 -71.723ZM253.821 -70.3354C260.215 -68.848 266.415 -66.8769 272.346 -64.4119V-64.3908C271.478 -52.5016 268.06 -41.1644 262.124 -30.4263C253.316 -34.5943 243.688 -37.2591 233.523 -38.0685V-45.1852C244.818 -48.2442 253.206 -58.236 253.821 -70.3354ZM220.378 -9.30746V-24.9232C212.869 -24.2136 205.712 -22.2899 199.081 -19.3728C209.361 -5.54413 221.093 3.79587 226.83 7.90083C238.361 -0.608704 247.705 -9.70692 254.899 -19.336C248.247 -22.2741 241.069 -24.2136 233.523 -24.9232V-9.30746H220.378ZM291.329 -7.41533C286.244 -13.7436 280.27 -19.315 273.571 -23.9193C279.581 -34.7573 283.373 -46.1997 284.913 -58.194C301.751 -48.7016 315.969 -35.2408 326.286 -18.9629C313.13 -17.1916 301.44 -12.9026 291.329 -7.41533ZM232.914 -98.4605C240.722 -96.5368 247.158 -91.3018 250.776 -84.3165C258.143 -82.9605 265.268 -81.0052 272.13 -78.4981C271.499 -85.578 270.127 -92.5107 268.129 -99.1964C256.876 -102.434 245.081 -104.389 232.914 -104.868V-98.4605ZM219.768 -98.4605C211.859 -96.5158 205.344 -91.1704 201.758 -84.059C194.338 -82.6083 187.161 -80.5427 180.262 -77.9094C180.609 -84.7318 181.776 -91.6382 183.737 -98.613C195.232 -102.098 207.3 -104.242 219.773 -104.836V-98.4605H219.768ZM180.367 -23.9403C174.84 -33.7271 170.444 -45.0329 168.346 -57.7788C151.772 -48.2706 137.753 -34.8939 127.562 -18.7947C140.619 -16.8762 152.203 -12.4821 162.215 -6.93176C167.384 -13.4598 173.484 -19.2204 180.367 -23.9403ZM98.6676 19.1277C91.49 22.6335 86.0844 29.109 84.0441 36.993H77.9129C78.5597 23.3641 81.0679 10.224 85.1431 -2.21707C92.2787 -4.45615 99.3354 -5.83322 106.308 -6.40088C102.916 1.7092 100.387 10.2661 98.6676 19.1277ZM98.5519 68.5451C91.2375 64.9342 85.7478 58.2538 83.8495 50.1332V50.1384H77.8813C78.2809 60.1932 79.6849 69.9905 81.9881 79.4461C88.6136 81.7641 95.502 83.5511 102.575 84.6076C100.887 79.3988 99.5878 74.0219 98.5519 68.5451ZM180.693 142.45C181.813 133.121 184.495 124.59 188.028 116.885C197.635 122.041 208.373 125.316 219.768 126.304V132.721C208.078 135.602 199.355 145.877 198.834 158.313C192.372 156.736 186.135 154.629 180.156 152.048C180.167 148.826 180.309 145.63 180.693 142.45ZM219.762 186.191C212.08 184.304 205.728 179.201 202.078 172.389C194.906 171.012 187.955 169.056 181.261 166.565C182.386 173.582 184.358 180.683 187.155 187.857C197.619 190.753 208.52 192.561 219.762 193.098V186.191ZM232.908 186.191C240.496 184.331 246.785 179.327 250.461 172.641C257.454 171.374 264.243 169.572 270.789 167.269C269.38 174.607 267.203 181.702 264.532 188.488C254.368 191.137 243.788 192.709 232.908 193.14V186.191ZM232.908 132.716C244.687 135.612 253.479 146.03 253.873 158.597C260.31 157.104 266.53 155.102 272.493 152.621C272.604 149.557 272.577 146.471 272.351 143.37C271.683 134.219 269.464 125.4 265.789 116.922C255.861 122.236 244.719 125.515 232.908 126.362V132.716ZM336.477 85.7113C324.451 85.7113 312.983 83.1569 302.092 78.1531C305.947 69.6804 308.408 60.456 309.186 50.7481H315.328C318.357 62.4481 328.805 71.1469 341.383 71.4202C340.221 76.324 338.701 81.0598 336.966 85.6956C336.872 85.6926 336.781 85.6979 336.691 85.7031L336.69 85.7032C336.619 85.7073 336.549 85.7113 336.477 85.7113ZM368.821 50.1332C367.044 57.7334 362.106 64.0564 355.486 67.804C354.445 73.4858 353.12 79.0519 351.39 84.4341C358.494 83.2831 365.382 81.3751 372.008 78.9784C374.248 69.6699 375.62 60.025 376.009 50.1332H368.821ZM368.632 36.993C366.723 29.624 361.869 23.506 355.375 19.8688C353.672 10.7811 351.111 2.01927 347.667 -6.28003C354.665 -5.60725 361.749 -4.11453 368.905 -1.75983C372.901 10.5393 375.347 23.5323 375.988 36.993H368.632ZM262.65 -114.155C251.817 -139.027 234.948 -158.858 226.945 -167.441C209.445 -149.16 196.836 -131.2 189.132 -113.666C199.029 -116.037 209.267 -117.519 219.768 -117.976V-143.994H232.913V-118.003C243.088 -117.635 253.027 -116.321 262.65 -114.155ZM168.946 -93.2886C167.552 -86.1719 166.916 -79.1078 167.021 -72.0962C144.237 -60.37 125.464 -42.1367 112.955 -19.8564C105.709 -19.8301 98.4047 -18.9681 91.0482 -17.344C106.529 -51.3979 134.414 -78.6715 168.946 -93.2886ZM69.6309 3.93774C53.1775 11.743 36.3718 23.7898 19.3084 40.1046C27.2696 47.5261 44.9167 62.5269 67.2594 73.3123C65.8817 65.7541 65.0246 58.0172 64.7354 50.1331H38.7013V36.993H64.767C65.256 25.6347 66.9071 14.576 69.6309 3.93774ZM86.5734 94.7044C93.4986 96.5861 100.682 97.9106 108.043 98.494C120.264 125.295 141.16 147.165 167.315 160.521C167.899 167.816 169.287 175.159 171.47 182.554C132.137 166.744 101.034 134.687 86.5734 94.7044ZM194.333 203.137C202.073 217.328 212.916 231.777 226.945 246.431C233.802 239.078 247.143 223.436 257.644 203.484C249.593 205.029 241.332 205.97 232.908 206.28V231.73H219.762V206.243C211.097 205.87 202.599 204.824 194.333 203.137ZM280.381 183.358C282.563 176.273 284.188 168.899 285.034 161.309C311.994 148.048 333.49 125.836 345.931 98.3889C353.314 97.7162 360.513 96.3075 367.449 94.3365C352.794 135.181 320.802 167.811 280.381 183.358ZM389.16 50.1331C388.882 57.7964 388.061 65.3231 386.747 72.6815C408.474 61.954 425.574 47.3842 433.378 40.1098C416.783 24.2471 400.434 12.4 384.417 4.57896C387.041 15.0227 388.645 25.8607 389.134 36.993H414.59V50.1331H389.16Z" fill="url(#paint0_linear)"/>
<path id="Shape_2" opacity="0.5" fill-rule="evenodd" clip-rule="evenodd" d="M86.9047 160.069C93.5723 160.069 99.8455 162.67 104.562 167.385C109.279 172.1 111.877 178.37 111.877 185.035C111.877 191.699 109.279 197.965 104.557 202.685C99.835 207.405 93.5618 210.001 86.8942 210.001C80.2266 210.001 73.9534 207.399 69.2366 202.685C64.5199 197.97 61.9222 191.705 61.9222 185.035C61.9275 178.365 64.5251 172.094 69.2419 167.385C73.9639 162.665 80.2318 160.069 86.9047 160.069ZM78.5334 193.397C82.9977 197.865 90.7906 197.86 95.2655 193.397C97.5003 191.169 98.7307 188.194 98.7307 185.035C98.7307 181.871 97.5003 178.906 95.2655 176.672C93.0307 174.439 90.0597 173.209 86.8994 173.209C83.7391 173.209 80.7682 174.439 78.5334 176.672C76.2986 178.906 75.0681 181.876 75.0681 185.035C75.0681 188.194 76.2986 191.163 78.5334 193.397Z" fill="#DF0E12"/>
<path id="Shape_3" opacity="0.5" fill-rule="evenodd" clip-rule="evenodd" d="M348.108 167.385C352.82 162.665 359.088 160.069 365.766 160.069C372.444 160.069 378.712 162.665 383.423 167.38C393.167 177.119 393.167 192.95 383.423 202.69C378.712 207.405 372.439 210.001 365.771 210.001C359.104 210.001 352.825 207.399 348.108 202.685C343.386 197.975 340.789 191.71 340.789 185.035C340.789 178.37 343.392 172.1 348.108 167.385ZM357.4 193.392C361.875 197.854 369.662 197.87 374.132 193.397C378.744 188.782 378.744 181.287 374.132 176.667C371.897 174.433 368.926 173.203 365.766 173.203C362.606 173.203 359.635 174.433 357.4 176.667C355.165 178.901 353.935 181.871 353.935 185.03C353.935 188.194 355.165 191.158 357.4 193.392Z" fill="#DF0E12"/>
<path id="Shape_4" opacity="0.5" fill-rule="evenodd" clip-rule="evenodd" d="M308.97 196.688C312.635 194.68 316.774 193.618 320.938 193.618C330.083 193.618 338.486 198.601 342.871 206.611C349.481 218.689 345.027 233.89 332.938 240.497C329.273 242.499 325.14 243.561 320.98 243.561C311.836 243.561 303.428 238.578 299.043 230.563C295.835 224.718 295.109 217.975 296.987 211.573C298.859 205.171 303.118 199.883 308.97 196.688ZM310.569 224.261C313.603 229.801 321.023 232.045 326.628 228.97C332.354 225.838 334.463 218.637 331.329 212.913C329.252 209.113 325.266 206.758 320.933 206.758C318.94 206.758 317.037 207.242 315.275 208.214C312.499 209.728 310.48 212.235 309.591 215.268C308.707 218.295 309.055 221.491 310.569 224.261Z" fill="#DF0E12"/>
<path id="Shape_5" opacity="0.5" fill-rule="evenodd" clip-rule="evenodd" d="M400.387 113.348C404.452 113.348 408.506 114.367 412.113 116.291C418.002 119.424 422.314 124.664 424.265 131.045C426.216 137.426 425.559 144.18 422.419 150.066C418.065 158.229 409.615 163.296 400.355 163.296C396.291 163.296 392.242 162.281 388.634 160.363C382.74 157.225 378.423 151.99 376.482 145.609C374.537 139.228 375.194 132.474 378.333 126.588C382.671 118.425 391.127 113.348 400.387 113.348ZM394.803 148.763C400.45 151.769 407.843 149.462 410.82 143.885C412.302 141.1 412.607 137.904 411.692 134.882C410.767 131.859 408.721 129.373 405.929 127.891C404.194 126.966 402.327 126.493 400.382 126.493C395.996 126.493 391.995 128.895 389.933 132.763C388.445 135.554 388.13 138.761 389.055 141.783C389.975 144.8 392.021 147.281 394.803 148.763Z" fill="#DF0E12"/>
<path id="Shape_6" opacity="0.5" fill-rule="evenodd" clip-rule="evenodd" d="M133.993 194.848C138.042 194.848 142.086 195.857 145.683 197.76C151.577 200.871 155.905 206.101 157.866 212.477C159.828 218.858 159.186 225.617 156.057 231.509C151.719 239.698 143.253 244.791 133.972 244.791C129.923 244.791 125.885 243.776 122.288 241.874C110.131 235.425 105.472 220.282 111.919 208.119C116.257 199.936 124.712 194.848 133.993 194.848ZM128.451 230.268C134.119 233.275 141.481 230.941 144.447 225.354C145.93 222.563 146.235 219.362 145.304 216.345C144.373 213.328 142.323 210.853 139.536 209.381C137.795 208.456 135.934 207.993 133.993 207.993C129.597 207.993 125.59 210.401 123.534 214.274C120.485 220.04 122.688 227.215 128.451 230.268Z" fill="#DF0E12"/>
<path id="Shape_7" opacity="0.5" fill-rule="evenodd" clip-rule="evenodd" d="M75.4414 128.632C78.6543 134.461 79.4115 141.205 77.55 147.612C75.6938 154.024 71.4451 159.328 65.5978 162.539C61.9169 164.563 57.7576 165.635 53.5719 165.635C44.4539 165.635 36.0563 160.678 31.6708 152.689C25.0401 140.632 29.4623 125.426 41.5197 118.788C45.2059 116.759 49.36 115.687 53.5404 115.687C62.6531 115.687 71.0507 120.648 75.4414 128.632ZM59.2615 151.028C62.0327 149.504 64.0466 146.992 64.9248 143.959C65.8029 140.926 65.4454 137.736 63.9257 134.971C61.8434 131.176 57.8628 128.827 53.5404 128.827C51.5423 128.827 49.6282 129.316 47.8614 130.293C42.1456 133.442 40.0475 140.648 43.192 146.361C46.2208 151.874 53.6929 154.093 59.2615 151.028Z" fill="#DF0E12"/>
</g>
</g>
<defs>
<linearGradient id="paint0_linear" x1="0.74646" y1="-186" x2="0.74646" y2="264.974" gradientUnits="userSpaceOnUse">
<stop stop-color="#D91114"/>
<stop offset="1"/>
</linearGradient>
</defs>
</svg>
