<svg viewBox="0 0 63 47" fill="none" xmlns="http://www.w3.org/2000/svg">
<g opacity="0.3">
<path fill-rule="evenodd" clip-rule="evenodd" d="M52.5607 8.53971C55.6718 9.74536 58.8369 11.9487 62.021 15.1321L62.6467 15.7568L62.04 16.4012C61.8304 16.6238 58.1805 20.4436 53.0725 22.5557C50.969 29.8655 45.2594 35.6631 37.9975 37.8854C35.8553 42.7445 32.2579 46.1833 32.0345 46.3935L31.3898 47L30.7641 46.3745C27.8728 43.4845 25.7963 40.6178 24.5346 37.7942C17.4333 35.5164 11.8603 29.8093 9.76624 22.6316C4.55894 20.5378 0.819207 16.6267 0.607469 16.402L0 15.7575L0.626453 15.1314C3.87919 11.8808 7.11075 9.65632 10.2854 8.46819C12.6196 2.22612 17.648 -2.70958 23.949 -4.92529C25.0924 -8.22622 27.3631 -11.5928 30.7641 -14.9923L31.3898 -15.6185L32.0345 -15.0113C32.2798 -14.7806 36.5993 -10.6514 38.5845 -5.02089C45.0425 -2.84752 50.2031 2.16993 52.5607 8.53971ZM47.2475 7.45815C48.2566 7.47493 49.2744 7.60484 50.298 7.84349C48.1149 3.01068 44.1321 -0.839066 39.2051 -2.84677C39.414 -1.88853 39.5403 -0.9011 39.5607 0.108957C42.8098 1.73206 45.4813 4.29807 47.2475 7.45815ZM39.5548 30.4917L39.5513 30.3853V30.3852V30.3851V30.385V30.385V30.3849V30.3848V30.3848V30.3847V30.3846V30.3846V30.3845V30.3844V30.3844V30.3843V30.3842V30.3842V30.3841V30.384V30.3839V30.3839V30.3838V30.3837V30.3837V30.3836V30.3835V30.3835V30.3834V30.3833V30.3833V30.3832V30.3831V30.3831V30.383V30.3829V30.3829C39.5471 30.2524 39.5429 30.1223 39.5337 29.9903C39.419 28.4001 39.0204 26.8806 38.3538 25.4319C39.365 24.6583 40.2492 23.7285 40.956 22.6674C42.5177 23.4023 44.1642 23.819 45.8909 23.9095C44.4533 26.6726 42.2498 28.9503 39.5548 30.4917ZM21.8229 22.6054C20.2743 23.3549 18.6424 23.7928 16.9296 23.9044C18.3424 26.6127 20.4941 28.8606 23.1211 30.4048C23.1244 30.3596 23.1276 30.3144 23.1307 30.2692C23.1429 30.0963 23.155 29.9235 23.1758 29.7517C23.3708 28.149 23.8461 26.7127 24.4594 25.4297C23.4306 24.6423 22.5362 23.6906 21.8229 22.6054ZM47.3804 18.3082C46.2713 18.3082 45.3696 17.4069 45.3696 16.2991C45.3696 15.1905 46.2713 14.2892 47.3804 14.2892C48.4895 14.2892 49.3912 15.1905 49.3912 16.2991C49.3912 17.4069 48.4888 18.3082 47.3804 18.3082ZM42.8266 15.4291H43.6523C44.0422 13.7666 45.5098 12.5216 47.2789 12.4741C47.0131 11.3699 46.6276 10.3175 46.153 9.31624C44.3606 9.45126 42.7689 9.99205 41.3918 10.7211C42.1899 12.1333 42.6922 13.7287 42.8266 15.4291ZM41.002 17.2544C40.9034 18.2849 40.6413 19.2679 40.2434 20.1794C38.6261 19.13 37.1126 17.6587 35.7122 15.7612C36.3145 14.9204 37.7317 13.1528 39.8382 11.6735C40.4675 12.8062 40.8749 14.0768 41.002 15.4291H38.7532V17.2536H41.002V17.2544ZM31.9315 18.2192C34.3541 19.9146 36.2028 21.7851 37.4761 23.8132C38.1953 23.2294 38.8269 22.5455 39.3533 21.7814C37.363 20.5115 35.5238 18.687 33.8525 16.3005L33.5108 15.8138L33.8189 15.3051C33.9343 15.1139 35.645 12.3435 38.786 10.1468C38.2369 9.49359 37.6025 8.91631 36.9008 8.42807C35.6661 10.1278 34.0095 11.71 31.9323 13.1638L31.4453 13.5046L30.9364 13.1974C30.7604 13.0908 28.0976 11.4495 25.9189 8.42661C25.1895 8.93383 24.5295 9.53592 23.9658 10.2205C27.0389 12.4048 28.7124 15.1153 28.827 15.3051L29.1337 15.813L28.7927 16.2998C27.1535 18.6396 25.3538 20.44 23.4087 21.7062C23.9439 22.501 24.5966 23.2104 25.3392 23.8132C27.5931 20.243 30.7436 18.3017 30.9356 18.1856L31.4445 17.8784L31.9315 18.2192ZM31.3241 34.3582C30.2151 34.3582 29.3134 33.4569 29.3134 32.3483C29.3134 31.2398 30.2151 30.3384 31.3241 30.3384C32.4325 30.3384 33.3342 31.2398 33.3342 32.3483C33.3342 33.4569 32.4317 34.3582 31.3241 34.3582ZM30.4107 25.9194V23.6337H32.2353V25.9296C33.5707 25.8158 34.8295 25.4327 35.9546 24.8284C34.8974 23.1286 33.3758 21.5413 31.392 20.0788C30.4684 20.74 28.4226 22.3747 26.8732 24.8335C27.9472 25.4093 29.1425 25.7881 30.4107 25.9194ZM15.5182 20.1072C17.2187 19.9956 18.6169 18.7833 18.9944 17.169H19.9859C20.0837 18.5228 20.4138 19.8116 20.9438 20.9954C19.4223 21.7179 17.8174 22.0916 16.1352 22.1054C15.8906 21.4574 15.6796 20.7925 15.5182 20.1072ZM15.535 12.4924C17.1975 12.6099 18.5614 13.7783 18.9673 15.3445H19.9939C20.1355 13.7039 20.6211 12.1611 21.3833 10.7897C20.0202 10.0497 18.4431 9.4863 16.663 9.32574C16.1862 10.33 15.8015 11.386 15.535 12.4924ZM15.2663 14.2892C16.3754 14.2892 17.2771 15.1905 17.2771 16.2991C17.2771 17.4069 16.3754 18.3082 15.2663 18.3082C14.1573 18.3082 13.2556 17.4069 13.2556 16.2991C13.2563 15.1912 14.158 14.2892 15.2663 14.2892ZM24.0279 17.169H21.8112C21.8996 18.1987 22.1456 19.184 22.5348 20.097C24.1024 19.0541 25.5714 17.6069 26.9338 15.7612C26.3432 14.9365 24.9698 13.2193 22.9291 11.7582C22.3391 12.8456 21.9529 14.0578 21.82 15.3445H24.0279V17.169ZM24.9858 1.39563C24.9844 1.38325 24.9837 1.37106 24.9829 1.35887L24.9829 1.35877C24.9822 1.34655 24.9815 1.33432 24.98 1.32192C25.7912 0.975986 26.6381 0.695009 27.5114 0.481905C27.6172 2.20572 28.8533 3.6252 30.4961 3.98864V4.92353C29.0877 5.03519 27.7538 5.40375 26.5337 5.9803C25.7839 4.65788 25.1939 3.12528 24.9858 1.39563ZM33.3342 0.249061C33.3342 -0.859521 32.4325 -1.76084 31.3241 -1.76084C30.2151 -1.76084 29.3134 -0.859521 29.3134 0.249061C29.3134 1.35764 30.2151 2.25896 31.3241 2.25896C32.4325 2.25896 33.3342 1.35764 33.3342 0.249061ZM35.1398 0.441748C36.0276 0.648285 36.8884 0.921963 37.712 1.26424V1.26716C37.5916 2.91799 37.117 4.4922 36.2927 5.9832C35.0697 5.40446 33.7328 5.03444 32.3215 4.92205V3.93389C33.8898 3.50914 35.0543 2.12177 35.1398 0.441748ZM30.4961 8.91558V6.74732C29.4535 6.84584 28.4598 7.11295 27.5391 7.518C28.9665 9.43813 30.5954 10.735 31.392 11.305C32.9932 10.1234 34.2906 8.86012 35.2894 7.52311C34.3658 7.11514 33.3692 6.84584 32.3215 6.74732V8.91558H30.4961ZM40.3478 9.1783C39.6418 8.29961 38.8124 7.52601 37.8822 6.8867C38.7167 5.38183 39.2431 3.79303 39.4571 2.12761C41.7949 3.44564 43.7692 5.31469 45.2017 7.57491C43.3749 7.82086 41.7519 8.41638 40.3478 9.1783ZM32.2367 -3.46346C33.321 -3.19635 34.2146 -2.46946 34.717 -1.49954C35.7399 -1.31125 36.7292 -1.03976 37.682 -0.691643C37.5944 -1.6747 37.4039 -2.63732 37.1264 -3.56564C35.5639 -4.0152 33.9262 -4.28669 32.2367 -4.3531V-3.46346ZM30.4114 -3.46345C29.3133 -3.19342 28.4087 -2.4512 27.9107 -1.46377C26.8805 -1.26234 25.8839 -0.975524 24.9259 -0.609889C24.9741 -1.55718 25.1362 -2.51615 25.4086 -3.48461C27.0046 -3.96848 28.6803 -4.26624 30.4122 -4.34871V-3.46345H30.4114ZM24.9405 6.88377C24.1732 5.52486 23.5628 3.95504 23.2715 2.18525C20.9701 3.50547 19.0236 5.36284 17.6086 7.59825C19.4215 7.86463 21.03 8.47475 22.4201 9.24543C23.1379 8.33901 23.9848 7.53913 24.9405 6.88377ZM13.5965 12.8639C12.5999 13.3506 11.8493 14.2498 11.566 15.3445H10.7147C10.8045 13.4521 11.1528 11.6276 11.7186 9.9001C12.7094 9.5892 13.6893 9.39799 14.6574 9.31917C14.1865 10.4453 13.8353 11.6334 13.5965 12.8639ZM13.5804 19.7255C12.5648 19.2242 11.8025 18.2966 11.539 17.169V17.1697H10.7103C10.7657 18.5659 10.9607 19.9262 11.2805 21.2392C12.2005 21.561 13.1569 21.8091 14.139 21.9558C13.9046 21.2326 13.7242 20.486 13.5804 19.7255ZM24.9858 29.9874C25.1413 28.692 25.5137 27.5075 26.0043 26.4376C27.3383 27.1535 28.8292 27.6082 30.4114 27.7454V28.6365C28.7883 29.0364 27.577 30.4632 27.5047 32.1899C26.6074 31.971 25.7415 31.6783 24.9113 31.32C24.9128 30.8726 24.9325 30.4289 24.9858 29.9874ZM30.4107 36.0609C29.344 35.7989 28.462 35.0902 27.9552 34.1444C26.9594 33.9532 25.9941 33.6817 25.0647 33.3357C25.2209 34.31 25.4947 35.296 25.8831 36.2922C27.3361 36.6943 28.8497 36.9454 30.4107 37.0198V36.0609ZM32.236 36.0609C33.2896 35.8025 34.1629 35.1077 34.6732 34.1794C35.6443 34.0035 36.5869 33.7532 37.4959 33.4335C37.3002 34.4524 36.998 35.4376 36.6271 36.3798C35.2157 36.7476 33.7467 36.9658 32.236 37.0257V36.0609ZM32.236 28.6358C33.8715 29.0379 35.0923 30.4844 35.1471 32.2294C36.0408 32.0221 36.9045 31.7441 37.7325 31.3996C37.7478 30.9741 37.7442 30.5457 37.7128 30.1151C37.62 28.8445 37.3119 27.6199 36.8016 26.4427C35.4231 27.1806 33.8759 27.636 32.236 27.7535V28.6358ZM46.6167 22.1091C44.9469 22.1091 43.3545 21.7544 41.8424 21.0596C42.3776 19.8832 42.7193 18.6023 42.8273 17.2544H43.6801C44.1007 18.8789 45.5514 20.0868 47.2979 20.1247C47.1366 20.8056 46.9256 21.4632 46.6846 22.1069C46.6716 22.1065 46.659 22.1072 46.6465 22.1079L46.6464 22.1079C46.6365 22.1085 46.6267 22.1091 46.6167 22.1091ZM51.1077 17.169C50.8609 18.2243 50.1753 19.1023 49.2561 19.6226C49.1115 20.4116 48.9275 21.1844 48.6873 21.9317C49.6737 21.7719 50.6302 21.507 51.5501 21.1742C51.8612 19.8817 52.0517 18.5425 52.1058 17.169H51.1077ZM51.0815 15.3445C50.8164 14.3213 50.1425 13.4718 49.2408 12.9667C49.0042 11.7049 48.6487 10.4883 48.1704 9.33594C49.1422 9.42936 50.1257 9.63663 51.1194 9.96358C51.6743 11.6713 52.0138 13.4754 52.1029 15.3445H51.0815ZM36.3656 -5.64268C34.8615 -9.09614 32.5193 -11.8497 31.408 -13.0415C28.9781 -10.5032 27.2273 -8.00945 26.1576 -5.57481C27.5317 -5.90395 28.9533 -6.10976 30.4114 -6.17325V-9.78581H32.2367V-6.1769C33.6495 -6.12581 35.0295 -5.94336 36.3656 -5.64268ZM23.3547 -2.74534C23.1612 -1.75718 23.0729 -0.77631 23.0875 0.197257C19.9238 1.82546 17.3173 4.35718 15.5803 7.45084C14.5742 7.45449 13.56 7.57418 12.5386 7.79969C14.6881 3.07125 18.56 -0.715736 23.3547 -2.74534ZM9.56468 10.7547C7.2801 11.8384 4.9466 13.5112 2.57733 15.7765C3.68274 16.807 6.13307 18.8899 9.23539 20.3874C9.0441 19.338 8.92509 18.2637 8.88493 17.169H5.27005V15.3445H8.88931C8.95721 13.7673 9.18647 12.2318 9.56468 10.7547ZM11.9172 23.3578C12.8788 23.6191 13.8761 23.803 14.8983 23.884C16.5951 27.6053 19.4967 30.642 23.1284 32.4965C23.2094 33.5094 23.4022 34.529 23.7052 35.5558C18.2438 33.3606 13.925 28.9095 11.9172 23.3578ZM26.8797 38.4138C27.9545 40.3843 29.46 42.3905 31.408 44.4252C32.3601 43.4042 34.2124 41.2323 35.6705 38.462C34.5527 38.6765 33.4057 38.8072 32.236 38.8502V42.384H30.4107V38.8451C29.2074 38.7933 28.0275 38.6481 26.8797 38.4138ZM38.8276 35.6675C39.1306 34.6837 39.3563 33.6598 39.4738 32.606C43.2172 30.7646 46.202 27.6805 47.9295 23.8694C48.9546 23.776 49.9541 23.5804 50.9172 23.3067C48.8823 28.9781 44.4402 33.5087 38.8276 35.6675ZM53.9319 17.169C53.8932 18.2331 53.7793 19.2782 53.5968 20.2999C56.6137 18.8103 58.9881 16.7873 60.0716 15.7773C57.7673 13.5747 55.4973 11.9297 53.2733 10.8437C53.6377 12.2939 53.8604 13.7987 53.9283 15.3445H57.4628V17.169H53.9319Z" fill="#DF0E12"/>
<path fill-rule="evenodd" clip-rule="evenodd" d="M50.6836 0.663603C49.7578 0.663603 48.8867 0.302347 48.2318 -0.352293C47.5761 -1.00693 47.2155 -1.8776 47.2155 -2.80373C47.2155 -3.72986 47.5769 -4.60052 48.2318 -5.25516C48.8867 -5.9098 49.757 -6.27032 50.6836 -6.27032H50.6843C51.6101 -6.27032 52.4812 -5.9098 53.1361 -5.25516C54.4883 -3.90282 54.4883 -1.7039 53.1354 -0.352293C52.4812 0.302347 51.6094 0.663603 50.6836 0.663603ZM50.6842 -4.44509C50.2447 -4.44509 49.8322 -4.27431 49.5219 -3.96414C49.2123 -3.6547 49.0407 -3.24236 49.0407 -2.80229C49.0407 -2.3644 49.2115 -1.95206 49.5219 -1.64189C50.1425 -1.02082 51.2245 -1.02082 51.8451 -1.64189C52.4855 -2.28266 52.4862 -3.3241 51.8459 -3.96414C51.5356 -4.27431 51.123 -4.44509 50.6842 -4.44509Z" fill="#DF0E12"/>
<path fill-rule="evenodd" clip-rule="evenodd" d="M11.9632 32.4337C12.889 32.4337 13.7601 32.795 14.415 33.4496C15.0699 34.1043 15.4306 34.9749 15.4306 35.9003C15.4306 36.8257 15.0699 37.6956 14.4143 38.351C13.7586 39.0064 12.8876 39.3669 11.9618 39.3669C11.036 39.3669 10.1649 39.0057 9.51 38.351C8.85507 37.6964 8.49438 36.8264 8.49438 35.9003C8.49511 34.9742 8.8558 34.1035 9.51073 33.4496C10.1664 32.7942 11.0367 32.4337 11.9632 32.4337ZM10.8008 37.0615C11.4207 37.6818 12.5027 37.6811 13.1241 37.0615C13.4344 36.752 13.6052 36.339 13.6052 35.9003C13.6052 35.461 13.4344 35.0494 13.1241 34.7392C12.8138 34.429 12.4012 34.2583 11.9624 34.2583C11.5236 34.2583 11.1111 34.429 10.8008 34.7392C10.4905 35.0494 10.3196 35.4617 10.3196 35.9003C10.3196 36.339 10.4905 36.7513 10.8008 37.0615Z" fill="#DF0E12"/>
<path fill-rule="evenodd" clip-rule="evenodd" d="M48.2318 33.4496C48.886 32.7942 49.7563 32.4337 50.6836 32.4337C51.6108 32.4337 52.4812 32.7942 53.1354 33.4489C54.4883 34.8012 54.4883 36.9994 53.1354 38.3517C52.4812 39.0064 51.6101 39.3669 50.6843 39.3669C49.7585 39.3669 48.8867 39.0057 48.2318 38.351C47.5761 37.6971 47.2155 36.8272 47.2155 35.9003C47.2155 34.9749 47.5769 34.1043 48.2318 33.4496ZM49.5219 37.0608C50.1432 37.6804 51.2245 37.6826 51.8451 37.0615C52.4855 36.4207 52.4855 35.38 51.8451 34.7385C51.5348 34.4283 51.1223 34.2576 50.6835 34.2576C50.2447 34.2576 49.8322 34.4283 49.5219 34.7385C49.2115 35.0487 49.0407 35.461 49.0407 35.8996C49.0407 36.339 49.2115 36.7506 49.5219 37.0608Z" fill="#DF0E12"/>
<path fill-rule="evenodd" clip-rule="evenodd" d="M14.4143 -0.353025C13.7594 0.301615 12.889 0.662141 11.9625 0.662141C11.0367 0.662141 10.1657 0.301615 9.50927 -0.353755C8.15707 -1.70536 8.15707 -3.90428 9.50927 -5.25589C10.1649 -5.91053 11.0352 -6.27106 11.9618 -6.27106C12.8883 -6.27106 13.7594 -5.9098 14.4143 -5.25516C15.7665 -3.90355 15.7665 -1.70463 14.4143 -0.353025ZM11.9625 -4.44651C11.5236 -4.44651 11.1111 -4.275 10.8008 -3.96483C10.1605 -3.32479 10.1605 -2.28335 10.8008 -1.6433C11.4214 -1.02297 12.5035 -1.02297 13.1241 -1.6433C13.4344 -1.95347 13.6053 -2.36582 13.6053 -2.80443C13.6053 -3.24305 13.4344 -3.65539 13.1241 -3.96556C12.8138 -4.27573 12.4013 -4.44651 11.9625 -4.44651Z" fill="#DF0E12"/>
<path fill-rule="evenodd" clip-rule="evenodd" d="M42.7973 37.5183C43.3062 37.2395 43.8809 37.0921 44.4591 37.0921C45.7288 37.0921 46.8956 37.784 47.5045 38.8962C48.4223 40.5733 47.8038 42.6839 46.1253 43.6013C45.6164 43.8793 45.0425 44.0268 44.465 44.0268C43.1953 44.0268 42.0278 43.3349 41.4188 42.2219C40.9735 41.4104 40.8727 40.474 41.1334 39.5851C41.3933 38.6962 41.9847 37.962 42.7973 37.5183ZM43.0193 41.3469C43.4406 42.1161 44.4708 42.4277 45.2491 42.0008C46.0443 41.5658 46.337 40.566 45.9019 39.7712C45.6135 39.2436 45.06 38.9166 44.4584 38.9166C44.1817 38.9166 43.9174 38.9838 43.6728 39.1188C43.2873 39.329 43.0069 39.6771 42.8835 40.0982C42.7608 40.5186 42.809 40.9623 43.0193 41.3469Z" fill="#DF0E12"/>
<path fill-rule="evenodd" clip-rule="evenodd" d="M55.4907 25.9464C56.0551 25.9464 56.618 26.088 57.1189 26.3551C57.9366 26.7901 58.5353 27.5177 58.8062 28.4037C59.0771 29.2897 58.9858 30.2275 58.5499 31.0449C57.9454 32.1783 56.7721 32.8818 55.4863 32.8818C54.9219 32.8818 54.3597 32.7409 53.8588 32.4746C53.0404 32.0389 52.4409 31.312 52.1715 30.426C51.9014 29.54 51.9926 28.6022 52.4285 27.7848C53.0309 26.6514 54.2049 25.9464 55.4907 25.9464ZM54.7152 30.8639C55.4994 31.2813 56.5259 30.9609 56.9392 30.1866C57.1451 29.7998 57.1874 29.3561 57.0604 28.9364C56.9319 28.5168 56.6479 28.1716 56.2602 27.9658C56.0192 27.8373 55.76 27.7716 55.4899 27.7716C54.881 27.7716 54.3253 28.1052 54.0391 28.6423C53.8325 29.0298 53.7887 29.475 53.9172 29.8947C54.045 30.3136 54.329 30.658 54.7152 30.8639Z" fill="#DF0E12"/>
<path fill-rule="evenodd" clip-rule="evenodd" d="M7.15522 7.14798C6.59083 7.14798 6.0279 7.00712 5.52703 6.74074C3.8397 5.84089 3.19791 3.73757 4.0967 2.05098C4.70052 0.917585 5.87384 0.213318 7.15887 0.213318C7.72326 0.213318 8.28693 0.354171 8.7878 0.621282C10.4751 1.51968 11.1169 3.62299 10.2181 5.31031C9.61431 6.44444 8.44098 7.14798 7.15522 7.14798ZM7.15966 2.03855C6.55073 2.03855 5.99437 2.37207 5.70816 2.90921C5.28249 3.70763 5.58623 4.70382 6.38645 5.13076C7.16842 5.54821 8.19572 5.22855 8.60824 4.45349C9.03391 3.65435 8.73017 2.65816 7.93068 2.23268C7.689 2.1035 7.42981 2.03855 7.15966 2.03855Z" fill="#DF0E12"/>
<path fill-rule="evenodd" clip-rule="evenodd" d="M18.5015 37.2629C19.0637 37.2629 19.6251 37.403 20.1245 37.6672C20.943 38.0992 21.5439 38.8254 21.8163 39.7107C22.0886 40.5967 21.9995 41.5352 21.5651 42.3533C20.9627 43.4903 19.7872 44.1975 18.4985 44.1975C17.9363 44.1975 17.3756 44.0567 16.8762 43.7925C15.1881 42.897 14.5412 40.7944 15.4364 39.1056C16.0387 37.9693 17.2128 37.2629 18.5015 37.2629ZM17.732 42.1811C18.519 42.5985 19.5412 42.2745 19.953 41.4987C20.1589 41.1112 20.2013 40.6667 20.072 40.2478C19.9428 39.8289 19.658 39.4851 19.2711 39.2808C19.0294 39.1523 18.7709 39.0881 18.5015 39.0881C17.8911 39.0881 17.3348 39.4224 17.0493 39.9602C16.6258 40.7608 16.9317 41.757 17.732 42.1811Z" fill="#DF0E12"/>
<path fill-rule="evenodd" clip-rule="evenodd" d="M10.3715 28.0687C10.8176 28.8781 10.9227 29.8144 10.6643 30.704C10.4065 31.5944 9.8166 32.3308 9.00469 32.7767C8.4936 33.0577 7.91607 33.2066 7.33488 33.2066C6.06883 33.2066 4.90281 32.5184 4.29388 31.409C3.37319 29.7349 3.98723 27.6235 5.66142 26.7018C6.17324 26.4201 6.75005 26.2712 7.3305 26.2712C8.59582 26.2712 9.76184 26.9601 10.3715 28.0687ZM8.12496 31.1784C8.50974 30.9668 8.78938 30.6179 8.91131 30.1968C9.03324 29.7757 8.98359 29.3327 8.77258 28.9489C8.48345 28.4219 7.93074 28.0957 7.33057 28.0957C7.05312 28.0957 6.78736 28.1636 6.54203 28.2993C5.74838 28.7365 5.45706 29.737 5.89367 30.5304C6.31423 31.2959 7.35175 31.6039 8.12496 31.1784Z" fill="#DF0E12"/>
<path fill-rule="evenodd" clip-rule="evenodd" d="M52.2737 5.02788C51.8268 4.21633 51.7232 3.27999 51.9816 2.39108C52.2401 1.50217 52.8293 0.766519 53.6412 0.319876C54.1523 0.0388986 54.7291 -0.109253 55.3096 -0.109253C56.5756 -0.109253 57.7416 0.578958 58.3513 1.68681C59.2727 3.36172 58.6594 5.47307 56.9838 6.39482C56.4727 6.67579 55.8951 6.82468 55.3147 6.82468C54.0494 6.82468 52.8841 6.13646 52.2737 5.02788ZM54.521 1.91816C54.1363 2.1298 53.8566 2.47865 53.7347 2.89975C53.612 3.32085 53.661 3.76385 53.872 4.14773C54.2954 4.91622 55.3257 5.2242 56.104 4.7958C56.8976 4.35937 57.1889 3.3588 56.7516 2.5655C56.4625 2.04077 55.9105 1.71454 55.3096 1.71454C55.0358 1.71454 54.7634 1.7846 54.521 1.91816Z" fill="#DF0E12"/>
</g>
</svg>
