<svg width="28" height="28" viewBox="0 0 28 28" fill="none" xmlns="http://www.w3.org/2000/svg">
<g id="logo">
<path id="Shape" fill-rule="evenodd" clip-rule="evenodd" d="M0 13.9999C0 6.26913 6.2692 -6.10352e-05 14 -6.10352e-05C21.7308 -6.10352e-05 28 6.26913 28 13.9999C28 21.7307 21.7308 27.9999 14 27.9999C6.2692 27.9999 0 21.7307 0 13.9999ZM20.4014 11.3309C20.4014 11.1919 20.3984 11.0534 20.3922 10.9156C21.0197 10.4621 21.565 9.89603 21.9951 9.25153C21.4193 9.50745 20.7998 9.67984 20.1498 9.7576C20.8133 9.35962 21.3226 8.73029 21.5629 7.98026C20.9419 8.34833 20.2545 8.61578 19.5224 8.76019C18.936 8.13556 18.1011 7.74484 17.1768 7.74484C15.4022 7.74484 13.963 9.18402 13.963 10.9579C13.963 11.21 13.9915 11.4553 14.0466 11.6907C11.3759 11.5563 9.00763 10.2776 7.42297 8.33316C7.14697 8.80804 6.98782 9.35962 6.98782 9.94836C6.98782 11.0633 7.55499 12.0474 8.41782 12.6231C7.89059 12.6069 7.39542 12.4621 6.9624 12.2213C6.96198 12.2348 6.96198 12.2478 6.96198 12.2623C6.96198 13.8184 8.06961 15.1178 9.53998 15.4122C9.26996 15.4859 8.98584 15.5254 8.69254 15.5254C8.48596 15.5254 8.28452 15.5049 8.08862 15.4673C8.49792 16.7441 9.68396 17.6732 11.0907 17.6992C9.99072 18.5612 8.60516 19.0748 7.09955 19.0748C6.84042 19.0748 6.5845 19.06 6.33307 19.0303C7.75516 19.9419 9.44385 20.4738 11.2586 20.4738C17.1693 20.4736 20.4014 15.5771 20.4014 11.3309Z" fill="#DD0E12"/>
</g>
</svg>
